<svg width="466" height="132" viewBox="0 0 466 132" fill="none" xmlns="http://www.w3.org/2000/svg">
<path d="M15.104 99H3.712L37.376 8.75999H52.736L86.4 99H75.008L67.328 77.752H22.528L15.104 99ZM45.184 18.232L25.728 69.432H64.512L45.184 18.232ZM140.173 99H102.285V8.75999H140.429C156.685 8.75999 168.589 19 168.589 33.08C168.589 42.296 162.573 50.232 154.125 52.408C164.109 54.712 171.149 63.544 171.149 73.784C171.149 88.376 158.093 99 140.173 99ZM138.765 57.272H112.909V89.528H138.765C151.437 89.528 160.525 82.616 160.525 73.272C160.525 63.928 151.437 57.272 138.765 57.272ZM139.149 18.232H112.909V47.8H139.149C150.157 47.8 157.965 41.784 157.965 33.08C157.965 24.504 150.157 18.232 139.149 18.232ZM188.058 53.944C188.058 25.656 208.154 5.56 236.57 5.56C264.986 5.56 285.21 25.656 285.21 53.944C285.21 82.232 264.986 102.2 236.57 102.2C208.154 102.2 188.058 82.232 188.058 53.944ZM198.682 53.944C198.682 76.472 214.554 92.6 236.57 92.728C258.714 92.728 274.458 76.472 274.458 53.944C274.458 31.288 258.714 15.032 236.57 15.032C214.554 15.032 198.682 31.288 198.682 53.944ZM366.731 62.392V8.75999H377.355V62.392C377.355 85.688 362.251 102.2 340.875 102.2C319.371 102.2 304.267 85.688 304.267 62.392V8.75999H314.891V62.392C314.891 78.904 325.131 92.728 340.875 92.728C356.363 92.728 366.731 80.184 366.731 62.392ZM432.27 18.232V99H421.646V18.232H391.438V8.75999H462.478V18.232H432.27Z" fill="white"/>
</svg>
