<svg width="680" height="154" viewBox="0 0 680 154" fill="none" xmlns="http://www.w3.org/2000/svg">
<g clip-path="url(#clip0_53_3477)">
<mask id="path-1-outside-1_53_3477" maskUnits="userSpaceOnUse" x="0" y="22" width="680" height="109" fill="black">
<rect fill="white" y="22" width="680" height="109"/>
<path d="M42.24 57.72L36.224 77.176H56.32L50.304 57.72C49.9627 56.952 49.5787 56.3973 49.152 56.056C48.8107 55.7147 48.384 55.544 47.872 55.544H44.672C44.16 55.544 43.6907 55.7147 43.264 56.056C42.9227 56.3973 42.5813 56.952 42.24 57.72ZM34.944 118.392C34.944 120.013 34.56 121.208 33.792 121.976C33.1093 122.659 31.9573 123 30.336 123H11.52C9.89867 123 8.704 122.659 7.936 121.976C7.25333 121.208 6.912 120.013 6.912 118.392V84.6C6.912 82.04 7.296 79.096 8.064 75.768C8.91733 72.44 10.1973 68.5573 11.904 64.12L23.04 35.064C23.552 33.6133 24.32 32.5467 25.344 31.864C26.4533 31.1813 27.8613 30.84 29.568 30.84H64C65.6213 30.84 66.944 31.1813 67.968 31.864C69.0773 32.5467 69.888 33.6133 70.4 35.064L81.536 64.12C83.2427 68.5573 84.48 72.44 85.248 75.768C86.1013 79.096 86.528 82.04 86.528 84.6V118.392C86.528 120.013 86.144 121.208 85.376 121.976C84.6933 122.659 83.5413 123 81.92 123H62.592C60.8853 123 59.6053 122.659 58.752 121.976C57.984 121.208 57.6 120.013 57.6 118.392V100.472H34.944V118.392ZM156.092 123H106.94C105.319 123 104.124 122.659 103.356 121.976C102.673 121.208 102.332 120.013 102.332 118.392V35.448C102.332 33.8267 102.673 32.6747 103.356 31.992C104.124 31.224 105.319 30.84 106.94 30.84H147.772C156.135 30.84 162.321 32.4613 166.332 35.704C170.343 38.8613 172.348 43.768 172.348 50.424V56.568C172.348 60.152 171.708 63.096 170.428 65.4C169.233 67.6187 167.356 69.2827 164.796 70.392C170.257 70.904 174.311 72.7813 176.956 76.024C179.601 79.2667 180.924 84.0027 180.924 90.232V102.008C180.924 109.176 178.876 114.467 174.78 117.88C170.769 121.293 164.54 123 156.092 123ZM131.132 52.6V66.424H142.012C143.633 66.424 144.828 65.9973 145.596 65.144C146.449 64.2907 146.876 63.0107 146.876 61.304V57.72C146.876 56.0133 146.449 54.7333 145.596 53.88C144.828 53.0267 143.633 52.6 142.012 52.6H131.132ZM131.132 86.136V101.24H147.772C149.393 101.24 150.588 100.813 151.356 99.96C152.209 99.1067 152.636 97.8267 152.636 96.12V91.128C152.636 89.4213 152.209 88.184 151.356 87.416C150.588 86.5627 149.393 86.136 147.772 86.136H131.132ZM273.162 98.808C273.162 102.733 272.565 106.317 271.37 109.56C270.261 112.717 268.213 115.448 265.226 117.752C262.325 119.971 258.271 121.72 253.066 123C247.946 124.28 241.418 124.92 233.482 124.92C225.546 124.92 218.975 124.28 213.77 123C208.565 121.72 204.469 119.971 201.482 117.752C198.581 115.448 196.533 112.717 195.338 109.56C194.229 106.317 193.674 102.733 193.674 98.808V55.16C193.674 51.2347 194.229 47.6933 195.338 44.536C196.533 41.2933 198.581 38.52 201.482 36.216C204.469 33.912 208.565 32.12 213.77 30.84C218.975 29.56 225.546 28.92 233.482 28.92C241.418 28.92 247.946 29.56 253.066 30.84C258.271 32.12 262.325 33.912 265.226 36.216C268.213 38.52 270.261 41.2933 271.37 44.536C272.565 47.6933 273.162 51.2347 273.162 55.16V98.808ZM222.73 94.2C222.73 95.9067 223.37 97.3573 224.65 98.552C225.93 99.6613 228.874 100.216 233.482 100.216C238.09 100.216 241.034 99.6613 242.314 98.552C243.594 97.3573 244.234 95.9067 244.234 94.2V59.768C244.234 58.1467 243.594 56.7813 242.314 55.672C241.034 54.4773 238.09 53.88 233.482 53.88C228.874 53.88 225.93 54.4773 224.65 55.672C223.37 56.7813 222.73 58.1467 222.73 59.768V94.2ZM367.921 98.808C367.921 102.733 367.324 106.317 366.129 109.56C365.02 112.717 362.972 115.448 359.985 117.752C357.084 119.971 353.073 121.72 347.953 123C342.833 124.28 336.305 124.92 328.369 124.92C320.433 124.92 313.905 124.28 308.785 123C303.665 121.72 299.612 119.971 296.625 117.752C293.724 115.448 291.676 112.717 290.481 109.56C289.372 106.317 288.817 102.733 288.817 98.808V35.448C288.817 33.8267 289.158 32.6747 289.841 31.992C290.609 31.224 291.804 30.84 293.425 30.84H313.521C315.142 30.84 316.294 31.224 316.977 31.992C317.745 32.6747 318.129 33.8267 318.129 35.448V93.816C318.129 95.5227 318.769 96.9733 320.049 98.168C321.329 99.2773 324.188 99.832 328.625 99.832C333.148 99.832 336.049 99.2773 337.329 98.168C338.609 96.9733 339.249 95.5227 339.249 93.816V35.448C339.249 33.8267 339.59 32.6747 340.273 31.992C341.041 31.224 342.236 30.84 343.857 30.84H363.313C364.934 30.84 366.086 31.224 366.769 31.992C367.537 32.6747 367.921 33.8267 367.921 35.448V98.808ZM428.477 123H407.741C406.12 123 404.925 122.659 404.157 121.976C403.474 121.208 403.133 120.013 403.133 118.392V55.544H384.317C382.696 55.544 381.501 55.2027 380.733 54.52C380.05 53.752 379.709 52.5573 379.709 50.936V35.448C379.709 33.8267 380.05 32.6747 380.733 31.992C381.501 31.224 382.696 30.84 384.317 30.84H451.901C453.522 30.84 454.674 31.224 455.357 31.992C456.125 32.6747 456.509 33.8267 456.509 35.448V50.936C456.509 52.5573 456.125 53.752 455.357 54.52C454.674 55.2027 453.522 55.544 451.901 55.544H433.085V118.392C433.085 120.013 432.701 121.208 431.933 121.976C431.25 122.659 430.098 123 428.477 123ZM520.137 123H501.065C499.444 123 498.249 122.659 497.481 121.976C496.798 121.208 496.457 120.013 496.457 118.392V35.448C496.457 33.8267 496.798 32.6747 497.481 31.992C498.249 31.224 499.444 30.84 501.065 30.84H521.673C523.038 30.84 524.148 31.1387 525.001 31.736C525.94 32.3333 526.793 33.3147 527.561 34.68L539.081 55.544C539.508 56.312 539.849 56.8667 540.105 57.208C540.446 57.5493 540.873 57.72 541.385 57.72H542.537C543.049 57.72 543.433 57.5493 543.689 57.208C544.03 56.8667 544.414 56.312 544.841 55.544L556.233 34.68C557.001 33.3147 557.812 32.3333 558.665 31.736C559.604 31.1387 560.756 30.84 562.121 30.84H582.857C584.478 30.84 585.63 31.224 586.313 31.992C587.081 32.6747 587.465 33.8267 587.465 35.448V118.392C587.465 120.013 587.081 121.208 586.313 121.976C585.63 122.659 584.478 123 582.857 123H563.145C561.524 123 560.329 122.659 559.561 121.976C558.878 121.208 558.537 120.013 558.537 118.392V73.336L550.985 87.288C550.217 88.7387 549.278 89.8053 548.169 90.488C547.145 91.0853 545.822 91.384 544.201 91.384H539.081C537.46 91.384 536.094 91.0853 534.985 90.488C533.961 89.8053 533.065 88.7387 532.297 87.288L524.745 73.336V118.392C524.745 120.013 524.361 121.208 523.593 121.976C522.91 122.659 521.758 123 520.137 123ZM669.082 123H609.69C608.069 123 606.874 122.659 606.106 121.976C605.423 121.208 605.082 120.013 605.082 118.392V35.448C605.082 33.8267 605.423 32.6747 606.106 31.992C606.874 31.224 608.069 30.84 609.69 30.84H669.082C670.703 30.84 671.855 31.224 672.538 31.992C673.306 32.6747 673.69 33.8267 673.69 35.448V50.424C673.69 52.0453 673.306 53.24 672.538 54.008C671.855 54.6907 670.703 55.032 669.082 55.032H633.754V64.888H658.714C660.335 64.888 661.487 65.272 662.17 66.04C662.938 66.7227 663.322 67.8747 663.322 69.496V83.192C663.322 84.8133 662.938 86.008 662.17 86.776C661.487 87.4587 660.335 87.8 658.714 87.8H633.754V98.808H669.082C670.703 98.808 671.855 99.192 672.538 99.96C673.306 100.643 673.69 101.795 673.69 103.416V118.392C673.69 120.013 673.306 121.208 672.538 121.976C671.855 122.659 670.703 123 669.082 123Z"/>
</mask>
<path d="M42.24 57.72L36.224 77.176H56.32L50.304 57.72C49.9627 56.952 49.5787 56.3973 49.152 56.056C48.8107 55.7147 48.384 55.544 47.872 55.544H44.672C44.16 55.544 43.6907 55.7147 43.264 56.056C42.9227 56.3973 42.5813 56.952 42.24 57.72ZM34.944 118.392C34.944 120.013 34.56 121.208 33.792 121.976C33.1093 122.659 31.9573 123 30.336 123H11.52C9.89867 123 8.704 122.659 7.936 121.976C7.25333 121.208 6.912 120.013 6.912 118.392V84.6C6.912 82.04 7.296 79.096 8.064 75.768C8.91733 72.44 10.1973 68.5573 11.904 64.12L23.04 35.064C23.552 33.6133 24.32 32.5467 25.344 31.864C26.4533 31.1813 27.8613 30.84 29.568 30.84H64C65.6213 30.84 66.944 31.1813 67.968 31.864C69.0773 32.5467 69.888 33.6133 70.4 35.064L81.536 64.12C83.2427 68.5573 84.48 72.44 85.248 75.768C86.1013 79.096 86.528 82.04 86.528 84.6V118.392C86.528 120.013 86.144 121.208 85.376 121.976C84.6933 122.659 83.5413 123 81.92 123H62.592C60.8853 123 59.6053 122.659 58.752 121.976C57.984 121.208 57.6 120.013 57.6 118.392V100.472H34.944V118.392ZM156.092 123H106.94C105.319 123 104.124 122.659 103.356 121.976C102.673 121.208 102.332 120.013 102.332 118.392V35.448C102.332 33.8267 102.673 32.6747 103.356 31.992C104.124 31.224 105.319 30.84 106.94 30.84H147.772C156.135 30.84 162.321 32.4613 166.332 35.704C170.343 38.8613 172.348 43.768 172.348 50.424V56.568C172.348 60.152 171.708 63.096 170.428 65.4C169.233 67.6187 167.356 69.2827 164.796 70.392C170.257 70.904 174.311 72.7813 176.956 76.024C179.601 79.2667 180.924 84.0027 180.924 90.232V102.008C180.924 109.176 178.876 114.467 174.78 117.88C170.769 121.293 164.54 123 156.092 123ZM131.132 52.6V66.424H142.012C143.633 66.424 144.828 65.9973 145.596 65.144C146.449 64.2907 146.876 63.0107 146.876 61.304V57.72C146.876 56.0133 146.449 54.7333 145.596 53.88C144.828 53.0267 143.633 52.6 142.012 52.6H131.132ZM131.132 86.136V101.24H147.772C149.393 101.24 150.588 100.813 151.356 99.96C152.209 99.1067 152.636 97.8267 152.636 96.12V91.128C152.636 89.4213 152.209 88.184 151.356 87.416C150.588 86.5627 149.393 86.136 147.772 86.136H131.132ZM273.162 98.808C273.162 102.733 272.565 106.317 271.37 109.56C270.261 112.717 268.213 115.448 265.226 117.752C262.325 119.971 258.271 121.72 253.066 123C247.946 124.28 241.418 124.92 233.482 124.92C225.546 124.92 218.975 124.28 213.77 123C208.565 121.72 204.469 119.971 201.482 117.752C198.581 115.448 196.533 112.717 195.338 109.56C194.229 106.317 193.674 102.733 193.674 98.808V55.16C193.674 51.2347 194.229 47.6933 195.338 44.536C196.533 41.2933 198.581 38.52 201.482 36.216C204.469 33.912 208.565 32.12 213.77 30.84C218.975 29.56 225.546 28.92 233.482 28.92C241.418 28.92 247.946 29.56 253.066 30.84C258.271 32.12 262.325 33.912 265.226 36.216C268.213 38.52 270.261 41.2933 271.37 44.536C272.565 47.6933 273.162 51.2347 273.162 55.16V98.808ZM222.73 94.2C222.73 95.9067 223.37 97.3573 224.65 98.552C225.93 99.6613 228.874 100.216 233.482 100.216C238.09 100.216 241.034 99.6613 242.314 98.552C243.594 97.3573 244.234 95.9067 244.234 94.2V59.768C244.234 58.1467 243.594 56.7813 242.314 55.672C241.034 54.4773 238.09 53.88 233.482 53.88C228.874 53.88 225.93 54.4773 224.65 55.672C223.37 56.7813 222.73 58.1467 222.73 59.768V94.2ZM367.921 98.808C367.921 102.733 367.324 106.317 366.129 109.56C365.02 112.717 362.972 115.448 359.985 117.752C357.084 119.971 353.073 121.72 347.953 123C342.833 124.28 336.305 124.92 328.369 124.92C320.433 124.92 313.905 124.28 308.785 123C303.665 121.72 299.612 119.971 296.625 117.752C293.724 115.448 291.676 112.717 290.481 109.56C289.372 106.317 288.817 102.733 288.817 98.808V35.448C288.817 33.8267 289.158 32.6747 289.841 31.992C290.609 31.224 291.804 30.84 293.425 30.84H313.521C315.142 30.84 316.294 31.224 316.977 31.992C317.745 32.6747 318.129 33.8267 318.129 35.448V93.816C318.129 95.5227 318.769 96.9733 320.049 98.168C321.329 99.2773 324.188 99.832 328.625 99.832C333.148 99.832 336.049 99.2773 337.329 98.168C338.609 96.9733 339.249 95.5227 339.249 93.816V35.448C339.249 33.8267 339.59 32.6747 340.273 31.992C341.041 31.224 342.236 30.84 343.857 30.84H363.313C364.934 30.84 366.086 31.224 366.769 31.992C367.537 32.6747 367.921 33.8267 367.921 35.448V98.808ZM428.477 123H407.741C406.12 123 404.925 122.659 404.157 121.976C403.474 121.208 403.133 120.013 403.133 118.392V55.544H384.317C382.696 55.544 381.501 55.2027 380.733 54.52C380.05 53.752 379.709 52.5573 379.709 50.936V35.448C379.709 33.8267 380.05 32.6747 380.733 31.992C381.501 31.224 382.696 30.84 384.317 30.84H451.901C453.522 30.84 454.674 31.224 455.357 31.992C456.125 32.6747 456.509 33.8267 456.509 35.448V50.936C456.509 52.5573 456.125 53.752 455.357 54.52C454.674 55.2027 453.522 55.544 451.901 55.544H433.085V118.392C433.085 120.013 432.701 121.208 431.933 121.976C431.25 122.659 430.098 123 428.477 123ZM520.137 123H501.065C499.444 123 498.249 122.659 497.481 121.976C496.798 121.208 496.457 120.013 496.457 118.392V35.448C496.457 33.8267 496.798 32.6747 497.481 31.992C498.249 31.224 499.444 30.84 501.065 30.84H521.673C523.038 30.84 524.148 31.1387 525.001 31.736C525.94 32.3333 526.793 33.3147 527.561 34.68L539.081 55.544C539.508 56.312 539.849 56.8667 540.105 57.208C540.446 57.5493 540.873 57.72 541.385 57.72H542.537C543.049 57.72 543.433 57.5493 543.689 57.208C544.03 56.8667 544.414 56.312 544.841 55.544L556.233 34.68C557.001 33.3147 557.812 32.3333 558.665 31.736C559.604 31.1387 560.756 30.84 562.121 30.84H582.857C584.478 30.84 585.63 31.224 586.313 31.992C587.081 32.6747 587.465 33.8267 587.465 35.448V118.392C587.465 120.013 587.081 121.208 586.313 121.976C585.63 122.659 584.478 123 582.857 123H563.145C561.524 123 560.329 122.659 559.561 121.976C558.878 121.208 558.537 120.013 558.537 118.392V73.336L550.985 87.288C550.217 88.7387 549.278 89.8053 548.169 90.488C547.145 91.0853 545.822 91.384 544.201 91.384H539.081C537.46 91.384 536.094 91.0853 534.985 90.488C533.961 89.8053 533.065 88.7387 532.297 87.288L524.745 73.336V118.392C524.745 120.013 524.361 121.208 523.593 121.976C522.91 122.659 521.758 123 520.137 123ZM669.082 123H609.69C608.069 123 606.874 122.659 606.106 121.976C605.423 121.208 605.082 120.013 605.082 118.392V35.448C605.082 33.8267 605.423 32.6747 606.106 31.992C606.874 31.224 608.069 30.84 609.69 30.84H669.082C670.703 30.84 671.855 31.224 672.538 31.992C673.306 32.6747 673.69 33.8267 673.69 35.448V50.424C673.69 52.0453 673.306 53.24 672.538 54.008C671.855 54.6907 670.703 55.032 669.082 55.032H633.754V64.888H658.714C660.335 64.888 661.487 65.272 662.17 66.04C662.938 66.7227 663.322 67.8747 663.322 69.496V83.192C663.322 84.8133 662.938 86.008 662.17 86.776C661.487 87.4587 660.335 87.8 658.714 87.8H633.754V98.808H669.082C670.703 98.808 671.855 99.192 672.538 99.96C673.306 100.643 673.69 101.795 673.69 103.416V118.392C673.69 120.013 673.306 121.208 672.538 121.976C671.855 122.659 670.703 123 669.082 123Z" fill="white"/>
<path d="M42.24 57.72L36.7571 55.2832L36.6128 55.608L36.5078 55.9475L42.24 57.72ZM36.224 77.176L30.4918 75.4035L28.0885 83.176H36.224V77.176ZM56.32 77.176V83.176H64.4556L62.0522 75.4035L56.32 77.176ZM50.304 57.72L56.0362 55.9475L55.9312 55.608L55.7869 55.2832L50.304 57.72ZM49.152 56.056L44.9093 60.2986L45.1443 60.5336L45.4039 60.7412L49.152 56.056ZM43.264 56.056L39.5158 51.3708L39.2564 51.5784L39.0214 51.8133L43.264 56.056ZM33.792 121.976L29.5494 117.733L29.5494 117.733L33.792 121.976ZM7.936 121.976L3.45154 125.962L3.68603 126.226L3.94982 126.46L7.936 121.976ZM8.064 75.768L2.25202 74.2777L2.23398 74.3481L2.21765 74.4188L8.064 75.768ZM11.904 64.12L17.5041 66.2739L17.5066 66.2673L11.904 64.12ZM23.04 35.064L28.6426 37.2113L28.6713 37.1365L28.6979 37.0609L23.04 35.064ZM25.344 31.864L22.1994 26.7541L22.1065 26.8112L22.0158 26.8717L25.344 31.864ZM67.968 31.864L64.6398 36.8563L64.7305 36.9168L64.8234 36.974L67.968 31.864ZM70.4 35.064L64.7421 37.0609L64.7687 37.1365L64.7974 37.2113L70.4 35.064ZM81.536 64.12L75.9334 66.2673L75.9359 66.2739L81.536 64.12ZM85.248 75.768L79.4017 77.1172L79.418 77.1879L79.436 77.2583L85.248 75.768ZM85.376 121.976L89.6186 126.219L89.6186 126.219L85.376 121.976ZM58.752 121.976L54.5094 126.219L54.7443 126.454L55.0038 126.661L58.752 121.976ZM57.6 100.472H63.6V94.472H57.6V100.472ZM34.944 100.472V94.472H28.944V100.472H34.944ZM36.5078 55.9475L30.4918 75.4035L41.9562 78.9485L47.9722 59.4925L36.5078 55.9475ZM36.224 83.176H56.32V71.176H36.224V83.176ZM62.0522 75.4035L56.0362 55.9475L44.5718 59.4925L50.5878 78.9485L62.0522 75.4035ZM55.7869 55.2832C55.2463 54.0668 54.3731 52.5491 52.9001 51.3708L45.4039 60.7412C45.0708 60.4748 44.8918 60.237 44.8269 60.1433C44.761 60.0481 44.7673 60.0358 44.8211 60.1568L55.7869 55.2832ZM53.3947 51.8134C51.8545 50.2733 49.8682 49.544 47.872 49.544V61.544C47.4517 61.544 46.9196 61.4716 46.3477 61.2429C45.7687 61.0113 45.2837 60.673 44.9093 60.2986L53.3947 51.8134ZM47.872 49.544H44.672V61.544H47.872V49.544ZM44.672 49.544C42.7025 49.544 40.9297 50.2397 39.5158 51.3708L47.0122 60.7412C46.7631 60.9404 46.4209 61.1528 45.9865 61.3108C45.5473 61.4705 45.0974 61.544 44.672 61.544V49.544ZM39.0214 51.8133C37.9098 52.9249 37.2095 54.2653 36.7571 55.2832L47.7229 60.1568C47.7668 60.058 47.8021 59.9855 47.8277 59.9359C47.8536 59.8858 47.8656 59.8667 47.8619 59.8726C47.8587 59.8778 47.8327 59.9199 47.7806 59.9883C47.7292 60.0558 47.6395 60.1658 47.5066 60.2987L39.0214 51.8133ZM28.944 118.392C28.944 118.751 28.8988 118.808 28.9438 118.668C28.9981 118.499 29.1615 118.121 29.5494 117.733L38.0346 126.219C40.3782 123.875 40.944 120.828 40.944 118.392H28.944ZM29.5494 117.733C30.0676 117.215 30.5596 117.036 30.7115 116.991C30.8435 116.952 30.7568 117 30.336 117V129C32.5298 129 35.6681 128.585 38.0346 126.219L29.5494 117.733ZM30.336 117H11.52V129H30.336V117ZM11.52 117C11.1073 117 10.9832 116.954 11.0563 116.975C11.1465 117.001 11.5071 117.123 11.9222 117.492L3.94982 126.46C6.29856 128.548 9.23729 129 11.52 129V117ZM12.4205 117.99C12.7894 118.405 12.9114 118.766 12.9371 118.856C12.958 118.929 12.912 118.805 12.912 118.392H0.912C0.912 120.675 1.36377 123.613 3.45154 125.962L12.4205 117.99ZM12.912 118.392V84.6H0.912V118.392H12.912ZM12.912 84.6C12.912 82.6159 13.2128 80.1398 13.9103 77.1172L2.21765 74.4188C1.37918 78.0522 0.912 81.464 0.912 84.6H12.912ZM13.876 77.2583C14.6545 74.2222 15.8517 70.5699 17.5041 66.2739L6.30393 61.9661C4.54293 66.5447 3.18021 70.6578 2.25202 74.2777L13.876 77.2583ZM17.5066 66.2673L28.6426 37.2113L17.4374 32.9167L6.30139 61.9727L17.5066 66.2673ZM28.6979 37.0609C28.7956 36.7844 28.8696 36.6813 28.8692 36.6818C28.8684 36.6829 28.8515 36.706 28.8152 36.7414C28.7784 36.7774 28.7302 36.8176 28.6722 36.8563L22.0158 26.8717C19.6663 28.438 18.2165 30.7029 17.3821 33.0671L28.6979 37.0609ZM28.4886 36.9739C28.4014 37.0276 28.6347 36.84 29.568 36.84V24.84C27.088 24.84 24.5053 25.335 22.1994 26.7541L28.4886 36.9739ZM29.568 36.84H64V24.84H29.568V36.84ZM64 36.84C64.8068 36.84 64.8699 37.0097 64.6398 36.8563L71.2962 26.8717C69.0182 25.353 66.4358 24.84 64 24.84V36.84ZM64.8234 36.974C64.7825 36.9488 64.741 36.9177 64.7031 36.8832C64.6654 36.8489 64.6418 36.8207 64.631 36.8065C64.6087 36.7771 64.6631 36.8372 64.7421 37.0609L76.0579 33.0671C75.1753 30.5663 73.5944 28.2813 71.1126 26.754L64.8234 36.974ZM64.7974 37.2113L75.9334 66.2673L87.1386 61.9727L76.0026 32.9167L64.7974 37.2113ZM75.9359 66.2739C77.5777 70.5424 78.7159 74.1455 79.4017 77.1172L91.0943 74.4188C90.2441 70.7345 88.9077 66.5723 87.1361 61.9661L75.9359 66.2739ZM79.436 77.2583C80.2041 80.2537 80.528 82.6804 80.528 84.6H92.528C92.528 81.3996 91.9986 77.9382 91.06 74.2777L79.436 77.2583ZM80.528 84.6V118.392H92.528V84.6H80.528ZM80.528 118.392C80.528 118.751 80.4828 118.808 80.5278 118.668C80.5821 118.499 80.7456 118.121 81.1334 117.733L89.6186 126.219C91.9623 123.875 92.528 120.828 92.528 118.392H80.528ZM81.1334 117.733C81.6516 117.215 82.1436 117.036 82.2955 116.991C82.4275 116.952 82.3408 117 81.92 117V129C84.1138 129 87.2521 128.585 89.6186 126.219L81.1334 117.733ZM81.92 117H62.592V129H81.92V117ZM62.592 117C62.3631 117 62.1926 116.988 62.0733 116.975C62.0144 116.968 61.9709 116.961 61.9413 116.956C61.9117 116.95 61.8979 116.947 61.898 116.947C61.8981 116.947 61.9137 116.951 61.9425 116.961C61.9713 116.972 62.0142 116.989 62.0684 117.015C62.1783 117.068 62.3303 117.155 62.5002 117.291L55.0038 126.661C57.3732 128.557 60.2443 129 62.592 129V117ZM62.9946 117.733C63.3825 118.121 63.5459 118.499 63.6002 118.668C63.6452 118.808 63.6 118.751 63.6 118.392H51.6C51.6 120.828 52.1658 123.875 54.5094 126.219L62.9946 117.733ZM63.6 118.392V100.472H51.6V118.392H63.6ZM57.6 94.472H34.944V106.472H57.6V94.472ZM28.944 100.472V118.392H40.944V100.472H28.944ZM103.356 121.976L98.8715 125.962L99.106 126.226L99.3698 126.46L103.356 121.976ZM103.356 31.992L99.1134 27.7494L99.1134 27.7494L103.356 31.992ZM166.332 35.704L162.56 40.3698L162.59 40.3943L162.621 40.4184L166.332 35.704ZM170.428 65.4L165.183 62.4861L165.164 62.5206L165.145 62.5554L170.428 65.4ZM164.796 70.392L162.41 64.8867L164.236 76.3658L164.796 70.392ZM176.956 76.024L172.307 79.8168L172.307 79.8168L176.956 76.024ZM174.78 117.88L170.939 113.271L170.915 113.291L170.891 113.311L174.78 117.88ZM131.132 52.6V46.6H125.132V52.6H131.132ZM131.132 66.424H125.132V72.424H131.132V66.424ZM145.596 65.144L141.353 60.9014L141.242 61.0129L141.136 61.1302L145.596 65.144ZM145.596 53.88L141.136 57.8938L141.242 58.0111L141.353 58.1226L145.596 53.88ZM131.132 86.136V80.136H125.132V86.136H131.132ZM131.132 101.24H125.132V107.24H131.132V101.24ZM151.356 99.96L147.113 95.7174L147.002 95.8289L146.896 95.9462L151.356 99.96ZM151.356 87.416L146.896 91.4298L147.107 91.6645L147.342 91.8758L151.356 87.416ZM156.092 117H106.94V129H156.092V117ZM106.94 117C106.527 117 106.403 116.954 106.476 116.975C106.566 117.001 106.927 117.123 107.342 117.492L99.3698 126.46C101.719 128.548 104.657 129 106.94 129V117ZM107.84 117.99C108.209 118.405 108.331 118.766 108.357 118.856C108.378 118.929 108.332 118.805 108.332 118.392H96.332C96.332 120.675 96.7838 123.613 98.8715 125.962L107.84 117.99ZM108.332 118.392V35.448H96.332V118.392H108.332ZM108.332 35.448C108.332 35.0272 108.38 34.9405 108.341 35.0725C108.296 35.2244 108.117 35.7164 107.599 36.2346L99.1134 27.7494C96.7468 30.1159 96.332 33.2542 96.332 35.448H108.332ZM107.599 36.2346C107.211 36.6225 106.833 36.7859 106.664 36.8402C106.524 36.8852 106.581 36.84 106.94 36.84V24.84C104.504 24.84 101.457 25.4058 99.1134 27.7494L107.599 36.2346ZM106.94 36.84H147.772V24.84H106.94V36.84ZM147.772 36.84C155.554 36.84 160.103 38.3834 162.56 40.3698L170.104 31.0382C164.54 26.5393 156.715 24.84 147.772 24.84V36.84ZM162.621 40.4184C164.769 42.1097 166.348 45.0013 166.348 50.424H178.348C178.348 42.5347 175.916 35.613 170.043 30.9896L162.621 40.4184ZM166.348 50.424V56.568H178.348V50.424H166.348ZM166.348 56.568C166.348 59.4834 165.821 61.3369 165.183 62.4861L175.673 68.3139C177.595 64.855 178.348 60.8205 178.348 56.568H166.348ZM165.145 62.5554C164.659 63.4585 163.874 64.2525 162.41 64.8867L167.182 75.8973C170.838 74.3128 173.808 71.7788 175.711 68.2446L165.145 62.5554ZM164.236 76.3658C168.615 76.7764 170.965 78.1718 172.307 79.8168L181.605 72.2312C177.656 67.3908 171.899 65.0316 165.356 64.4182L164.236 76.3658ZM172.307 79.8168C173.741 81.5745 174.924 84.7344 174.924 90.232H186.924C186.924 83.271 185.462 76.9588 181.605 72.2312L172.307 79.8168ZM174.924 90.232V102.008H186.924V90.232H174.924ZM174.924 102.008C174.924 108.046 173.235 111.357 170.939 113.271L178.621 122.489C184.517 117.576 186.924 110.306 186.924 102.008H174.924ZM170.891 113.311C168.454 115.385 163.924 117 156.092 117V129C165.156 129 173.085 127.202 178.669 122.449L170.891 113.311ZM125.132 52.6V66.424H137.132V52.6H125.132ZM131.132 72.424H142.012V60.424H131.132V72.424ZM142.012 72.424C144.613 72.424 147.743 71.7273 150.056 69.1578L141.136 61.1302C141.486 60.7419 141.867 60.539 142.106 60.4535C142.308 60.3814 142.317 60.424 142.012 60.424V72.424ZM149.839 69.3866C152.214 67.0112 152.876 63.9355 152.876 61.304H140.876C140.876 61.6752 140.828 61.7558 140.864 61.6466C140.884 61.586 140.928 61.4759 141.011 61.337C141.096 61.196 141.209 61.0455 141.353 60.9014L149.839 69.3866ZM152.876 61.304V57.72H140.876V61.304H152.876ZM152.876 57.72C152.876 55.0885 152.214 52.0128 149.839 49.6374L141.353 58.1226C141.209 57.9785 141.096 57.828 141.011 57.687C140.928 57.5481 140.884 57.438 140.864 57.3774C140.828 57.2682 140.876 57.3488 140.876 57.72H152.876ZM150.056 49.8662C147.743 47.2967 144.613 46.6 142.012 46.6V58.6C142.317 58.6 142.308 58.6426 142.106 58.5705C141.867 58.485 141.486 58.282 141.136 57.8938L150.056 49.8662ZM142.012 46.6H131.132V58.6H142.012V46.6ZM125.132 86.136V101.24H137.132V86.136H125.132ZM131.132 107.24H147.772V95.24H131.132V107.24ZM147.772 107.24C150.373 107.24 153.503 106.543 155.816 103.974L146.896 95.9462C147.246 95.5579 147.627 95.355 147.866 95.2695C148.068 95.1974 148.077 95.24 147.772 95.24V107.24ZM155.599 104.203C157.974 101.827 158.636 98.7515 158.636 96.12H146.636C146.636 96.4912 146.588 96.5718 146.624 96.4626C146.644 96.402 146.688 96.2919 146.771 96.153C146.856 96.012 146.969 95.8615 147.113 95.7174L155.599 104.203ZM158.636 96.12V91.128H146.636V96.12H158.636ZM158.636 91.128C158.636 88.555 157.997 85.3211 155.37 82.9562L147.342 91.8758C146.912 91.4888 146.715 91.0825 146.644 90.8759C146.586 90.707 146.636 90.7492 146.636 91.128H158.636ZM155.816 83.4022C153.503 80.8327 150.373 80.136 147.772 80.136V92.136C148.077 92.136 148.068 92.1786 147.866 92.1064C147.627 92.021 147.246 91.8181 146.896 91.4298L155.816 83.4022ZM147.772 80.136H131.132V92.136H147.772V80.136ZM271.37 109.56L265.74 107.486L265.724 107.528L265.709 107.571L271.37 109.56ZM265.226 117.752L268.871 122.518L268.881 122.51L268.891 122.503L265.226 117.752ZM253.066 123L251.633 117.174L251.622 117.176L251.611 117.179L253.066 123ZM213.77 123L212.337 128.826L212.337 128.826L213.77 123ZM201.482 117.752L197.751 122.451L197.826 122.511L197.904 122.568L201.482 117.752ZM195.338 109.56L189.661 111.502L189.692 111.593L189.726 111.683L195.338 109.56ZM195.338 44.536L189.708 42.4618L189.692 42.5043L189.677 42.5471L195.338 44.536ZM201.482 36.216L197.817 31.4653L197.784 31.4911L197.751 31.5173L201.482 36.216ZM213.77 30.84L212.337 25.0136L212.337 25.0136L213.77 30.84ZM253.066 30.84L251.611 36.6609L251.622 36.6637L251.633 36.6664L253.066 30.84ZM265.226 36.216L261.495 40.9147L261.528 40.9409L261.561 40.9667L265.226 36.216ZM271.37 44.536L265.693 46.4781L265.724 46.5693L265.758 46.6593L271.37 44.536ZM224.65 98.552L220.556 102.938L220.637 103.014L220.72 103.086L224.65 98.552ZM242.314 98.552L246.244 103.086L246.327 103.014L246.408 102.938L242.314 98.552ZM242.314 55.672L238.22 60.0583L238.301 60.1337L238.384 60.2061L242.314 55.672ZM224.65 55.672L228.58 60.2061L228.663 60.1337L228.744 60.0583L224.65 55.672ZM267.162 98.808C267.162 102.121 266.659 104.991 265.74 107.486L277 111.634C278.47 107.644 279.162 103.346 279.162 98.808H267.162ZM265.709 107.571C265.032 109.499 263.75 111.313 261.561 113.001L268.891 122.503C272.675 119.583 275.49 115.936 277.031 111.549L265.709 107.571ZM261.581 112.986C259.569 114.525 256.38 116.006 251.633 117.174L254.499 128.826C260.163 127.434 265.081 125.417 268.871 122.518L261.581 112.986ZM251.611 117.179C247.141 118.297 241.147 118.92 233.482 118.92V130.92C241.689 130.92 248.751 130.263 254.521 128.821L251.611 117.179ZM233.482 118.92C225.821 118.92 219.773 118.298 215.203 117.174L212.337 128.826C218.177 130.262 225.271 130.92 233.482 130.92V118.92ZM215.203 117.174C210.458 116.007 207.189 114.517 205.06 112.936L197.904 122.568C201.748 125.424 206.671 127.433 212.337 128.826L215.203 117.174ZM205.213 113.053C203.074 111.355 201.725 109.485 200.95 107.437L189.726 111.683C191.341 115.95 194.087 119.541 197.751 122.451L205.213 113.053ZM201.015 107.618C200.148 105.084 199.674 102.167 199.674 98.808H187.674C187.674 103.3 188.309 107.551 189.661 111.502L201.015 107.618ZM199.674 98.808V55.16H187.674V98.808H199.674ZM199.674 55.16C199.674 51.7975 200.149 48.9434 200.999 46.5249L189.677 42.5471C188.308 46.4433 187.674 50.6718 187.674 55.16H199.674ZM200.968 46.6102C201.755 44.4746 203.109 42.5858 205.213 40.9147L197.751 31.5173C194.052 34.4542 191.31 38.112 189.708 42.4618L200.968 46.6102ZM205.147 40.9667C207.256 39.3399 210.492 37.8249 215.203 36.6664L212.337 25.0136C206.638 26.4151 201.682 28.4841 197.817 31.4653L205.147 40.9667ZM215.203 36.6664C219.773 35.5425 225.821 34.92 233.482 34.92V22.92C225.271 22.92 218.177 23.5775 212.337 25.0136L215.203 36.6664ZM233.482 34.92C241.147 34.92 247.141 35.5434 251.611 36.6609L254.521 25.0191C248.751 23.5766 241.689 22.92 233.482 22.92V34.92ZM251.633 36.6664C256.346 37.8253 259.502 39.332 261.495 40.9147L268.957 31.5173C265.148 28.492 260.197 26.4147 254.499 25.0136L251.633 36.6664ZM261.561 40.9667C263.714 42.6273 265.003 44.4598 265.693 46.4781L277.047 42.5939C275.519 38.1269 272.712 34.4127 268.891 31.4653L261.561 40.9667ZM265.758 46.6593C266.658 49.0374 267.162 51.844 267.162 55.16H279.162C279.162 50.6254 278.471 46.3492 276.982 42.4126L265.758 46.6593ZM267.162 55.16V98.808H279.162V55.16H267.162ZM216.73 94.2C216.73 97.6179 218.096 100.642 220.556 102.938L228.744 94.1657C228.685 94.1108 228.665 94.082 228.666 94.0836C228.666 94.084 228.67 94.0901 228.677 94.1017C228.684 94.1133 228.692 94.1283 228.7 94.1462C228.707 94.164 228.714 94.1821 228.72 94.1994C228.725 94.2167 228.729 94.2307 228.73 94.24C228.732 94.2493 228.732 94.2518 228.732 94.2463C228.731 94.2408 228.73 94.2257 228.73 94.2H216.73ZM220.72 103.086C222.566 104.686 224.885 105.353 226.707 105.696C228.685 106.069 230.981 106.216 233.482 106.216V94.216C231.375 94.216 229.895 94.0857 228.929 93.9037C228.454 93.8143 228.206 93.731 228.121 93.6975C228.024 93.6592 228.245 93.7278 228.58 94.0179L220.72 103.086ZM233.482 106.216C235.983 106.216 238.279 106.069 240.257 105.696C242.079 105.353 244.398 104.686 246.244 103.086L238.384 94.0179C238.719 93.7278 238.94 93.6592 238.843 93.6975C238.758 93.731 238.51 93.8143 238.035 93.9037C237.069 94.0857 235.589 94.216 233.482 94.216V106.216ZM246.408 102.938C248.868 100.642 250.234 97.6179 250.234 94.2H238.234C238.234 94.2257 238.233 94.2408 238.232 94.2463C238.232 94.2518 238.232 94.2493 238.234 94.24C238.235 94.2307 238.239 94.2167 238.244 94.1994C238.25 94.1821 238.257 94.164 238.264 94.1462C238.272 94.1283 238.28 94.1133 238.287 94.1017C238.294 94.0901 238.298 94.084 238.298 94.0836C238.299 94.082 238.279 94.1108 238.22 94.1657L246.408 102.938ZM250.234 94.2V59.768H238.234V94.2H250.234ZM250.234 59.768C250.234 56.3197 248.771 53.3287 246.244 51.1379L238.384 60.2061C238.431 60.2462 238.434 60.2561 238.413 60.23C238.392 60.2024 238.357 60.15 238.321 60.0746C238.286 59.9987 238.261 59.923 238.247 59.8572C238.233 59.7928 238.234 59.7594 238.234 59.768H250.234ZM246.408 51.2857C244.566 49.5662 242.213 48.828 240.339 48.4478C238.325 48.0392 235.999 47.88 233.482 47.88V59.88C235.573 59.88 237.023 60.0195 237.953 60.2082C239.023 60.4253 238.782 60.5831 238.22 60.0583L246.408 51.2857ZM233.482 47.88C230.965 47.88 228.639 48.0392 226.625 48.4478C224.751 48.828 222.398 49.5662 220.556 51.2857L228.744 60.0583C228.182 60.5831 227.941 60.4253 229.011 60.2082C229.941 60.0195 231.391 59.88 233.482 59.88V47.88ZM220.72 51.1379C218.193 53.3287 216.73 56.3197 216.73 59.768H228.73C228.73 59.7594 228.731 59.7928 228.717 59.8572C228.703 59.923 228.678 59.9987 228.643 60.0746C228.607 60.15 228.572 60.2024 228.551 60.23C228.53 60.2561 228.533 60.2462 228.58 60.2061L220.72 51.1379ZM216.73 59.768V94.2H228.73V59.768H216.73ZM366.129 109.56L360.499 107.486L360.483 107.528L360.468 107.571L366.129 109.56ZM359.985 117.752L363.63 122.518L363.64 122.51L363.65 122.503L359.985 117.752ZM308.785 123L310.24 117.179L310.24 117.179L308.785 123ZM296.625 117.752L292.894 122.451L292.969 122.511L293.047 122.568L296.625 117.752ZM290.481 109.56L284.804 111.502L284.835 111.593L284.869 111.683L290.481 109.56ZM289.841 31.992L285.598 27.7494L285.598 27.7494L289.841 31.992ZM316.977 31.992L312.493 35.9782L312.727 36.242L312.991 36.4764L316.977 31.992ZM320.049 98.168L315.955 102.554L316.036 102.63L316.119 102.702L320.049 98.168ZM337.329 98.168L341.259 102.702L341.342 102.63L341.423 102.554L337.329 98.168ZM340.273 31.992L336.03 27.7494L336.03 27.7494L340.273 31.992ZM366.769 31.992L362.285 35.9782L362.519 36.242L362.783 36.4764L366.769 31.992ZM361.921 98.808C361.921 102.121 361.418 104.991 360.499 107.486L371.759 111.634C373.229 107.644 373.921 103.346 373.921 98.808H361.921ZM360.468 107.571C359.791 109.499 358.509 111.313 356.32 113.001L363.65 122.503C367.434 119.583 370.249 115.936 371.79 111.549L360.468 107.571ZM356.34 112.986C354.311 114.538 351.149 116.016 346.498 117.179L349.408 128.821C354.997 127.424 359.856 125.404 363.63 122.518L356.34 112.986ZM346.498 117.179C342.028 118.297 336.034 118.92 328.369 118.92V130.92C336.576 130.92 343.638 130.263 349.408 128.821L346.498 117.179ZM328.369 118.92C320.704 118.92 314.71 118.297 310.24 117.179L307.33 128.821C313.1 130.263 320.162 130.92 328.369 130.92V118.92ZM310.24 117.179C305.59 116.017 302.349 114.529 300.203 112.936L293.047 122.568C296.875 125.412 301.74 127.423 307.33 128.821L310.24 117.179ZM300.356 113.053C298.217 111.355 296.868 109.485 296.093 107.437L284.869 111.683C286.484 115.95 289.23 119.541 292.894 122.451L300.356 113.053ZM296.158 107.618C295.291 105.084 294.817 102.167 294.817 98.808H282.817C282.817 103.3 283.452 107.551 284.804 111.502L296.158 107.618ZM294.817 98.808V35.448H282.817V98.808H294.817ZM294.817 35.448C294.817 35.0272 294.865 34.9405 294.826 35.0725C294.781 35.2244 294.602 35.7164 294.084 36.2346L285.598 27.7494C283.232 30.1159 282.817 33.2542 282.817 35.448H294.817ZM294.084 36.2346C293.696 36.6225 293.318 36.7859 293.149 36.8402C293.009 36.8852 293.066 36.84 293.425 36.84V24.84C290.989 24.84 287.942 25.4058 285.598 27.7494L294.084 36.2346ZM293.425 36.84H313.521V24.84H293.425V36.84ZM313.521 36.84C313.889 36.84 313.906 36.8874 313.704 36.8201C313.465 36.7405 312.967 36.5116 312.493 35.9782L321.461 28.0058C319.122 25.3738 315.88 24.84 313.521 24.84V36.84ZM312.991 36.4764C312.457 36.0023 312.228 35.504 312.149 35.2654C312.082 35.0634 312.129 35.08 312.129 35.448H324.129C324.129 33.0894 323.595 29.8471 320.963 27.5075L312.991 36.4764ZM312.129 35.448V93.816H324.129V35.448H312.129ZM312.129 93.816C312.129 97.2339 313.495 100.258 315.955 102.554L324.143 93.7817C324.084 93.7268 324.064 93.698 324.065 93.6996C324.065 93.7 324.069 93.7061 324.076 93.7177C324.083 93.7293 324.091 93.7443 324.099 93.7622C324.106 93.78 324.113 93.7981 324.119 93.8154C324.124 93.8327 324.128 93.8467 324.129 93.856C324.131 93.8653 324.131 93.8678 324.131 93.8623C324.13 93.8568 324.129 93.8417 324.129 93.816H312.129ZM316.119 102.702C317.937 104.277 320.198 104.955 322.01 105.306C323.957 105.684 326.2 105.832 328.625 105.832V93.832C326.613 93.832 325.208 93.7028 324.296 93.5258C323.249 93.3227 323.441 93.1683 323.979 93.6339L316.119 102.702ZM328.625 105.832C331.088 105.832 333.357 105.684 335.32 105.309C337.137 104.962 339.427 104.29 341.259 102.702L333.399 93.6339C333.723 93.353 333.937 93.2851 333.846 93.3212C333.766 93.3531 333.527 93.4347 333.066 93.5227C332.127 93.7022 330.685 93.832 328.625 93.832V105.832ZM341.423 102.554C343.883 100.258 345.249 97.2339 345.249 93.816H333.249C333.249 93.8417 333.248 93.8568 333.247 93.8623C333.247 93.8678 333.247 93.8653 333.249 93.856C333.25 93.8467 333.254 93.8327 333.259 93.8154C333.265 93.7981 333.272 93.78 333.279 93.7622C333.287 93.7443 333.295 93.7293 333.302 93.7177C333.309 93.7061 333.313 93.7 333.313 93.6996C333.314 93.698 333.294 93.7268 333.235 93.7817L341.423 102.554ZM345.249 93.816V35.448H333.249V93.816H345.249ZM345.249 35.448C345.249 35.0272 345.297 34.9405 345.258 35.0725C345.213 35.2244 345.034 35.7164 344.516 36.2346L336.03 27.7494C333.664 30.1159 333.249 33.2542 333.249 35.448H345.249ZM344.516 36.2346C344.128 36.6225 343.75 36.7859 343.581 36.8402C343.441 36.8852 343.498 36.84 343.857 36.84V24.84C341.421 24.84 338.374 25.4058 336.03 27.7494L344.516 36.2346ZM343.857 36.84H363.313V24.84H343.857V36.84ZM363.313 36.84C363.681 36.84 363.698 36.8874 363.496 36.8201C363.257 36.7405 362.759 36.5116 362.285 35.9782L371.253 28.0058C368.914 25.3738 365.672 24.84 363.313 24.84V36.84ZM362.783 36.4764C362.249 36.0023 362.02 35.504 361.941 35.2654C361.874 35.0634 361.921 35.08 361.921 35.448H373.921C373.921 33.0894 373.387 29.8471 370.755 27.5075L362.783 36.4764ZM361.921 35.448V98.808H373.921V35.448H361.921ZM404.157 121.976L399.673 125.962L399.907 126.226L400.171 126.46L404.157 121.976ZM403.133 55.544H409.133V49.544H403.133V55.544ZM380.733 54.52L376.249 58.5062L376.483 58.77L376.747 59.0044L380.733 54.52ZM380.733 31.992L376.49 27.7494L376.49 27.7494L380.733 31.992ZM455.357 31.992L450.873 35.9782L451.107 36.242L451.371 36.4764L455.357 31.992ZM433.085 55.544V49.544H427.085V55.544H433.085ZM431.933 121.976L427.69 117.733L427.69 117.733L431.933 121.976ZM428.477 117H407.741V129H428.477V117ZM407.741 117C407.328 117 407.204 116.954 407.277 116.975C407.367 117.001 407.728 117.123 408.143 117.492L400.171 126.46C402.52 128.548 405.458 129 407.741 129V117ZM408.641 117.99C409.01 118.405 409.132 118.766 409.158 118.856C409.179 118.929 409.133 118.805 409.133 118.392H397.133C397.133 120.675 397.585 123.613 399.673 125.962L408.641 117.99ZM409.133 118.392V55.544H397.133V118.392H409.133ZM403.133 49.544H384.317V61.544H403.133V49.544ZM384.317 49.544C383.904 49.544 383.78 49.498 383.853 49.5189C383.943 49.5446 384.304 49.6666 384.719 50.0355L376.747 59.0044C379.096 61.0922 382.034 61.544 384.317 61.544V49.544ZM385.217 50.5338C385.586 50.9489 385.708 51.3095 385.734 51.3997C385.755 51.4728 385.709 51.3487 385.709 50.936H373.709C373.709 53.2187 374.161 56.1574 376.249 58.5062L385.217 50.5338ZM385.709 50.936V35.448H373.709V50.936H385.709ZM385.709 35.448C385.709 35.0272 385.757 34.9405 385.718 35.0725C385.673 35.2244 385.494 35.7164 384.976 36.2346L376.49 27.7494C374.124 30.1159 373.709 33.2542 373.709 35.448H385.709ZM384.976 36.2346C384.588 36.6225 384.21 36.7859 384.041 36.8402C383.901 36.8852 383.958 36.84 384.317 36.84V24.84C381.881 24.84 378.834 25.4058 376.49 27.7494L384.976 36.2346ZM384.317 36.84H451.901V24.84H384.317V36.84ZM451.901 36.84C452.269 36.84 452.286 36.8874 452.084 36.8201C451.845 36.7405 451.347 36.5116 450.873 35.9782L459.841 28.0058C457.502 25.3738 454.26 24.84 451.901 24.84V36.84ZM451.371 36.4764C450.837 36.0023 450.608 35.504 450.529 35.2654C450.462 35.0634 450.509 35.08 450.509 35.448H462.509C462.509 33.0894 461.975 29.8471 459.343 27.5075L451.371 36.4764ZM450.509 35.448V50.936H462.509V35.448H450.509ZM450.509 50.936C450.509 51.2954 450.464 51.3521 450.509 51.2119C450.563 51.0432 450.727 50.6652 451.114 50.2774L459.6 58.7626C461.943 56.419 462.509 53.3722 462.509 50.936H450.509ZM451.114 50.2774C451.633 49.7591 452.125 49.5802 452.276 49.5352C452.409 49.4961 452.322 49.544 451.901 49.544V61.544C454.095 61.544 457.233 61.1292 459.6 58.7626L451.114 50.2774ZM451.901 49.544H433.085V61.544H451.901V49.544ZM427.085 55.544V118.392H439.085V55.544H427.085ZM427.085 118.392C427.085 118.751 427.04 118.808 427.085 118.668C427.139 118.499 427.303 118.121 427.69 117.733L436.176 126.219C438.519 123.875 439.085 120.828 439.085 118.392H427.085ZM427.69 117.733C428.209 117.215 428.701 117.036 428.852 116.991C428.985 116.952 428.898 117 428.477 117V129C430.671 129 433.809 128.585 436.176 126.219L427.69 117.733ZM497.481 121.976L492.997 125.962L493.231 126.226L493.495 126.46L497.481 121.976ZM497.481 31.992L493.238 27.7494L493.238 27.7494L497.481 31.992ZM525.001 31.736L521.56 36.6514L521.668 36.7271L521.78 36.798L525.001 31.736ZM527.561 34.68L532.814 31.7798L532.802 31.7591L532.79 31.7384L527.561 34.68ZM539.081 55.544L533.828 58.4442L533.832 58.451L533.836 58.4579L539.081 55.544ZM540.105 57.208L535.305 60.808L535.561 61.1491L535.862 61.4507L540.105 57.208ZM543.689 57.208L539.446 52.9654L539.145 53.2669L538.889 53.608L543.689 57.208ZM544.841 55.544L550.086 58.4579L550.097 58.4387L550.107 58.4194L544.841 55.544ZM556.233 34.68L551.004 31.7384L550.985 31.7714L550.967 31.8046L556.233 34.68ZM558.665 31.736L555.444 26.674L555.332 26.7449L555.224 26.8206L558.665 31.736ZM586.313 31.992L581.829 35.9782L582.063 36.242L582.327 36.4764L586.313 31.992ZM586.313 121.976L590.556 126.219L590.556 126.219L586.313 121.976ZM559.561 121.976L555.077 125.962L555.311 126.226L555.575 126.46L559.561 121.976ZM558.537 73.336H564.537L553.26 70.4799L558.537 73.336ZM550.985 87.288L545.708 84.4319L545.695 84.4562L545.682 84.4807L550.985 87.288ZM548.169 90.488L551.192 95.6707L551.253 95.635L551.314 95.5979L548.169 90.488ZM534.985 90.488L531.657 95.4803L531.892 95.6369L532.14 95.7708L534.985 90.488ZM532.297 87.288L537.6 84.4807L537.587 84.4562L537.574 84.4319L532.297 87.288ZM524.745 73.336L530.022 70.4799L518.745 73.336H524.745ZM523.593 121.976L527.836 126.219L527.836 126.219L523.593 121.976ZM520.137 117H501.065V129H520.137V117ZM501.065 117C500.652 117 500.528 116.954 500.601 116.975C500.691 117.001 501.052 117.123 501.467 117.492L493.495 126.46C495.844 128.548 498.782 129 501.065 129V117ZM501.965 117.99C502.334 118.405 502.456 118.766 502.482 118.856C502.503 118.929 502.457 118.805 502.457 118.392H490.457C490.457 120.675 490.909 123.613 492.997 125.962L501.965 117.99ZM502.457 118.392V35.448H490.457V118.392H502.457ZM502.457 35.448C502.457 35.0272 502.505 34.9405 502.466 35.0725C502.421 35.2244 502.242 35.7164 501.724 36.2346L493.238 27.7494C490.872 30.1159 490.457 33.2542 490.457 35.448H502.457ZM501.724 36.2346C501.336 36.6225 500.958 36.7859 500.789 36.8402C500.649 36.8852 500.706 36.84 501.065 36.84V24.84C498.629 24.84 495.582 25.4058 493.238 27.7494L501.724 36.2346ZM501.065 36.84H521.673V24.84H501.065V36.84ZM521.673 36.84C521.925 36.84 522.008 36.8682 521.969 36.8577C521.948 36.8519 521.896 36.836 521.821 36.8021C521.746 36.7679 521.657 36.7188 521.56 36.6514L528.442 26.8206C526.308 25.3273 523.89 24.84 521.673 24.84V36.84ZM521.78 36.798C521.688 36.7394 521.707 36.7307 521.817 36.8571C521.929 36.9858 522.108 37.2242 522.332 37.6216L532.79 31.7384C531.724 29.8429 530.265 27.9741 528.222 26.674L521.78 36.798ZM522.308 37.5802L533.828 58.4442L544.334 52.6438L532.814 31.7798L522.308 37.5802ZM533.836 58.4579C534.287 59.27 534.791 60.1229 535.305 60.808L544.905 53.608C544.928 53.6393 544.886 53.5844 544.767 53.3914C544.656 53.2109 544.51 52.9611 544.326 52.6301L533.836 58.4579ZM535.862 61.4507C537.403 62.9908 539.389 63.72 541.385 63.72V51.72C541.805 51.72 542.337 51.7924 542.909 52.0211C543.488 52.2527 543.973 52.591 544.348 52.9653L535.862 61.4507ZM541.385 63.72H542.537V51.72H541.385V63.72ZM542.537 63.72C544.513 63.72 546.867 62.9703 548.489 60.808L538.889 53.608C539.365 52.9728 540.014 52.4462 540.772 52.1091C541.496 51.7875 542.133 51.72 542.537 51.72V63.72ZM547.932 61.4506C548.866 60.5164 549.571 59.3841 550.086 58.4579L539.596 52.6301C539.452 52.8903 539.352 53.0451 539.3 53.1207C539.275 53.1562 539.272 53.159 539.29 53.1368C539.306 53.1159 539.358 53.0535 539.446 52.9654L547.932 61.4506ZM550.107 58.4194L561.499 37.5554L550.967 31.8046L539.575 52.6686L550.107 58.4194ZM561.462 37.6216C561.71 37.1815 561.909 36.903 562.043 36.7413C562.177 36.5784 562.207 36.5807 562.106 36.6514L555.224 26.8206C553.358 28.1272 552.01 29.9496 551.004 31.7384L561.462 37.6216ZM561.886 36.798C561.842 36.8263 561.802 36.8461 561.773 36.8589C561.743 36.8714 561.73 36.8742 561.739 36.872C561.757 36.8672 561.873 36.84 562.121 36.84V24.84C559.875 24.84 557.543 25.338 555.444 26.674L561.886 36.798ZM562.121 36.84H582.857V24.84H562.121V36.84ZM582.857 36.84C583.225 36.84 583.242 36.8874 583.04 36.8201C582.801 36.7405 582.303 36.5116 581.829 35.9782L590.797 28.0058C588.458 25.3738 585.216 24.84 582.857 24.84V36.84ZM582.327 36.4764C581.793 36.0023 581.564 35.504 581.485 35.2654C581.418 35.0634 581.465 35.08 581.465 35.448H593.465C593.465 33.0894 592.931 29.8471 590.299 27.5075L582.327 36.4764ZM581.465 35.448V118.392H593.465V35.448H581.465ZM581.465 118.392C581.465 118.751 581.42 118.808 581.465 118.668C581.519 118.499 581.683 118.121 582.07 117.733L590.556 126.219C592.899 123.875 593.465 120.828 593.465 118.392H581.465ZM582.07 117.733C582.589 117.215 583.081 117.036 583.232 116.991C583.365 116.952 583.278 117 582.857 117V129C585.051 129 588.189 128.585 590.556 126.219L582.07 117.733ZM582.857 117H563.145V129H582.857V117ZM563.145 117C562.732 117 562.608 116.954 562.681 116.975C562.771 117.001 563.132 117.123 563.547 117.492L555.575 126.46C557.924 128.548 560.862 129 563.145 129V117ZM564.045 117.99C564.414 118.405 564.536 118.766 564.562 118.856C564.583 118.929 564.537 118.805 564.537 118.392H552.537C552.537 120.675 552.989 123.613 555.077 125.962L564.045 117.99ZM564.537 118.392V73.336H552.537V118.392H564.537ZM553.26 70.4799L545.708 84.4319L556.262 90.1441L563.814 76.1921L553.26 70.4799ZM545.682 84.4807C545.485 84.8532 545.316 85.0813 545.201 85.2122C545.09 85.3385 545.028 85.3761 545.024 85.3781L551.314 95.5979C553.544 94.2256 555.147 92.2493 556.288 90.0953L545.682 84.4807ZM545.146 85.3053C545.316 85.2058 545.135 85.384 544.201 85.384V97.384C546.51 97.384 548.974 96.9648 551.192 95.6707L545.146 85.3053ZM544.201 85.384H539.081V97.384H544.201V85.384ZM539.081 85.384C538.175 85.384 537.849 85.2159 537.83 85.2052L532.14 95.7708C534.339 96.9548 536.744 97.384 539.081 97.384V85.384ZM538.313 85.4957C538.349 85.5198 538.051 85.333 537.6 84.4807L526.994 90.0953C528.079 92.1443 529.573 94.0909 531.657 95.4803L538.313 85.4957ZM537.574 84.4319L530.022 70.4799L519.468 76.1921L527.02 90.1441L537.574 84.4319ZM518.745 73.336V118.392H530.745V73.336H518.745ZM518.745 118.392C518.745 118.751 518.7 118.808 518.745 118.668C518.799 118.499 518.963 118.121 519.35 117.733L527.836 126.219C530.179 123.875 530.745 120.828 530.745 118.392H518.745ZM519.35 117.733C519.869 117.215 520.361 117.036 520.512 116.991C520.645 116.952 520.558 117 520.137 117V129C522.331 129 525.469 128.585 527.836 126.219L519.35 117.733ZM606.106 121.976L601.622 125.962L601.856 126.226L602.12 126.46L606.106 121.976ZM606.106 31.992L601.863 27.7494L601.863 27.7494L606.106 31.992ZM672.538 31.992L668.054 35.9782L668.288 36.242L668.552 36.4764L672.538 31.992ZM633.754 55.032V49.032H627.754V55.032H633.754ZM633.754 64.888H627.754V70.888H633.754V64.888ZM662.17 66.04L657.686 70.0262L657.92 70.29L658.184 70.5244L662.17 66.04ZM662.17 86.776L657.927 82.5334L662.17 86.776ZM633.754 87.8V81.8H627.754V87.8H633.754ZM633.754 98.808H627.754V104.808H633.754V98.808ZM672.538 99.96L668.054 103.946L668.288 104.21L668.552 104.444L672.538 99.96ZM672.538 121.976L676.781 126.219L676.781 126.219L672.538 121.976ZM669.082 117H609.69V129H669.082V117ZM609.69 117C609.277 117 609.153 116.954 609.226 116.975C609.316 117.001 609.677 117.123 610.092 117.492L602.12 126.46C604.469 128.548 607.407 129 609.69 129V117ZM610.59 117.99C610.959 118.405 611.081 118.766 611.107 118.856C611.128 118.929 611.082 118.805 611.082 118.392H599.082C599.082 120.675 599.534 123.613 601.622 125.962L610.59 117.99ZM611.082 118.392V35.448H599.082V118.392H611.082ZM611.082 35.448C611.082 35.0272 611.13 34.9405 611.091 35.0725C611.046 35.2244 610.867 35.7164 610.349 36.2346L601.863 27.7494C599.497 30.1159 599.082 33.2542 599.082 35.448H611.082ZM610.349 36.2346C609.961 36.6225 609.583 36.7859 609.414 36.8402C609.274 36.8852 609.331 36.84 609.69 36.84V24.84C607.254 24.84 604.207 25.4058 601.863 27.7494L610.349 36.2346ZM609.69 36.84H669.082V24.84H609.69V36.84ZM669.082 36.84C669.45 36.84 669.467 36.8874 669.265 36.8201C669.026 36.7405 668.528 36.5116 668.054 35.9782L677.022 28.0058C674.683 25.3738 671.441 24.84 669.082 24.84V36.84ZM668.552 36.4764C668.018 36.0023 667.789 35.504 667.71 35.2654C667.643 35.0634 667.69 35.08 667.69 35.448H679.69C679.69 33.0894 679.156 29.8471 676.524 27.5075L668.552 36.4764ZM667.69 35.448V50.424H679.69V35.448H667.69ZM667.69 50.424C667.69 50.7834 667.645 50.8401 667.69 50.6999C667.744 50.5312 667.908 50.1532 668.295 49.7654L676.781 58.2506C679.124 55.907 679.69 52.8602 679.69 50.424H667.69ZM668.295 49.7654C668.814 49.2471 669.306 49.0682 669.457 49.0232C669.59 48.9841 669.503 49.032 669.082 49.032V61.032C671.276 61.032 674.414 60.6172 676.781 58.2506L668.295 49.7654ZM669.082 49.032H633.754V61.032H669.082V49.032ZM627.754 55.032V64.888H639.754V55.032H627.754ZM633.754 70.888H658.714V58.888H633.754V70.888ZM658.714 70.888C659.082 70.888 659.099 70.9354 658.897 70.8681C658.658 70.7885 658.16 70.5596 657.686 70.0262L666.654 62.0538C664.315 59.4218 661.073 58.888 658.714 58.888V70.888ZM658.184 70.5244C657.65 70.0503 657.421 69.552 657.342 69.3134C657.275 69.1114 657.322 69.128 657.322 69.496H669.322C669.322 67.1374 668.788 63.8951 666.156 61.5555L658.184 70.5244ZM657.322 69.496V83.192H669.322V69.496H657.322ZM657.322 83.192C657.322 83.5514 657.277 83.6081 657.322 83.4679C657.376 83.2992 657.54 82.9212 657.927 82.5334L666.413 91.0186C668.756 88.675 669.322 85.6282 669.322 83.192H657.322ZM657.927 82.5334C658.446 82.0151 658.938 81.8362 659.089 81.7912C659.222 81.7521 659.135 81.8 658.714 81.8V93.8C660.908 93.8 664.046 93.3852 666.413 91.0186L657.927 82.5334ZM658.714 81.8H633.754V93.8H658.714V81.8ZM627.754 87.8V98.808H639.754V87.8H627.754ZM633.754 104.808H669.082V92.808H633.754V104.808ZM669.082 104.808C669.45 104.808 669.467 104.855 669.265 104.788C669.026 104.709 668.528 104.48 668.054 103.946L677.022 95.9738C674.683 93.3418 671.441 92.808 669.082 92.808V104.808ZM668.552 104.444C668.018 103.97 667.789 103.472 667.71 103.233C667.643 103.031 667.69 103.048 667.69 103.416H679.69C679.69 101.057 679.156 97.8151 676.524 95.4755L668.552 104.444ZM667.69 103.416V118.392H679.69V103.416H667.69ZM667.69 118.392C667.69 118.751 667.645 118.808 667.69 118.668C667.744 118.499 667.908 118.121 668.295 117.733L676.781 126.219C679.124 123.875 679.69 120.828 679.69 118.392H667.69ZM668.295 117.733C668.814 117.215 669.306 117.036 669.457 116.991C669.59 116.952 669.503 117 669.082 117V129C671.276 129 674.414 128.585 676.781 126.219L668.295 117.733Z" fill="#6B59CD" mask="url(#path-1-outside-1_53_3477)"/>
</g>
<defs>
<clipPath id="clip0_53_3477">
<rect width="680" height="154" fill="white"/>
</clipPath>
</defs>
</svg>
