<svg width="648" height="132" viewBox="0 0 648 132" fill="none" xmlns="http://www.w3.org/2000/svg">
<path d="M86.912 68.92L97.28 70.84C92.8 88.888 75.008 102.2 54.656 102.2C27.52 102.2 7.808 81.976 7.808 53.944C7.808 25.912 27.52 5.56 54.656 5.56C75.008 5.56 92.928 19.512 97.28 38.456L86.784 39.736C83.456 25.656 70.016 15.032 54.656 15.032C33.536 15.032 18.432 31.288 18.432 53.944C18.56 76.472 33.664 92.728 54.656 92.728C69.888 92.728 83.328 82.616 86.912 68.92ZM112.933 53.944C112.933 25.656 133.029 5.56 161.445 5.56C189.861 5.56 210.085 25.656 210.085 53.944C210.085 82.232 189.861 102.2 161.445 102.2C133.029 102.2 112.933 82.232 112.933 53.944ZM123.557 53.944C123.557 76.472 139.429 92.6 161.445 92.728C183.589 92.728 199.333 76.472 199.333 53.944C199.333 31.288 183.589 15.032 161.445 15.032C139.429 15.032 123.557 31.288 123.557 53.944ZM240.534 99H229.91V8.75999H244.374L290.582 85.944V8.75999H301.334V99H286.87L240.534 21.816V99ZM356.895 18.232V99H346.271V18.232H316.063V8.75999H387.103V18.232H356.895ZM399.729 99H388.337L422.001 8.75999H437.361L471.025 99H459.633L451.953 77.752H407.153L399.729 99ZM429.809 18.232L410.353 69.432H449.137L429.809 18.232ZM557.787 68.92L568.155 70.84C563.675 88.888 545.883 102.2 525.531 102.2C498.395 102.2 478.683 81.976 478.683 53.944C478.683 25.912 498.395 5.56 525.531 5.56C545.883 5.56 563.803 19.512 568.155 38.456L557.659 39.736C554.331 25.656 540.891 15.032 525.531 15.032C504.411 15.032 489.307 31.288 489.307 53.944C489.435 76.472 504.539 92.728 525.531 92.728C540.763 92.728 554.203 82.616 557.787 68.92ZM615.02 18.232V99H604.396V18.232H574.188V8.75999H645.228V18.232H615.02Z" fill="white"/>
</svg>
