<svg width="866" height="154" viewBox="0 0 866 154" fill="none" xmlns="http://www.w3.org/2000/svg">
<mask id="path-1-outside-1_56_4942" maskUnits="userSpaceOnUse" x="1" y="22" width="609" height="109" fill="black">
<rect fill="white" x="1" y="22" width="609" height="109"/>
<path d="M70.144 123H38.912C28.2453 123 20.3093 120.867 15.104 116.6C9.984 112.333 7.424 105.763 7.424 96.888V57.08C7.424 48.2053 9.984 41.6347 15.104 37.368C20.3093 33.016 28.2453 30.84 38.912 30.84H70.144C71.7653 30.84 72.9173 31.224 73.6 31.992C74.368 32.6747 74.752 33.8267 74.752 35.448V50.936C74.752 52.5573 74.368 53.752 73.6 54.52C72.9173 55.2027 71.7653 55.544 70.144 55.544H44.416C41.7707 55.544 39.808 56.0987 38.528 57.208C37.248 58.232 36.608 59.8107 36.608 61.944V92.408C36.608 94.5413 37.248 96.12 38.528 97.144C39.808 98.0827 41.7707 98.552 44.416 98.552H70.144C71.7653 98.552 72.9173 98.936 73.6 99.704C74.368 100.387 74.752 101.539 74.752 103.16V118.392C74.752 120.013 74.368 121.208 73.6 121.976C72.9173 122.659 71.7653 123 70.144 123ZM166.662 98.808C166.662 102.733 166.065 106.317 164.87 109.56C163.761 112.717 161.713 115.448 158.726 117.752C155.825 119.971 151.771 121.72 146.566 123C141.446 124.28 134.918 124.92 126.982 124.92C119.046 124.92 112.475 124.28 107.27 123C102.065 121.72 97.9687 119.971 94.982 117.752C92.0807 115.448 90.0327 112.717 88.838 109.56C87.7287 106.317 87.174 102.733 87.174 98.808V55.16C87.174 51.2347 87.7287 47.6933 88.838 44.536C90.0327 41.2933 92.0807 38.52 94.982 36.216C97.9687 33.912 102.065 32.12 107.27 30.84C112.475 29.56 119.046 28.92 126.982 28.92C134.918 28.92 141.446 29.56 146.566 30.84C151.771 32.12 155.825 33.912 158.726 36.216C161.713 38.52 163.761 41.2933 164.87 44.536C166.065 47.6933 166.662 51.2347 166.662 55.16V98.808ZM116.23 94.2C116.23 95.9067 116.87 97.3573 118.15 98.552C119.43 99.6613 122.374 100.216 126.982 100.216C131.59 100.216 134.534 99.6613 135.814 98.552C137.094 97.3573 137.734 95.9067 137.734 94.2V59.768C137.734 58.1467 137.094 56.7813 135.814 55.672C134.534 54.4773 131.59 53.88 126.982 53.88C122.374 53.88 119.43 54.4773 118.15 55.672C116.87 56.7813 116.23 58.1467 116.23 59.768V94.2ZM206.765 123H187.565C185.944 123 184.749 122.659 183.981 121.976C183.298 121.208 182.957 120.013 182.957 118.392V35.448C182.957 33.8267 183.298 32.6747 183.981 31.992C184.749 31.224 185.944 30.84 187.565 30.84H200.877C202.498 30.84 203.864 31.096 204.973 31.608C206.168 32.12 207.32 33.016 208.429 34.296L233.261 62.712V35.448C233.261 33.8267 233.602 32.6747 234.285 31.992C235.053 31.224 236.248 30.84 237.869 30.84H257.069C258.69 30.84 259.842 31.224 260.525 31.992C261.293 32.6747 261.677 33.8267 261.677 35.448V118.392C261.677 120.013 261.293 121.208 260.525 121.976C259.842 122.659 258.69 123 257.069 123H237.869C236.248 123 235.053 122.659 234.285 121.976C233.602 121.208 233.261 120.013 233.261 118.392V102.648L211.373 76.152V118.392C211.373 120.013 210.989 121.208 210.221 121.976C209.538 122.659 208.386 123 206.765 123ZM322.852 123H302.116C300.495 123 299.3 122.659 298.532 121.976C297.849 121.208 297.508 120.013 297.508 118.392V55.544H278.692C277.071 55.544 275.876 55.2027 275.108 54.52C274.425 53.752 274.084 52.5573 274.084 50.936V35.448C274.084 33.8267 274.425 32.6747 275.108 31.992C275.876 31.224 277.071 30.84 278.692 30.84H346.276C347.897 30.84 349.049 31.224 349.732 31.992C350.5 32.6747 350.884 33.8267 350.884 35.448V50.936C350.884 52.5573 350.5 53.752 349.732 54.52C349.049 55.2027 347.897 55.544 346.276 55.544H327.46V118.392C327.46 120.013 327.076 121.208 326.308 121.976C325.625 122.659 324.473 123 322.852 123ZM391.615 57.72L385.599 77.176H405.695L399.679 57.72C399.338 56.952 398.954 56.3973 398.527 56.056C398.186 55.7147 397.759 55.544 397.247 55.544H394.047C393.535 55.544 393.066 55.7147 392.639 56.056C392.298 56.3973 391.956 56.952 391.615 57.72ZM384.319 118.392C384.319 120.013 383.935 121.208 383.167 121.976C382.484 122.659 381.332 123 379.711 123H360.895C359.274 123 358.079 122.659 357.311 121.976C356.628 121.208 356.287 120.013 356.287 118.392V84.6C356.287 82.04 356.671 79.096 357.439 75.768C358.292 72.44 359.572 68.5573 361.279 64.12L372.415 35.064C372.927 33.6133 373.695 32.5467 374.719 31.864C375.828 31.1813 377.236 30.84 378.943 30.84H413.375C414.996 30.84 416.319 31.1813 417.343 31.864C418.452 32.5467 419.263 33.6133 419.775 35.064L430.911 64.12C432.618 68.5573 433.855 72.44 434.623 75.768C435.476 79.096 435.903 82.04 435.903 84.6V118.392C435.903 120.013 435.519 121.208 434.751 121.976C434.068 122.659 432.916 123 431.295 123H411.967C410.26 123 408.98 122.659 408.127 121.976C407.359 121.208 406.975 120.013 406.975 118.392V100.472H384.319V118.392ZM513.019 123H481.787C471.12 123 463.184 120.867 457.979 116.6C452.859 112.333 450.299 105.763 450.299 96.888V57.08C450.299 48.2053 452.859 41.6347 457.979 37.368C463.184 33.016 471.12 30.84 481.787 30.84H513.019C514.64 30.84 515.792 31.224 516.475 31.992C517.243 32.6747 517.627 33.8267 517.627 35.448V50.936C517.627 52.5573 517.243 53.752 516.475 54.52C515.792 55.2027 514.64 55.544 513.019 55.544H487.291C484.646 55.544 482.683 56.0987 481.403 57.208C480.123 58.232 479.483 59.8107 479.483 61.944V92.408C479.483 94.5413 480.123 96.12 481.403 97.144C482.683 98.0827 484.646 98.552 487.291 98.552H513.019C514.64 98.552 515.792 98.936 516.475 99.704C517.243 100.387 517.627 101.539 517.627 103.16V118.392C517.627 120.013 517.243 121.208 516.475 121.976C515.792 122.659 514.64 123 513.019 123ZM575.602 123H554.866C553.245 123 552.05 122.659 551.282 121.976C550.599 121.208 550.258 120.013 550.258 118.392V55.544H531.442C529.821 55.544 528.626 55.2027 527.858 54.52C527.175 53.752 526.834 52.5573 526.834 50.936V35.448C526.834 33.8267 527.175 32.6747 527.858 31.992C528.626 31.224 529.821 30.84 531.442 30.84H599.026C600.647 30.84 601.799 31.224 602.482 31.992C603.25 32.6747 603.634 33.8267 603.634 35.448V50.936C603.634 52.5573 603.25 53.752 602.482 54.52C601.799 55.2027 600.647 55.544 599.026 55.544H580.21V118.392C580.21 120.013 579.826 121.208 579.058 121.976C578.375 122.659 577.223 123 575.602 123Z"/>
</mask>
<path d="M70.144 123H38.912C28.2453 123 20.3093 120.867 15.104 116.6C9.984 112.333 7.424 105.763 7.424 96.888V57.08C7.424 48.2053 9.984 41.6347 15.104 37.368C20.3093 33.016 28.2453 30.84 38.912 30.84H70.144C71.7653 30.84 72.9173 31.224 73.6 31.992C74.368 32.6747 74.752 33.8267 74.752 35.448V50.936C74.752 52.5573 74.368 53.752 73.6 54.52C72.9173 55.2027 71.7653 55.544 70.144 55.544H44.416C41.7707 55.544 39.808 56.0987 38.528 57.208C37.248 58.232 36.608 59.8107 36.608 61.944V92.408C36.608 94.5413 37.248 96.12 38.528 97.144C39.808 98.0827 41.7707 98.552 44.416 98.552H70.144C71.7653 98.552 72.9173 98.936 73.6 99.704C74.368 100.387 74.752 101.539 74.752 103.16V118.392C74.752 120.013 74.368 121.208 73.6 121.976C72.9173 122.659 71.7653 123 70.144 123ZM166.662 98.808C166.662 102.733 166.065 106.317 164.87 109.56C163.761 112.717 161.713 115.448 158.726 117.752C155.825 119.971 151.771 121.72 146.566 123C141.446 124.28 134.918 124.92 126.982 124.92C119.046 124.92 112.475 124.28 107.27 123C102.065 121.72 97.9687 119.971 94.982 117.752C92.0807 115.448 90.0327 112.717 88.838 109.56C87.7287 106.317 87.174 102.733 87.174 98.808V55.16C87.174 51.2347 87.7287 47.6933 88.838 44.536C90.0327 41.2933 92.0807 38.52 94.982 36.216C97.9687 33.912 102.065 32.12 107.27 30.84C112.475 29.56 119.046 28.92 126.982 28.92C134.918 28.92 141.446 29.56 146.566 30.84C151.771 32.12 155.825 33.912 158.726 36.216C161.713 38.52 163.761 41.2933 164.87 44.536C166.065 47.6933 166.662 51.2347 166.662 55.16V98.808ZM116.23 94.2C116.23 95.9067 116.87 97.3573 118.15 98.552C119.43 99.6613 122.374 100.216 126.982 100.216C131.59 100.216 134.534 99.6613 135.814 98.552C137.094 97.3573 137.734 95.9067 137.734 94.2V59.768C137.734 58.1467 137.094 56.7813 135.814 55.672C134.534 54.4773 131.59 53.88 126.982 53.88C122.374 53.88 119.43 54.4773 118.15 55.672C116.87 56.7813 116.23 58.1467 116.23 59.768V94.2ZM206.765 123H187.565C185.944 123 184.749 122.659 183.981 121.976C183.298 121.208 182.957 120.013 182.957 118.392V35.448C182.957 33.8267 183.298 32.6747 183.981 31.992C184.749 31.224 185.944 30.84 187.565 30.84H200.877C202.498 30.84 203.864 31.096 204.973 31.608C206.168 32.12 207.32 33.016 208.429 34.296L233.261 62.712V35.448C233.261 33.8267 233.602 32.6747 234.285 31.992C235.053 31.224 236.248 30.84 237.869 30.84H257.069C258.69 30.84 259.842 31.224 260.525 31.992C261.293 32.6747 261.677 33.8267 261.677 35.448V118.392C261.677 120.013 261.293 121.208 260.525 121.976C259.842 122.659 258.69 123 257.069 123H237.869C236.248 123 235.053 122.659 234.285 121.976C233.602 121.208 233.261 120.013 233.261 118.392V102.648L211.373 76.152V118.392C211.373 120.013 210.989 121.208 210.221 121.976C209.538 122.659 208.386 123 206.765 123ZM322.852 123H302.116C300.495 123 299.3 122.659 298.532 121.976C297.849 121.208 297.508 120.013 297.508 118.392V55.544H278.692C277.071 55.544 275.876 55.2027 275.108 54.52C274.425 53.752 274.084 52.5573 274.084 50.936V35.448C274.084 33.8267 274.425 32.6747 275.108 31.992C275.876 31.224 277.071 30.84 278.692 30.84H346.276C347.897 30.84 349.049 31.224 349.732 31.992C350.5 32.6747 350.884 33.8267 350.884 35.448V50.936C350.884 52.5573 350.5 53.752 349.732 54.52C349.049 55.2027 347.897 55.544 346.276 55.544H327.46V118.392C327.46 120.013 327.076 121.208 326.308 121.976C325.625 122.659 324.473 123 322.852 123ZM391.615 57.72L385.599 77.176H405.695L399.679 57.72C399.338 56.952 398.954 56.3973 398.527 56.056C398.186 55.7147 397.759 55.544 397.247 55.544H394.047C393.535 55.544 393.066 55.7147 392.639 56.056C392.298 56.3973 391.956 56.952 391.615 57.72ZM384.319 118.392C384.319 120.013 383.935 121.208 383.167 121.976C382.484 122.659 381.332 123 379.711 123H360.895C359.274 123 358.079 122.659 357.311 121.976C356.628 121.208 356.287 120.013 356.287 118.392V84.6C356.287 82.04 356.671 79.096 357.439 75.768C358.292 72.44 359.572 68.5573 361.279 64.12L372.415 35.064C372.927 33.6133 373.695 32.5467 374.719 31.864C375.828 31.1813 377.236 30.84 378.943 30.84H413.375C414.996 30.84 416.319 31.1813 417.343 31.864C418.452 32.5467 419.263 33.6133 419.775 35.064L430.911 64.12C432.618 68.5573 433.855 72.44 434.623 75.768C435.476 79.096 435.903 82.04 435.903 84.6V118.392C435.903 120.013 435.519 121.208 434.751 121.976C434.068 122.659 432.916 123 431.295 123H411.967C410.26 123 408.98 122.659 408.127 121.976C407.359 121.208 406.975 120.013 406.975 118.392V100.472H384.319V118.392ZM513.019 123H481.787C471.12 123 463.184 120.867 457.979 116.6C452.859 112.333 450.299 105.763 450.299 96.888V57.08C450.299 48.2053 452.859 41.6347 457.979 37.368C463.184 33.016 471.12 30.84 481.787 30.84H513.019C514.64 30.84 515.792 31.224 516.475 31.992C517.243 32.6747 517.627 33.8267 517.627 35.448V50.936C517.627 52.5573 517.243 53.752 516.475 54.52C515.792 55.2027 514.64 55.544 513.019 55.544H487.291C484.646 55.544 482.683 56.0987 481.403 57.208C480.123 58.232 479.483 59.8107 479.483 61.944V92.408C479.483 94.5413 480.123 96.12 481.403 97.144C482.683 98.0827 484.646 98.552 487.291 98.552H513.019C514.64 98.552 515.792 98.936 516.475 99.704C517.243 100.387 517.627 101.539 517.627 103.16V118.392C517.627 120.013 517.243 121.208 516.475 121.976C515.792 122.659 514.64 123 513.019 123ZM575.602 123H554.866C553.245 123 552.05 122.659 551.282 121.976C550.599 121.208 550.258 120.013 550.258 118.392V55.544H531.442C529.821 55.544 528.626 55.2027 527.858 54.52C527.175 53.752 526.834 52.5573 526.834 50.936V35.448C526.834 33.8267 527.175 32.6747 527.858 31.992C528.626 31.224 529.821 30.84 531.442 30.84H599.026C600.647 30.84 601.799 31.224 602.482 31.992C603.25 32.6747 603.634 33.8267 603.634 35.448V50.936C603.634 52.5573 603.25 53.752 602.482 54.52C601.799 55.2027 600.647 55.544 599.026 55.544H580.21V118.392C580.21 120.013 579.826 121.208 579.058 121.976C578.375 122.659 577.223 123 575.602 123Z" fill="white"/>
<path d="M15.104 116.6L11.2629 121.209L11.2816 121.225L11.3004 121.24L15.104 116.6ZM15.104 37.368L18.9451 41.9773L18.9525 41.9711L15.104 37.368ZM73.6 31.992L69.1156 35.9782L69.35 36.242L69.6138 36.4764L73.6 31.992ZM38.528 57.208L42.2762 61.8932L42.3684 61.8195L42.4576 61.7421L38.528 57.208ZM38.528 97.144L34.7798 101.829L34.8782 101.908L34.9798 101.982L38.528 97.144ZM73.6 99.704L69.1156 103.69L69.35 103.954L69.6138 104.188L73.6 99.704ZM73.6 121.976L77.8426 126.219L77.8426 126.219L73.6 121.976ZM70.144 117H38.912V129H70.144V117ZM38.912 117C28.87 117 22.5704 114.962 18.9076 111.96L11.3004 121.24C18.0482 126.771 27.6207 129 38.912 129V117ZM18.9451 111.991C15.6121 109.213 13.424 104.611 13.424 96.888H1.424C1.424 106.915 4.35593 115.454 11.2629 121.209L18.9451 111.991ZM13.424 96.888V57.08H1.424V96.888H13.424ZM13.424 57.08C13.424 49.3572 15.6121 44.7549 18.9451 41.9773L11.2629 32.7587C4.35593 38.5145 1.424 47.0535 1.424 57.08H13.424ZM18.9525 41.9711C22.6114 38.9121 28.8914 36.84 38.912 36.84V24.84C27.5993 24.84 18.0073 27.1199 11.2555 32.7649L18.9525 41.9711ZM38.912 36.84H70.144V24.84H38.912V36.84ZM70.144 36.84C70.512 36.84 70.5286 36.8874 70.3266 36.8201C70.088 36.7405 69.5897 36.5116 69.1156 35.9782L78.0845 28.0058C75.7449 25.3738 72.5026 24.84 70.144 24.84V36.84ZM69.6138 36.4764C69.0804 36.0023 68.8515 35.504 68.7719 35.2654C68.7046 35.0634 68.752 35.08 68.752 35.448H80.752C80.752 33.0894 80.2182 29.8471 77.5862 27.5075L69.6138 36.4764ZM68.752 35.448V50.936H80.752V35.448H68.752ZM68.752 50.936C68.752 51.2954 68.7068 51.3521 68.7518 51.2119C68.8061 51.0432 68.9696 50.6652 69.3574 50.2774L77.8426 58.7626C80.1862 56.419 80.752 53.3722 80.752 50.936H68.752ZM69.3574 50.2774C69.8756 49.7591 70.3676 49.5802 70.5195 49.5352C70.6515 49.4961 70.5648 49.544 70.144 49.544V61.544C72.3378 61.544 75.4761 61.1292 77.8426 58.7626L69.3574 50.2774ZM70.144 49.544H44.416V61.544H70.144V49.544ZM44.416 49.544C41.0994 49.544 37.4378 50.2131 34.5984 52.6739L42.4576 61.7421C42.31 61.87 42.2878 61.8198 42.5917 61.7339C42.9119 61.6434 43.491 61.544 44.416 61.544V49.544ZM34.7798 52.5228C31.6696 55.011 30.608 58.5821 30.608 61.944H42.608C42.608 61.462 42.6819 61.3317 42.6484 61.4142C42.6301 61.4596 42.5895 61.5427 42.5163 61.6419C42.4424 61.7421 42.3579 61.8278 42.2762 61.8932L34.7798 52.5228ZM30.608 61.944V92.408H42.608V61.944H30.608ZM30.608 92.408C30.608 95.7699 31.6696 99.341 34.7798 101.829L42.2762 92.4588C42.3579 92.5242 42.4424 92.6099 42.5163 92.7101C42.5895 92.8093 42.6301 92.8924 42.6484 92.9378C42.6819 93.0203 42.608 92.89 42.608 92.408H30.608ZM34.9798 101.982C37.7735 104.031 41.2667 104.552 44.416 104.552V92.552C43.427 92.552 42.7638 92.4622 42.3554 92.3645C41.9483 92.2672 41.9231 92.1933 42.0762 92.3056L34.9798 101.982ZM44.416 104.552H70.144V92.552H44.416V104.552ZM70.144 104.552C70.512 104.552 70.5286 104.599 70.3266 104.532C70.088 104.453 69.5897 104.224 69.1156 103.69L78.0845 95.7178C75.7449 93.0858 72.5026 92.552 70.144 92.552V104.552ZM69.6138 104.188C69.0804 103.714 68.8515 103.216 68.7719 102.977C68.7046 102.775 68.752 102.792 68.752 103.16H80.752C80.752 100.801 80.2182 97.5591 77.5862 95.2195L69.6138 104.188ZM68.752 103.16V118.392H80.752V103.16H68.752ZM68.752 118.392C68.752 118.751 68.7068 118.808 68.7518 118.668C68.8061 118.499 68.9696 118.121 69.3574 117.733L77.8426 126.219C80.1862 123.875 80.752 120.828 80.752 118.392H68.752ZM69.3574 117.733C69.8756 117.215 70.3676 117.036 70.5195 116.991C70.6515 116.952 70.5648 117 70.144 117V129C72.3378 129 75.4761 128.585 77.8426 126.219L69.3574 117.733ZM164.87 109.56L159.24 107.486L159.224 107.528L159.209 107.571L164.87 109.56ZM158.726 117.752L162.371 122.518L162.381 122.51L162.391 122.503L158.726 117.752ZM146.566 123L145.133 117.174L145.122 117.176L145.111 117.179L146.566 123ZM107.27 123L105.837 128.826L105.837 128.826L107.27 123ZM94.982 117.752L91.2507 122.451L91.3264 122.511L91.4041 122.568L94.982 117.752ZM88.838 109.56L83.161 111.502L83.1922 111.593L83.2263 111.683L88.838 109.56ZM88.838 44.536L83.2079 42.4618L83.1923 42.5043L83.1772 42.5471L88.838 44.536ZM94.982 36.216L91.3172 31.4653L91.2838 31.4911L91.2507 31.5173L94.982 36.216ZM107.27 30.84L105.837 25.0136L105.837 25.0136L107.27 30.84ZM146.566 30.84L145.111 36.6609L145.122 36.6637L145.133 36.6664L146.566 30.84ZM158.726 36.216L154.995 40.9147L155.028 40.9409L155.061 40.9667L158.726 36.216ZM164.87 44.536L159.193 46.4781L159.224 46.5693L159.258 46.6593L164.87 44.536ZM118.15 98.552L114.056 102.938L114.137 103.014L114.22 103.086L118.15 98.552ZM135.814 98.552L139.744 103.086L139.827 103.014L139.908 102.938L135.814 98.552ZM135.814 55.672L131.72 60.0583L131.801 60.1337L131.884 60.2061L135.814 55.672ZM118.15 55.672L122.08 60.2061L122.163 60.1337L122.244 60.0583L118.15 55.672ZM160.662 98.808C160.662 102.121 160.159 104.991 159.24 107.486L170.5 111.634C171.97 107.644 172.662 103.346 172.662 98.808H160.662ZM159.209 107.571C158.532 109.499 157.25 111.313 155.061 113.001L162.391 122.503C166.175 119.583 168.99 115.936 170.531 111.549L159.209 107.571ZM155.081 112.986C153.069 114.525 149.88 116.006 145.133 117.174L147.999 128.826C153.663 127.434 158.581 125.417 162.371 122.518L155.081 112.986ZM145.111 117.179C140.641 118.297 134.647 118.92 126.982 118.92V130.92C135.189 130.92 142.251 130.263 148.021 128.821L145.111 117.179ZM126.982 118.92C119.321 118.92 113.273 118.298 108.703 117.174L105.837 128.826C111.677 130.262 118.771 130.92 126.982 130.92V118.92ZM108.703 117.174C103.958 116.007 100.689 114.517 98.5599 112.936L91.4041 122.568C95.2483 125.424 100.171 127.433 105.837 128.826L108.703 117.174ZM98.7133 113.053C96.5744 111.355 95.2246 109.485 94.4497 107.437L83.2263 111.683C84.8407 115.95 87.5869 119.541 91.2507 122.451L98.7133 113.053ZM94.515 107.618C93.6481 105.084 93.174 102.167 93.174 98.808H81.174C81.174 103.3 81.8092 107.551 83.161 111.502L94.515 107.618ZM93.174 98.808V55.16H81.174V98.808H93.174ZM93.174 55.16C93.174 51.7975 93.649 48.9434 94.4988 46.5249L83.1772 42.5471C81.8083 46.4433 81.174 50.6718 81.174 55.16H93.174ZM94.4681 46.6102C95.2549 44.4746 96.609 42.5858 98.7133 40.9147L91.2507 31.5173C87.5524 34.4542 84.8105 38.112 83.2079 42.4618L94.4681 46.6102ZM98.6468 40.9667C100.756 39.3399 103.992 37.8249 108.703 36.6664L105.837 25.0136C100.138 26.4151 95.1817 28.4841 91.3172 31.4653L98.6468 40.9667ZM108.703 36.6664C113.273 35.5425 119.321 34.92 126.982 34.92V22.92C118.771 22.92 111.677 23.5775 105.837 25.0136L108.703 36.6664ZM126.982 34.92C134.647 34.92 140.641 35.5434 145.111 36.6609L148.021 25.0191C142.251 23.5766 135.189 22.92 126.982 22.92V34.92ZM145.133 36.6664C149.846 37.8253 153.002 39.332 154.995 40.9147L162.457 31.5173C158.648 28.492 153.697 26.4147 147.999 25.0136L145.133 36.6664ZM155.061 40.9667C157.214 42.6273 158.503 44.4598 159.193 46.4781L170.547 42.5939C169.019 38.1269 166.212 34.4127 162.391 31.4653L155.061 40.9667ZM159.258 46.6593C160.158 49.0374 160.662 51.844 160.662 55.16H172.662C172.662 50.6254 171.971 46.3492 170.482 42.4126L159.258 46.6593ZM160.662 55.16V98.808H172.662V55.16H160.662ZM110.23 94.2C110.23 97.6179 111.596 100.642 114.056 102.938L122.244 94.1657C122.185 94.1108 122.165 94.082 122.166 94.0836C122.166 94.084 122.17 94.0901 122.177 94.1017C122.184 94.1133 122.192 94.1283 122.2 94.1462C122.207 94.164 122.214 94.1821 122.22 94.1994C122.225 94.2167 122.229 94.2307 122.23 94.24C122.232 94.2493 122.232 94.2518 122.232 94.2463C122.231 94.2408 122.23 94.2257 122.23 94.2H110.23ZM114.22 103.086C116.066 104.686 118.385 105.353 120.207 105.696C122.185 106.069 124.481 106.216 126.982 106.216V94.216C124.875 94.216 123.395 94.0857 122.429 93.9037C121.954 93.8143 121.706 93.731 121.621 93.6975C121.524 93.6592 121.745 93.7278 122.08 94.0179L114.22 103.086ZM126.982 106.216C129.483 106.216 131.779 106.069 133.757 105.696C135.579 105.353 137.898 104.686 139.744 103.086L131.884 94.0179C132.219 93.7278 132.44 93.6592 132.343 93.6975C132.258 93.731 132.01 93.8143 131.535 93.9037C130.569 94.0857 129.089 94.216 126.982 94.216V106.216ZM139.908 102.938C142.368 100.642 143.734 97.6179 143.734 94.2H131.734C131.734 94.2257 131.733 94.2408 131.732 94.2463C131.732 94.2518 131.732 94.2493 131.734 94.24C131.735 94.2307 131.739 94.2167 131.744 94.1994C131.75 94.1821 131.757 94.164 131.764 94.1462C131.772 94.1283 131.78 94.1133 131.787 94.1017C131.794 94.0901 131.798 94.084 131.798 94.0836C131.799 94.082 131.779 94.1108 131.72 94.1657L139.908 102.938ZM143.734 94.2V59.768H131.734V94.2H143.734ZM143.734 59.768C143.734 56.3197 142.271 53.3287 139.744 51.1379L131.884 60.2061C131.931 60.2462 131.934 60.2561 131.913 60.23C131.892 60.2024 131.857 60.15 131.821 60.0746C131.786 59.9987 131.761 59.923 131.747 59.8572C131.733 59.7928 131.734 59.7594 131.734 59.768H143.734ZM139.908 51.2857C138.066 49.5662 135.713 48.828 133.839 48.4478C131.825 48.0392 129.499 47.88 126.982 47.88V59.88C129.073 59.88 130.523 60.0195 131.453 60.2082C132.523 60.4253 132.282 60.5831 131.72 60.0583L139.908 51.2857ZM126.982 47.88C124.465 47.88 122.139 48.0392 120.125 48.4478C118.251 48.828 115.898 49.5662 114.056 51.2857L122.244 60.0583C121.682 60.5831 121.441 60.4253 122.511 60.2082C123.441 60.0195 124.891 59.88 126.982 59.88V47.88ZM114.22 51.1379C111.693 53.3287 110.23 56.3197 110.23 59.768H122.23C122.23 59.7594 122.231 59.7928 122.217 59.8572C122.203 59.923 122.178 59.9987 122.143 60.0746C122.107 60.15 122.072 60.2024 122.051 60.23C122.03 60.2561 122.033 60.2462 122.08 60.2061L114.22 51.1379ZM110.23 59.768V94.2H122.23V59.768H110.23ZM183.981 121.976L179.497 125.962L179.731 126.226L179.995 126.46L183.981 121.976ZM183.981 31.992L179.738 27.7494L179.738 27.7494L183.981 31.992ZM204.973 31.608L202.459 37.0558L202.534 37.0903L202.609 37.1229L204.973 31.608ZM208.429 34.296L203.895 38.2256L203.903 38.2349L203.911 38.2441L208.429 34.296ZM233.261 62.712L228.743 66.6601L239.261 78.6962V62.712H233.261ZM234.285 31.992L238.528 36.2346L234.285 31.992ZM260.525 31.992L256.041 35.9782L256.275 36.242L256.539 36.4764L260.525 31.992ZM260.525 121.976L256.282 117.733L256.282 117.733L260.525 121.976ZM234.285 121.976L229.801 125.962L230.035 126.226L230.299 126.46L234.285 121.976ZM233.261 102.648H239.261V100.49L237.887 98.8267L233.261 102.648ZM211.373 76.152L215.999 72.3307L205.373 59.4679V76.152H211.373ZM210.221 121.976L205.978 117.733L205.978 117.733L210.221 121.976ZM206.765 117H187.565V129H206.765V117ZM187.565 117C187.152 117 187.028 116.954 187.101 116.975C187.191 117.001 187.552 117.123 187.967 117.492L179.995 126.46C182.344 128.548 185.282 129 187.565 129V117ZM188.465 117.99C188.834 118.405 188.956 118.766 188.982 118.856C189.003 118.929 188.957 118.805 188.957 118.392H176.957C176.957 120.675 177.409 123.613 179.497 125.962L188.465 117.99ZM188.957 118.392V35.448H176.957V118.392H188.957ZM188.957 35.448C188.957 35.0272 189.005 34.9405 188.966 35.0725C188.921 35.2244 188.742 35.7164 188.224 36.2346L179.738 27.7494C177.372 30.1159 176.957 33.2542 176.957 35.448H188.957ZM188.224 36.2346C187.836 36.6225 187.458 36.7859 187.289 36.8402C187.149 36.8852 187.206 36.84 187.565 36.84V24.84C185.129 24.84 182.082 25.4058 179.738 27.7494L188.224 36.2346ZM187.565 36.84H200.877V24.84H187.565V36.84ZM200.877 36.84C201.901 36.84 202.351 37.006 202.459 37.0558L207.487 26.1602C205.376 25.186 203.096 24.84 200.877 24.84V36.84ZM202.609 37.1229C202.757 37.186 203.207 37.4314 203.895 38.2256L212.963 30.3664C211.433 28.6006 209.578 27.054 207.337 26.0931L202.609 37.1229ZM203.911 38.2441L228.743 66.6601L237.779 58.7639L212.947 30.3479L203.911 38.2441ZM239.261 62.712V35.448H227.261V62.712H239.261ZM239.261 35.448C239.261 35.0272 239.309 34.9405 239.27 35.0725C239.225 35.2244 239.046 35.7164 238.528 36.2346L230.042 27.7494C227.676 30.1159 227.261 33.2542 227.261 35.448H239.261ZM238.528 36.2346C238.14 36.6225 237.762 36.7859 237.593 36.8402C237.453 36.8852 237.51 36.84 237.869 36.84V24.84C235.433 24.84 232.386 25.4058 230.042 27.7494L238.528 36.2346ZM237.869 36.84H257.069V24.84H237.869V36.84ZM257.069 36.84C257.437 36.84 257.454 36.8874 257.252 36.8201C257.013 36.7405 256.515 36.5116 256.041 35.9782L265.009 28.0058C262.67 25.3738 259.428 24.84 257.069 24.84V36.84ZM256.539 36.4764C256.005 36.0023 255.776 35.504 255.697 35.2654C255.63 35.0634 255.677 35.08 255.677 35.448H267.677C267.677 33.0894 267.143 29.8471 264.511 27.5075L256.539 36.4764ZM255.677 35.448V118.392H267.677V35.448H255.677ZM255.677 118.392C255.677 118.751 255.632 118.808 255.677 118.668C255.731 118.499 255.895 118.121 256.282 117.733L264.768 126.219C267.111 123.875 267.677 120.828 267.677 118.392H255.677ZM256.282 117.733C256.801 117.215 257.293 117.036 257.444 116.991C257.577 116.952 257.49 117 257.069 117V129C259.263 129 262.401 128.585 264.768 126.219L256.282 117.733ZM257.069 117H237.869V129H257.069V117ZM237.869 117C237.456 117 237.332 116.954 237.405 116.975C237.495 117.001 237.856 117.123 238.271 117.492L230.299 126.46C232.648 128.548 235.586 129 237.869 129V117ZM238.769 117.99C239.138 118.405 239.26 118.766 239.286 118.856C239.307 118.929 239.261 118.805 239.261 118.392H227.261C227.261 120.675 227.713 123.613 229.801 125.962L238.769 117.99ZM239.261 118.392V102.648H227.261V118.392H239.261ZM237.887 98.8267L215.999 72.3307L206.747 79.9733L228.635 106.469L237.887 98.8267ZM205.373 76.152V118.392H217.373V76.152H205.373ZM205.373 118.392C205.373 118.751 205.328 118.808 205.373 118.668C205.427 118.499 205.591 118.121 205.978 117.733L214.464 126.219C216.807 123.875 217.373 120.828 217.373 118.392H205.373ZM205.978 117.733C206.497 117.215 206.989 117.036 207.14 116.991C207.273 116.952 207.186 117 206.765 117V129C208.959 129 212.097 128.585 214.464 126.219L205.978 117.733ZM298.532 121.976L294.048 125.962L294.282 126.226L294.546 126.46L298.532 121.976ZM297.508 55.544H303.508V49.544H297.508V55.544ZM275.108 54.52L270.624 58.5062L270.858 58.77L271.122 59.0044L275.108 54.52ZM275.108 31.992L270.865 27.7494L270.865 27.7494L275.108 31.992ZM349.732 31.992L345.248 35.9782L345.482 36.242L345.746 36.4764L349.732 31.992ZM327.46 55.544V49.544H321.46V55.544H327.46ZM326.308 121.976L322.065 117.733L322.065 117.733L326.308 121.976ZM322.852 117H302.116V129H322.852V117ZM302.116 117C301.703 117 301.579 116.954 301.652 116.975C301.742 117.001 302.103 117.123 302.518 117.492L294.546 126.46C296.895 128.548 299.833 129 302.116 129V117ZM303.016 117.99C303.385 118.405 303.507 118.766 303.533 118.856C303.554 118.929 303.508 118.805 303.508 118.392H291.508C291.508 120.675 291.96 123.613 294.048 125.962L303.016 117.99ZM303.508 118.392V55.544H291.508V118.392H303.508ZM297.508 49.544H278.692V61.544H297.508V49.544ZM278.692 49.544C278.279 49.544 278.155 49.498 278.228 49.5189C278.318 49.5446 278.679 49.6666 279.094 50.0355L271.122 59.0044C273.471 61.0922 276.409 61.544 278.692 61.544V49.544ZM279.592 50.5338C279.961 50.9489 280.083 51.3095 280.109 51.3997C280.13 51.4728 280.084 51.3487 280.084 50.936H268.084C268.084 53.2187 268.536 56.1574 270.624 58.5062L279.592 50.5338ZM280.084 50.936V35.448H268.084V50.936H280.084ZM280.084 35.448C280.084 35.0272 280.132 34.9405 280.093 35.0725C280.048 35.2244 279.869 35.7164 279.351 36.2346L270.865 27.7494C268.499 30.1159 268.084 33.2542 268.084 35.448H280.084ZM279.351 36.2346C278.963 36.6225 278.585 36.7859 278.416 36.8402C278.276 36.8852 278.333 36.84 278.692 36.84V24.84C276.256 24.84 273.209 25.4058 270.865 27.7494L279.351 36.2346ZM278.692 36.84H346.276V24.84H278.692V36.84ZM346.276 36.84C346.644 36.84 346.661 36.8874 346.459 36.8201C346.22 36.7405 345.722 36.5116 345.248 35.9782L354.216 28.0058C351.877 25.3738 348.635 24.84 346.276 24.84V36.84ZM345.746 36.4764C345.212 36.0023 344.983 35.504 344.904 35.2654C344.837 35.0634 344.884 35.08 344.884 35.448H356.884C356.884 33.0894 356.35 29.8471 353.718 27.5075L345.746 36.4764ZM344.884 35.448V50.936H356.884V35.448H344.884ZM344.884 50.936C344.884 51.2954 344.839 51.3521 344.884 51.2119C344.938 51.0432 345.102 50.6652 345.489 50.2774L353.975 58.7626C356.318 56.419 356.884 53.3722 356.884 50.936H344.884ZM345.489 50.2774C346.008 49.7591 346.5 49.5802 346.651 49.5352C346.784 49.4961 346.697 49.544 346.276 49.544V61.544C348.47 61.544 351.608 61.1292 353.975 58.7626L345.489 50.2774ZM346.276 49.544H327.46V61.544H346.276V49.544ZM321.46 55.544V118.392H333.46V55.544H321.46ZM321.46 118.392C321.46 118.751 321.415 118.808 321.46 118.668C321.514 118.499 321.678 118.121 322.065 117.733L330.551 126.219C332.894 123.875 333.46 120.828 333.46 118.392H321.46ZM322.065 117.733C322.584 117.215 323.076 117.036 323.227 116.991C323.36 116.952 323.273 117 322.852 117V129C325.046 129 328.184 128.585 330.551 126.219L322.065 117.733ZM391.615 57.72L386.132 55.2832L385.988 55.608L385.883 55.9475L391.615 57.72ZM385.599 77.176L379.867 75.4035L377.463 83.176H385.599V77.176ZM405.695 77.176V83.176H413.831L411.427 75.4035L405.695 77.176ZM399.679 57.72L405.411 55.9475L405.306 55.608L405.162 55.2832L399.679 57.72ZM398.527 56.056L394.284 60.2986L394.519 60.5336L394.779 60.7412L398.527 56.056ZM392.639 56.056L388.891 51.3708L388.631 51.5784L388.396 51.8133L392.639 56.056ZM383.167 121.976L378.924 117.733L378.924 117.733L383.167 121.976ZM357.311 121.976L352.827 125.962L353.061 126.226L353.325 126.46L357.311 121.976ZM357.439 75.768L351.627 74.2777L351.609 74.3481L351.593 74.4188L357.439 75.768ZM361.279 64.12L366.879 66.2739L366.882 66.2673L361.279 64.12ZM372.415 35.064L378.018 37.2113L378.046 37.1365L378.073 37.0609L372.415 35.064ZM374.719 31.864L371.574 26.7541L371.482 26.8112L371.391 26.8717L374.719 31.864ZM417.343 31.864L414.015 36.8563L414.106 36.9168L414.198 36.974L417.343 31.864ZM419.775 35.064L414.117 37.0609L414.144 37.1365L414.172 37.2113L419.775 35.064ZM430.911 64.12L425.308 66.2673L425.311 66.2739L430.911 64.12ZM434.623 75.768L428.777 77.1172L428.793 77.1879L428.811 77.2583L434.623 75.768ZM434.751 121.976L438.994 126.219L438.994 126.219L434.751 121.976ZM408.127 121.976L403.884 126.219L404.119 126.454L404.379 126.661L408.127 121.976ZM406.975 100.472H412.975V94.472H406.975V100.472ZM384.319 100.472V94.472H378.319V100.472H384.319ZM385.883 55.9475L379.867 75.4035L391.331 78.9485L397.347 59.4925L385.883 55.9475ZM385.599 83.176H405.695V71.176H385.599V83.176ZM411.427 75.4035L405.411 55.9475L393.947 59.4925L399.963 78.9485L411.427 75.4035ZM405.162 55.2832C404.621 54.0668 403.748 52.5491 402.275 51.3708L394.779 60.7412C394.446 60.4748 394.267 60.237 394.202 60.1433C394.136 60.0481 394.142 60.0358 394.196 60.1568L405.162 55.2832ZM402.77 51.8134C401.23 50.2733 399.243 49.544 397.247 49.544V61.544C396.827 61.544 396.295 61.4716 395.723 61.2429C395.144 61.0113 394.659 60.673 394.284 60.2986L402.77 51.8134ZM397.247 49.544H394.047V61.544H397.247V49.544ZM394.047 49.544C392.077 49.544 390.305 50.2397 388.891 51.3708L396.387 60.7412C396.138 60.9404 395.796 61.1528 395.361 61.3108C394.922 61.4705 394.472 61.544 394.047 61.544V49.544ZM388.396 51.8133C387.285 52.9249 386.584 54.2653 386.132 55.2832L397.098 60.1568C397.142 60.058 397.177 59.9855 397.203 59.9359C397.229 59.8858 397.241 59.8667 397.237 59.8726C397.234 59.8778 397.208 59.9199 397.156 59.9883C397.104 60.0558 397.015 60.1658 396.882 60.2987L388.396 51.8133ZM378.319 118.392C378.319 118.751 378.274 118.808 378.319 118.668C378.373 118.499 378.537 118.121 378.924 117.733L387.41 126.219C389.753 123.875 390.319 120.828 390.319 118.392H378.319ZM378.924 117.733C379.443 117.215 379.935 117.036 380.086 116.991C380.219 116.952 380.132 117 379.711 117V129C381.905 129 385.043 128.585 387.41 126.219L378.924 117.733ZM379.711 117H360.895V129H379.711V117ZM360.895 117C360.482 117 360.358 116.954 360.431 116.975C360.521 117.001 360.882 117.123 361.297 117.492L353.325 126.46C355.674 128.548 358.612 129 360.895 129V117ZM361.795 117.99C362.164 118.405 362.286 118.766 362.312 118.856C362.333 118.929 362.287 118.805 362.287 118.392H350.287C350.287 120.675 350.739 123.613 352.827 125.962L361.795 117.99ZM362.287 118.392V84.6H350.287V118.392H362.287ZM362.287 84.6C362.287 82.6159 362.588 80.1398 363.285 77.1172L351.593 74.4188C350.754 78.0522 350.287 81.464 350.287 84.6H362.287ZM363.251 77.2583C364.029 74.2222 365.227 70.5699 366.879 66.2739L355.679 61.9661C353.918 66.5447 352.555 70.6578 351.627 74.2777L363.251 77.2583ZM366.882 66.2673L378.018 37.2113L366.812 32.9167L355.676 61.9727L366.882 66.2673ZM378.073 37.0609C378.171 36.7844 378.245 36.6813 378.244 36.6818C378.243 36.6829 378.227 36.706 378.19 36.7414C378.153 36.7774 378.105 36.8176 378.047 36.8563L371.391 26.8717C369.041 28.438 367.591 30.7029 366.757 33.0671L378.073 37.0609ZM377.864 36.9739C377.776 37.0276 378.01 36.84 378.943 36.84V24.84C376.463 24.84 373.88 25.335 371.574 26.7541L377.864 36.9739ZM378.943 36.84H413.375V24.84H378.943V36.84ZM413.375 36.84C414.182 36.84 414.245 37.0097 414.015 36.8563L420.671 26.8717C418.393 25.353 415.811 24.84 413.375 24.84V36.84ZM414.198 36.974C414.158 36.9488 414.116 36.9177 414.078 36.8832C414.04 36.8489 414.017 36.8207 414.006 36.8065C413.984 36.7771 414.038 36.8372 414.117 37.0609L425.433 33.0671C424.55 30.5663 422.969 28.2813 420.488 26.754L414.198 36.974ZM414.172 37.2113L425.308 66.2673L436.514 61.9727L425.378 32.9167L414.172 37.2113ZM425.311 66.2739C426.953 70.5424 428.091 74.1455 428.777 77.1172L440.469 74.4188C439.619 70.7345 438.283 66.5723 436.511 61.9661L425.311 66.2739ZM428.811 77.2583C429.579 80.2537 429.903 82.6804 429.903 84.6H441.903C441.903 81.3996 441.374 77.9382 440.435 74.2777L428.811 77.2583ZM429.903 84.6V118.392H441.903V84.6H429.903ZM429.903 118.392C429.903 118.751 429.858 118.808 429.903 118.668C429.957 118.499 430.121 118.121 430.508 117.733L438.994 126.219C441.337 123.875 441.903 120.828 441.903 118.392H429.903ZM430.508 117.733C431.027 117.215 431.519 117.036 431.67 116.991C431.803 116.952 431.716 117 431.295 117V129C433.489 129 436.627 128.585 438.994 126.219L430.508 117.733ZM431.295 117H411.967V129H431.295V117ZM411.967 117C411.738 117 411.568 116.988 411.448 116.975C411.389 116.968 411.346 116.961 411.316 116.956C411.287 116.95 411.273 116.947 411.273 116.947C411.273 116.947 411.289 116.951 411.317 116.961C411.346 116.972 411.389 116.989 411.443 117.015C411.553 117.068 411.705 117.155 411.875 117.291L404.379 126.661C406.748 128.557 409.619 129 411.967 129V117ZM412.37 117.733C412.757 118.121 412.921 118.499 412.975 118.668C413.02 118.808 412.975 118.751 412.975 118.392H400.975C400.975 120.828 401.541 123.875 403.884 126.219L412.37 117.733ZM412.975 118.392V100.472H400.975V118.392H412.975ZM406.975 94.472H384.319V106.472H406.975V94.472ZM378.319 100.472V118.392H390.319V100.472H378.319ZM457.979 116.6L454.138 121.209L454.157 121.225L454.175 121.24L457.979 116.6ZM457.979 37.368L461.82 41.9773L461.828 41.9711L457.979 37.368ZM516.475 31.992L511.991 35.9782L512.225 36.242L512.489 36.4764L516.475 31.992ZM481.403 57.208L485.151 61.8932L485.243 61.8195L485.333 61.7421L481.403 57.208ZM481.403 97.144L477.655 101.829L477.753 101.908L477.855 101.982L481.403 97.144ZM516.475 99.704L511.991 103.69L512.225 103.954L512.489 104.188L516.475 99.704ZM516.475 121.976L520.718 126.219L520.718 126.219L516.475 121.976ZM513.019 117H481.787V129H513.019V117ZM481.787 117C471.745 117 465.445 114.962 461.783 111.96L454.175 121.24C460.923 126.771 470.496 129 481.787 129V117ZM461.82 111.991C458.487 109.213 456.299 104.611 456.299 96.888H444.299C444.299 106.915 447.231 115.454 454.138 121.209L461.82 111.991ZM456.299 96.888V57.08H444.299V96.888H456.299ZM456.299 57.08C456.299 49.3572 458.487 44.7549 461.82 41.9773L454.138 32.7587C447.231 38.5145 444.299 47.0535 444.299 57.08H456.299ZM461.828 41.9711C465.486 38.9121 471.766 36.84 481.787 36.84V24.84C470.474 24.84 460.882 27.1199 454.13 32.7649L461.828 41.9711ZM481.787 36.84H513.019V24.84H481.787V36.84ZM513.019 36.84C513.387 36.84 513.404 36.8874 513.202 36.8201C512.963 36.7405 512.465 36.5116 511.991 35.9782L520.959 28.0058C518.62 25.3738 515.378 24.84 513.019 24.84V36.84ZM512.489 36.4764C511.955 36.0023 511.726 35.504 511.647 35.2654C511.58 35.0634 511.627 35.08 511.627 35.448H523.627C523.627 33.0894 523.093 29.8471 520.461 27.5075L512.489 36.4764ZM511.627 35.448V50.936H523.627V35.448H511.627ZM511.627 50.936C511.627 51.2954 511.582 51.3521 511.627 51.2119C511.681 51.0432 511.845 50.6652 512.232 50.2774L520.718 58.7626C523.061 56.419 523.627 53.3722 523.627 50.936H511.627ZM512.232 50.2774C512.751 49.7591 513.243 49.5802 513.394 49.5352C513.527 49.4961 513.44 49.544 513.019 49.544V61.544C515.213 61.544 518.351 61.1292 520.718 58.7626L512.232 50.2774ZM513.019 49.544H487.291V61.544H513.019V49.544ZM487.291 49.544C483.974 49.544 480.313 50.2131 477.473 52.6739L485.333 61.7421C485.185 61.87 485.163 61.8198 485.467 61.7339C485.787 61.6434 486.366 61.544 487.291 61.544V49.544ZM477.655 52.5228C474.545 55.011 473.483 58.5821 473.483 61.944H485.483C485.483 61.462 485.557 61.3317 485.523 61.4142C485.505 61.4596 485.465 61.5427 485.391 61.6419C485.317 61.7421 485.233 61.8278 485.151 61.8932L477.655 52.5228ZM473.483 61.944V92.408H485.483V61.944H473.483ZM473.483 92.408C473.483 95.7699 474.545 99.341 477.655 101.829L485.151 92.4588C485.233 92.5242 485.317 92.6099 485.391 92.7101C485.465 92.8093 485.505 92.8924 485.523 92.9378C485.557 93.0203 485.483 92.89 485.483 92.408H473.483ZM477.855 101.982C480.648 104.031 484.142 104.552 487.291 104.552V92.552C486.302 92.552 485.639 92.4622 485.23 92.3645C484.823 92.2672 484.798 92.1933 484.951 92.3056L477.855 101.982ZM487.291 104.552H513.019V92.552H487.291V104.552ZM513.019 104.552C513.387 104.552 513.404 104.599 513.202 104.532C512.963 104.453 512.465 104.224 511.991 103.69L520.959 95.7178C518.62 93.0858 515.378 92.552 513.019 92.552V104.552ZM512.489 104.188C511.955 103.714 511.726 103.216 511.647 102.977C511.58 102.775 511.627 102.792 511.627 103.16H523.627C523.627 100.801 523.093 97.5591 520.461 95.2195L512.489 104.188ZM511.627 103.16V118.392H523.627V103.16H511.627ZM511.627 118.392C511.627 118.751 511.582 118.808 511.627 118.668C511.681 118.499 511.845 118.121 512.232 117.733L520.718 126.219C523.061 123.875 523.627 120.828 523.627 118.392H511.627ZM512.232 117.733C512.751 117.215 513.243 117.036 513.394 116.991C513.527 116.952 513.44 117 513.019 117V129C515.213 129 518.351 128.585 520.718 126.219L512.232 117.733ZM551.282 121.976L546.798 125.962L547.032 126.226L547.296 126.46L551.282 121.976ZM550.258 55.544H556.258V49.544H550.258V55.544ZM527.858 54.52L523.374 58.5062L523.608 58.77L523.872 59.0044L527.858 54.52ZM527.858 31.992L523.615 27.7494L523.615 27.7494L527.858 31.992ZM602.482 31.992L597.998 35.9782L598.232 36.242L598.496 36.4764L602.482 31.992ZM580.21 55.544V49.544H574.21V55.544H580.21ZM579.058 121.976L574.815 117.733L574.815 117.733L579.058 121.976ZM575.602 117H554.866V129H575.602V117ZM554.866 117C554.453 117 554.329 116.954 554.402 116.975C554.492 117.001 554.853 117.123 555.268 117.492L547.296 126.46C549.645 128.548 552.583 129 554.866 129V117ZM555.766 117.99C556.135 118.405 556.257 118.766 556.283 118.856C556.304 118.929 556.258 118.805 556.258 118.392H544.258C544.258 120.675 544.71 123.613 546.798 125.962L555.766 117.99ZM556.258 118.392V55.544H544.258V118.392H556.258ZM550.258 49.544H531.442V61.544H550.258V49.544ZM531.442 49.544C531.029 49.544 530.905 49.498 530.978 49.5189C531.068 49.5446 531.429 49.6666 531.844 50.0355L523.872 59.0044C526.221 61.0922 529.159 61.544 531.442 61.544V49.544ZM532.342 50.5338C532.711 50.9489 532.833 51.3095 532.859 51.3997C532.88 51.4728 532.834 51.3487 532.834 50.936H520.834C520.834 53.2187 521.286 56.1574 523.374 58.5062L532.342 50.5338ZM532.834 50.936V35.448H520.834V50.936H532.834ZM532.834 35.448C532.834 35.0272 532.882 34.9405 532.843 35.0725C532.798 35.2244 532.619 35.7164 532.101 36.2346L523.615 27.7494C521.249 30.1159 520.834 33.2542 520.834 35.448H532.834ZM532.101 36.2346C531.713 36.6225 531.335 36.7859 531.166 36.8402C531.026 36.8852 531.083 36.84 531.442 36.84V24.84C529.006 24.84 525.959 25.4058 523.615 27.7494L532.101 36.2346ZM531.442 36.84H599.026V24.84H531.442V36.84ZM599.026 36.84C599.394 36.84 599.411 36.8874 599.209 36.8201C598.97 36.7405 598.472 36.5116 597.998 35.9782L606.966 28.0058C604.627 25.3738 601.385 24.84 599.026 24.84V36.84ZM598.496 36.4764C597.962 36.0023 597.733 35.504 597.654 35.2654C597.587 35.0634 597.634 35.08 597.634 35.448H609.634C609.634 33.0894 609.1 29.8471 606.468 27.5075L598.496 36.4764ZM597.634 35.448V50.936H609.634V35.448H597.634ZM597.634 50.936C597.634 51.2954 597.589 51.3521 597.634 51.2119C597.688 51.0432 597.852 50.6652 598.239 50.2774L606.725 58.7626C609.068 56.419 609.634 53.3722 609.634 50.936H597.634ZM598.239 50.2774C598.758 49.7591 599.25 49.5802 599.401 49.5352C599.534 49.4961 599.447 49.544 599.026 49.544V61.544C601.22 61.544 604.358 61.1292 606.725 58.7626L598.239 50.2774ZM599.026 49.544H580.21V61.544H599.026V49.544ZM574.21 55.544V118.392H586.21V55.544H574.21ZM574.21 118.392C574.21 118.751 574.165 118.808 574.21 118.668C574.264 118.499 574.428 118.121 574.815 117.733L583.301 126.219C585.644 123.875 586.21 120.828 586.21 118.392H574.21ZM574.815 117.733C575.334 117.215 575.826 117.036 575.977 116.991C576.11 116.952 576.023 117 575.602 117V129C577.796 129 580.934 128.585 583.301 126.219L574.815 117.733Z" fill="#6B59CD" mask="url(#path-1-outside-1_56_4942)"/>
</svg>
