<svg width="835" height="132" viewBox="0 0 835 132" fill="none" xmlns="http://www.w3.org/2000/svg">
<path d="M68.608 47.8V56.76H22.528V89.528H75.008V99H12.16V8.75999H73.728V18.232H22.528V47.8H68.608ZM126.788 57.912L100.164 99H87.492L118.724 51.384L88.644 8.75999H101.572L126.788 45.112L152.644 8.75999H165.572L134.852 51.384L166.852 99H154.052L126.788 57.912ZM218.726 65.976H194.278V99H183.91V8.75999H218.726C237.798 8.75999 251.622 20.792 251.622 37.432C251.494 53.944 237.798 65.976 218.726 65.976ZM217.318 18.232H194.278V56.376H217.318C230.886 56.376 240.87 48.44 240.87 37.432C240.998 26.296 231.014 18.232 217.318 18.232ZM326.733 47.8V56.76H280.653V89.528H333.133V99H270.285V8.75999H331.853V18.232H280.653V47.8H326.733ZM392.209 63.672H363.409V99H352.785V8.75999H392.593C411.665 8.75999 425.233 20.28 425.233 36.536C425.233 48.824 416.017 59.32 402.961 62.136L426.001 99H413.585L392.209 63.672ZM391.825 18.232H363.409V54.2H391.825C405.137 54.2 414.609 46.904 414.609 36.536C414.609 25.144 405.137 18.232 391.825 18.232ZM456.909 99H446.285V8.75999H456.909V99ZM537.733 47.8V56.76H491.653V89.528H544.133V99H481.285V8.75999H542.853V18.232H491.653V47.8H537.733ZM574.409 99H563.785V8.75999H578.249L624.457 85.944V8.75999H635.209V99H620.745L574.409 21.816V99ZM734.162 68.92L744.53 70.84C740.05 88.888 722.258 102.2 701.906 102.2C674.77 102.2 655.058 81.976 655.058 53.944C655.058 25.912 674.77 5.56 701.906 5.56C722.258 5.56 740.178 19.512 744.53 38.456L734.034 39.736C730.706 25.656 717.266 15.032 701.906 15.032C680.786 15.032 665.682 31.288 665.682 53.944C665.81 76.472 680.914 92.728 701.906 92.728C717.138 92.728 730.578 82.616 734.162 68.92ZM820.983 47.8V56.76H774.903V89.528H827.383V99H764.535V8.75999H826.103V18.232H774.903V47.8H820.983Z" fill="white"/>
</svg>
