<svg width="866" height="154" viewBox="0 0 866 154" fill="none" xmlns="http://www.w3.org/2000/svg">
<g clip-path="url(#clip0_56_4938)">
<mask id="path-1-outside-1_56_4938" maskUnits="userSpaceOnUse" x="2" y="24" width="864" height="105" fill="black">
<rect fill="white" x="2" y="24" width="864" height="105"/>
<path d="M72.832 123H13.44C11.8187 123 10.624 122.659 9.856 121.976C9.17333 121.208 8.832 120.013 8.832 118.392V35.448C8.832 33.8267 9.17333 32.6747 9.856 31.992C10.624 31.224 11.8187 30.84 13.44 30.84H72.832C74.4533 30.84 75.6053 31.224 76.288 31.992C77.056 32.6747 77.44 33.8267 77.44 35.448V50.424C77.44 52.0453 77.056 53.24 76.288 54.008C75.6053 54.6907 74.4533 55.032 72.832 55.032H37.504V64.888H62.464C64.0853 64.888 65.2373 65.272 65.92 66.04C66.688 66.7227 67.072 67.8747 67.072 69.496V83.192C67.072 84.8133 66.688 86.008 65.92 86.776C65.2373 87.4587 64.0853 87.8 62.464 87.8H37.504V98.808H72.832C74.4533 98.808 75.6053 99.192 76.288 99.96C77.056 100.643 77.44 101.795 77.44 103.416V118.392C77.44 120.013 77.056 121.208 76.288 121.976C75.6053 122.659 74.4533 123 72.832 123ZM120.102 118.392C120.102 120.013 119.718 121.208 118.95 121.976C118.267 122.659 117.115 123 115.494 123H96.038C94.4167 123 93.222 122.659 92.454 121.976C91.7713 121.208 91.43 120.013 91.43 118.392V104.696C91.43 100.771 91.7713 97.8267 92.454 95.864C93.1367 93.9013 94.4167 91.5973 96.294 88.952L106.662 75L96.294 61.048C94.3313 58.4027 93.0087 56.0987 92.326 54.136C91.7287 52.1733 91.43 49.2293 91.43 45.304V35.448C91.43 33.8267 91.7713 32.6747 92.454 31.992C93.222 31.224 94.4167 30.84 96.038 30.84H115.75C117.371 30.84 118.523 31.224 119.206 31.992C119.974 32.6747 120.358 33.8267 120.358 35.448V44.28C120.358 45.1333 120.401 46.0293 120.486 46.968C120.571 47.9067 120.913 48.8027 121.51 49.656L127.142 57.72C127.569 58.4027 127.995 58.9573 128.422 59.384C128.934 59.7253 129.531 59.896 130.214 59.896H131.75C132.433 59.896 132.987 59.7253 133.414 59.384C133.841 58.9573 134.31 58.4027 134.822 57.72L140.582 49.656C141.179 48.8027 141.521 47.9067 141.606 46.968C141.691 46.0293 141.734 45.1333 141.734 44.28V35.448C141.734 33.8267 142.075 32.6747 142.758 31.992C143.526 31.224 144.721 30.84 146.342 30.84H165.798C167.419 30.84 168.571 31.224 169.254 31.992C170.022 32.6747 170.406 33.8267 170.406 35.448V45.304C170.406 49.2293 170.065 52.1733 169.382 54.136C168.699 56.0987 167.419 58.4027 165.542 61.048L155.174 75.128L165.542 88.952C167.505 91.5973 168.785 93.9013 169.382 95.864C170.065 97.8267 170.406 100.771 170.406 104.696V118.392C170.406 120.013 170.022 121.208 169.254 121.976C168.571 122.659 167.419 123 165.798 123H146.342C144.721 123 143.526 122.659 142.758 121.976C142.075 121.208 141.734 120.013 141.734 118.392V105.72C141.734 104.867 141.691 103.971 141.606 103.032C141.521 102.093 141.179 101.197 140.582 100.344L134.95 92.28C134.438 91.512 133.969 90.9573 133.542 90.616C133.115 90.2747 132.561 90.104 131.878 90.104H130.086C129.403 90.104 128.849 90.2747 128.422 90.616C127.995 90.9573 127.526 91.512 127.014 92.28L121.254 100.344C120.657 101.197 120.315 102.093 120.23 103.032C120.145 103.971 120.102 104.867 120.102 105.72V118.392ZM211.405 123H191.565C189.944 123 188.749 122.659 187.981 121.976C187.298 121.208 186.957 120.013 186.957 118.392V35.448C186.957 33.8267 187.298 32.6747 187.981 31.992C188.749 31.224 189.944 30.84 191.565 30.84H230.733C242.338 30.84 250.274 33.144 254.541 37.752C258.808 42.36 260.941 48.376 260.941 55.8V72.184C260.941 79.608 258.808 85.624 254.541 90.232C250.274 94.84 242.338 97.144 230.733 97.144H216.013V118.392C216.013 120.013 215.629 121.208 214.861 121.976C214.178 122.659 213.026 123 211.405 123ZM215.757 54.776V74.104H227.277C229.752 74.104 231.373 73.464 232.141 72.184C232.909 70.904 233.293 69.4533 233.293 67.832V61.048C233.293 59.4267 232.909 57.976 232.141 56.696C231.373 55.416 229.752 54.776 227.277 54.776H215.757ZM338.207 123H278.815C277.194 123 275.999 122.659 275.231 121.976C274.548 121.208 274.207 120.013 274.207 118.392V35.448C274.207 33.8267 274.548 32.6747 275.231 31.992C275.999 31.224 277.194 30.84 278.815 30.84H338.207C339.828 30.84 340.98 31.224 341.663 31.992C342.431 32.6747 342.815 33.8267 342.815 35.448V50.424C342.815 52.0453 342.431 53.24 341.663 54.008C340.98 54.6907 339.828 55.032 338.207 55.032H302.879V64.888H327.839C329.46 64.888 330.612 65.272 331.295 66.04C332.063 66.7227 332.447 67.8747 332.447 69.496V83.192C332.447 84.8133 332.063 86.008 331.295 86.776C330.612 87.4587 329.46 87.8 327.839 87.8H302.879V98.808H338.207C339.828 98.808 340.98 99.192 341.663 99.96C342.431 100.643 342.815 101.795 342.815 103.416V118.392C342.815 120.013 342.431 121.208 341.663 121.976C340.98 122.659 339.828 123 338.207 123ZM386.885 53.88V70.264H396.485C398.704 70.264 400.197 69.7093 400.965 68.6C401.733 67.4053 402.117 65.9547 402.117 64.248V59.896C402.117 58.1893 401.733 56.7813 400.965 55.672C400.197 54.4773 398.704 53.88 396.485 53.88H386.885ZM382.277 123H362.565C360.944 123 359.749 122.659 358.981 121.976C358.298 121.208 357.957 120.013 357.957 118.392V35.448C357.957 33.8267 358.298 32.6747 358.981 31.992C359.749 31.224 360.944 30.84 362.565 30.84H405.189C414.746 30.84 421.317 32.8453 424.901 36.856C428.57 40.7813 430.405 45.9013 430.405 52.216V58.104C430.405 61.688 429.85 64.76 428.741 67.32C427.717 69.7947 425.882 71.5867 423.237 72.696C427.845 73.208 431.557 75.0853 434.373 78.328C437.274 81.5707 438.725 85.88 438.725 91.256V118.392C438.725 120.013 438.341 121.208 437.573 121.976C436.89 122.659 435.738 123 434.117 123H414.277C412.656 123 411.461 122.659 410.693 121.976C410.01 121.208 409.669 120.013 409.669 118.392V98.808C409.669 96.9307 409.285 95.5653 408.517 94.712C407.834 93.7733 406.597 93.304 404.805 93.304H386.885V118.392C386.885 120.013 386.501 121.208 385.733 121.976C385.05 122.659 383.898 123 382.277 123ZM455.642 123C454.021 123 452.826 122.659 452.058 121.976C451.375 121.208 451.034 120.013 451.034 118.392V103.16C451.034 101.539 451.375 100.387 452.058 99.704C452.826 98.936 454.021 98.552 455.642 98.552H468.314V55.544H455.642C454.021 55.544 452.826 55.2027 452.058 54.52C451.375 53.752 451.034 52.5573 451.034 50.936V35.448C451.034 33.8267 451.375 32.6747 452.058 31.992C452.826 31.224 454.021 30.84 455.642 30.84H510.17C511.791 30.84 512.943 31.224 513.626 31.992C514.394 32.6747 514.778 33.8267 514.778 35.448V50.936C514.778 52.5573 514.394 53.752 513.626 54.52C512.943 55.2027 511.791 55.544 510.17 55.544H497.754V98.552H510.17C511.791 98.552 512.943 98.936 513.626 99.704C514.394 100.387 514.778 101.539 514.778 103.16V118.392C514.778 120.013 514.394 121.208 513.626 121.976C512.943 122.659 511.791 123 510.17 123H455.642ZM594.582 123H535.19C533.569 123 532.374 122.659 531.606 121.976C530.923 121.208 530.582 120.013 530.582 118.392V35.448C530.582 33.8267 530.923 32.6747 531.606 31.992C532.374 31.224 533.569 30.84 535.19 30.84H594.582C596.203 30.84 597.355 31.224 598.038 31.992C598.806 32.6747 599.19 33.8267 599.19 35.448V50.424C599.19 52.0453 598.806 53.24 598.038 54.008C597.355 54.6907 596.203 55.032 594.582 55.032H559.254V64.888H584.214C585.835 64.888 586.987 65.272 587.67 66.04C588.438 66.7227 588.822 67.8747 588.822 69.496V83.192C588.822 84.8133 588.438 86.008 587.67 86.776C586.987 87.4587 585.835 87.8 584.214 87.8H559.254V98.808H594.582C596.203 98.808 597.355 99.192 598.038 99.96C598.806 100.643 599.19 101.795 599.19 103.416V118.392C599.19 120.013 598.806 121.208 598.038 121.976C597.355 122.659 596.203 123 594.582 123ZM638.14 123H618.94C617.319 123 616.124 122.659 615.356 121.976C614.673 121.208 614.332 120.013 614.332 118.392V35.448C614.332 33.8267 614.673 32.6747 615.356 31.992C616.124 31.224 617.319 30.84 618.94 30.84H632.252C633.873 30.84 635.239 31.096 636.348 31.608C637.543 32.12 638.695 33.016 639.804 34.296L664.636 62.712V35.448C664.636 33.8267 664.977 32.6747 665.66 31.992C666.428 31.224 667.623 30.84 669.244 30.84H688.444C690.065 30.84 691.217 31.224 691.9 31.992C692.668 32.6747 693.052 33.8267 693.052 35.448V118.392C693.052 120.013 692.668 121.208 691.9 121.976C691.217 122.659 690.065 123 688.444 123H669.244C667.623 123 666.428 122.659 665.66 121.976C664.977 121.208 664.636 120.013 664.636 118.392V102.648L642.748 76.152V118.392C642.748 120.013 642.364 121.208 641.596 121.976C640.913 122.659 639.761 123 638.14 123ZM772.019 123H740.787C730.12 123 722.184 120.867 716.979 116.6C711.859 112.333 709.299 105.763 709.299 96.888V57.08C709.299 48.2053 711.859 41.6347 716.979 37.368C722.184 33.016 730.12 30.84 740.787 30.84H772.019C773.64 30.84 774.792 31.224 775.475 31.992C776.243 32.6747 776.627 33.8267 776.627 35.448V50.936C776.627 52.5573 776.243 53.752 775.475 54.52C774.792 55.2027 773.64 55.544 772.019 55.544H746.291C743.646 55.544 741.683 56.0987 740.403 57.208C739.123 58.232 738.483 59.8107 738.483 61.944V92.408C738.483 94.5413 739.123 96.12 740.403 97.144C741.683 98.0827 743.646 98.552 746.291 98.552H772.019C773.64 98.552 774.792 98.936 775.475 99.704C776.243 100.387 776.627 101.539 776.627 103.16V118.392C776.627 120.013 776.243 121.208 775.475 121.976C774.792 122.659 773.64 123 772.019 123ZM855.082 123H795.69C794.069 123 792.874 122.659 792.106 121.976C791.423 121.208 791.082 120.013 791.082 118.392V35.448C791.082 33.8267 791.423 32.6747 792.106 31.992C792.874 31.224 794.069 30.84 795.69 30.84H855.082C856.703 30.84 857.855 31.224 858.538 31.992C859.306 32.6747 859.69 33.8267 859.69 35.448V50.424C859.69 52.0453 859.306 53.24 858.538 54.008C857.855 54.6907 856.703 55.032 855.082 55.032H819.754V64.888H844.714C846.335 64.888 847.487 65.272 848.17 66.04C848.938 66.7227 849.322 67.8747 849.322 69.496V83.192C849.322 84.8133 848.938 86.008 848.17 86.776C847.487 87.4587 846.335 87.8 844.714 87.8H819.754V98.808H855.082C856.703 98.808 857.855 99.192 858.538 99.96C859.306 100.643 859.69 101.795 859.69 103.416V118.392C859.69 120.013 859.306 121.208 858.538 121.976C857.855 122.659 856.703 123 855.082 123Z"/>
</mask>
<path d="M72.832 123H13.44C11.8187 123 10.624 122.659 9.856 121.976C9.17333 121.208 8.832 120.013 8.832 118.392V35.448C8.832 33.8267 9.17333 32.6747 9.856 31.992C10.624 31.224 11.8187 30.84 13.44 30.84H72.832C74.4533 30.84 75.6053 31.224 76.288 31.992C77.056 32.6747 77.44 33.8267 77.44 35.448V50.424C77.44 52.0453 77.056 53.24 76.288 54.008C75.6053 54.6907 74.4533 55.032 72.832 55.032H37.504V64.888H62.464C64.0853 64.888 65.2373 65.272 65.92 66.04C66.688 66.7227 67.072 67.8747 67.072 69.496V83.192C67.072 84.8133 66.688 86.008 65.92 86.776C65.2373 87.4587 64.0853 87.8 62.464 87.8H37.504V98.808H72.832C74.4533 98.808 75.6053 99.192 76.288 99.96C77.056 100.643 77.44 101.795 77.44 103.416V118.392C77.44 120.013 77.056 121.208 76.288 121.976C75.6053 122.659 74.4533 123 72.832 123ZM120.102 118.392C120.102 120.013 119.718 121.208 118.95 121.976C118.267 122.659 117.115 123 115.494 123H96.038C94.4167 123 93.222 122.659 92.454 121.976C91.7713 121.208 91.43 120.013 91.43 118.392V104.696C91.43 100.771 91.7713 97.8267 92.454 95.864C93.1367 93.9013 94.4167 91.5973 96.294 88.952L106.662 75L96.294 61.048C94.3313 58.4027 93.0087 56.0987 92.326 54.136C91.7287 52.1733 91.43 49.2293 91.43 45.304V35.448C91.43 33.8267 91.7713 32.6747 92.454 31.992C93.222 31.224 94.4167 30.84 96.038 30.84H115.75C117.371 30.84 118.523 31.224 119.206 31.992C119.974 32.6747 120.358 33.8267 120.358 35.448V44.28C120.358 45.1333 120.401 46.0293 120.486 46.968C120.571 47.9067 120.913 48.8027 121.51 49.656L127.142 57.72C127.569 58.4027 127.995 58.9573 128.422 59.384C128.934 59.7253 129.531 59.896 130.214 59.896H131.75C132.433 59.896 132.987 59.7253 133.414 59.384C133.841 58.9573 134.31 58.4027 134.822 57.72L140.582 49.656C141.179 48.8027 141.521 47.9067 141.606 46.968C141.691 46.0293 141.734 45.1333 141.734 44.28V35.448C141.734 33.8267 142.075 32.6747 142.758 31.992C143.526 31.224 144.721 30.84 146.342 30.84H165.798C167.419 30.84 168.571 31.224 169.254 31.992C170.022 32.6747 170.406 33.8267 170.406 35.448V45.304C170.406 49.2293 170.065 52.1733 169.382 54.136C168.699 56.0987 167.419 58.4027 165.542 61.048L155.174 75.128L165.542 88.952C167.505 91.5973 168.785 93.9013 169.382 95.864C170.065 97.8267 170.406 100.771 170.406 104.696V118.392C170.406 120.013 170.022 121.208 169.254 121.976C168.571 122.659 167.419 123 165.798 123H146.342C144.721 123 143.526 122.659 142.758 121.976C142.075 121.208 141.734 120.013 141.734 118.392V105.72C141.734 104.867 141.691 103.971 141.606 103.032C141.521 102.093 141.179 101.197 140.582 100.344L134.95 92.28C134.438 91.512 133.969 90.9573 133.542 90.616C133.115 90.2747 132.561 90.104 131.878 90.104H130.086C129.403 90.104 128.849 90.2747 128.422 90.616C127.995 90.9573 127.526 91.512 127.014 92.28L121.254 100.344C120.657 101.197 120.315 102.093 120.23 103.032C120.145 103.971 120.102 104.867 120.102 105.72V118.392ZM211.405 123H191.565C189.944 123 188.749 122.659 187.981 121.976C187.298 121.208 186.957 120.013 186.957 118.392V35.448C186.957 33.8267 187.298 32.6747 187.981 31.992C188.749 31.224 189.944 30.84 191.565 30.84H230.733C242.338 30.84 250.274 33.144 254.541 37.752C258.808 42.36 260.941 48.376 260.941 55.8V72.184C260.941 79.608 258.808 85.624 254.541 90.232C250.274 94.84 242.338 97.144 230.733 97.144H216.013V118.392C216.013 120.013 215.629 121.208 214.861 121.976C214.178 122.659 213.026 123 211.405 123ZM215.757 54.776V74.104H227.277C229.752 74.104 231.373 73.464 232.141 72.184C232.909 70.904 233.293 69.4533 233.293 67.832V61.048C233.293 59.4267 232.909 57.976 232.141 56.696C231.373 55.416 229.752 54.776 227.277 54.776H215.757ZM338.207 123H278.815C277.194 123 275.999 122.659 275.231 121.976C274.548 121.208 274.207 120.013 274.207 118.392V35.448C274.207 33.8267 274.548 32.6747 275.231 31.992C275.999 31.224 277.194 30.84 278.815 30.84H338.207C339.828 30.84 340.98 31.224 341.663 31.992C342.431 32.6747 342.815 33.8267 342.815 35.448V50.424C342.815 52.0453 342.431 53.24 341.663 54.008C340.98 54.6907 339.828 55.032 338.207 55.032H302.879V64.888H327.839C329.46 64.888 330.612 65.272 331.295 66.04C332.063 66.7227 332.447 67.8747 332.447 69.496V83.192C332.447 84.8133 332.063 86.008 331.295 86.776C330.612 87.4587 329.46 87.8 327.839 87.8H302.879V98.808H338.207C339.828 98.808 340.98 99.192 341.663 99.96C342.431 100.643 342.815 101.795 342.815 103.416V118.392C342.815 120.013 342.431 121.208 341.663 121.976C340.98 122.659 339.828 123 338.207 123ZM386.885 53.88V70.264H396.485C398.704 70.264 400.197 69.7093 400.965 68.6C401.733 67.4053 402.117 65.9547 402.117 64.248V59.896C402.117 58.1893 401.733 56.7813 400.965 55.672C400.197 54.4773 398.704 53.88 396.485 53.88H386.885ZM382.277 123H362.565C360.944 123 359.749 122.659 358.981 121.976C358.298 121.208 357.957 120.013 357.957 118.392V35.448C357.957 33.8267 358.298 32.6747 358.981 31.992C359.749 31.224 360.944 30.84 362.565 30.84H405.189C414.746 30.84 421.317 32.8453 424.901 36.856C428.57 40.7813 430.405 45.9013 430.405 52.216V58.104C430.405 61.688 429.85 64.76 428.741 67.32C427.717 69.7947 425.882 71.5867 423.237 72.696C427.845 73.208 431.557 75.0853 434.373 78.328C437.274 81.5707 438.725 85.88 438.725 91.256V118.392C438.725 120.013 438.341 121.208 437.573 121.976C436.89 122.659 435.738 123 434.117 123H414.277C412.656 123 411.461 122.659 410.693 121.976C410.01 121.208 409.669 120.013 409.669 118.392V98.808C409.669 96.9307 409.285 95.5653 408.517 94.712C407.834 93.7733 406.597 93.304 404.805 93.304H386.885V118.392C386.885 120.013 386.501 121.208 385.733 121.976C385.05 122.659 383.898 123 382.277 123ZM455.642 123C454.021 123 452.826 122.659 452.058 121.976C451.375 121.208 451.034 120.013 451.034 118.392V103.16C451.034 101.539 451.375 100.387 452.058 99.704C452.826 98.936 454.021 98.552 455.642 98.552H468.314V55.544H455.642C454.021 55.544 452.826 55.2027 452.058 54.52C451.375 53.752 451.034 52.5573 451.034 50.936V35.448C451.034 33.8267 451.375 32.6747 452.058 31.992C452.826 31.224 454.021 30.84 455.642 30.84H510.17C511.791 30.84 512.943 31.224 513.626 31.992C514.394 32.6747 514.778 33.8267 514.778 35.448V50.936C514.778 52.5573 514.394 53.752 513.626 54.52C512.943 55.2027 511.791 55.544 510.17 55.544H497.754V98.552H510.17C511.791 98.552 512.943 98.936 513.626 99.704C514.394 100.387 514.778 101.539 514.778 103.16V118.392C514.778 120.013 514.394 121.208 513.626 121.976C512.943 122.659 511.791 123 510.17 123H455.642ZM594.582 123H535.19C533.569 123 532.374 122.659 531.606 121.976C530.923 121.208 530.582 120.013 530.582 118.392V35.448C530.582 33.8267 530.923 32.6747 531.606 31.992C532.374 31.224 533.569 30.84 535.19 30.84H594.582C596.203 30.84 597.355 31.224 598.038 31.992C598.806 32.6747 599.19 33.8267 599.19 35.448V50.424C599.19 52.0453 598.806 53.24 598.038 54.008C597.355 54.6907 596.203 55.032 594.582 55.032H559.254V64.888H584.214C585.835 64.888 586.987 65.272 587.67 66.04C588.438 66.7227 588.822 67.8747 588.822 69.496V83.192C588.822 84.8133 588.438 86.008 587.67 86.776C586.987 87.4587 585.835 87.8 584.214 87.8H559.254V98.808H594.582C596.203 98.808 597.355 99.192 598.038 99.96C598.806 100.643 599.19 101.795 599.19 103.416V118.392C599.19 120.013 598.806 121.208 598.038 121.976C597.355 122.659 596.203 123 594.582 123ZM638.14 123H618.94C617.319 123 616.124 122.659 615.356 121.976C614.673 121.208 614.332 120.013 614.332 118.392V35.448C614.332 33.8267 614.673 32.6747 615.356 31.992C616.124 31.224 617.319 30.84 618.94 30.84H632.252C633.873 30.84 635.239 31.096 636.348 31.608C637.543 32.12 638.695 33.016 639.804 34.296L664.636 62.712V35.448C664.636 33.8267 664.977 32.6747 665.66 31.992C666.428 31.224 667.623 30.84 669.244 30.84H688.444C690.065 30.84 691.217 31.224 691.9 31.992C692.668 32.6747 693.052 33.8267 693.052 35.448V118.392C693.052 120.013 692.668 121.208 691.9 121.976C691.217 122.659 690.065 123 688.444 123H669.244C667.623 123 666.428 122.659 665.66 121.976C664.977 121.208 664.636 120.013 664.636 118.392V102.648L642.748 76.152V118.392C642.748 120.013 642.364 121.208 641.596 121.976C640.913 122.659 639.761 123 638.14 123ZM772.019 123H740.787C730.12 123 722.184 120.867 716.979 116.6C711.859 112.333 709.299 105.763 709.299 96.888V57.08C709.299 48.2053 711.859 41.6347 716.979 37.368C722.184 33.016 730.12 30.84 740.787 30.84H772.019C773.64 30.84 774.792 31.224 775.475 31.992C776.243 32.6747 776.627 33.8267 776.627 35.448V50.936C776.627 52.5573 776.243 53.752 775.475 54.52C774.792 55.2027 773.64 55.544 772.019 55.544H746.291C743.646 55.544 741.683 56.0987 740.403 57.208C739.123 58.232 738.483 59.8107 738.483 61.944V92.408C738.483 94.5413 739.123 96.12 740.403 97.144C741.683 98.0827 743.646 98.552 746.291 98.552H772.019C773.64 98.552 774.792 98.936 775.475 99.704C776.243 100.387 776.627 101.539 776.627 103.16V118.392C776.627 120.013 776.243 121.208 775.475 121.976C774.792 122.659 773.64 123 772.019 123ZM855.082 123H795.69C794.069 123 792.874 122.659 792.106 121.976C791.423 121.208 791.082 120.013 791.082 118.392V35.448C791.082 33.8267 791.423 32.6747 792.106 31.992C792.874 31.224 794.069 30.84 795.69 30.84H855.082C856.703 30.84 857.855 31.224 858.538 31.992C859.306 32.6747 859.69 33.8267 859.69 35.448V50.424C859.69 52.0453 859.306 53.24 858.538 54.008C857.855 54.6907 856.703 55.032 855.082 55.032H819.754V64.888H844.714C846.335 64.888 847.487 65.272 848.17 66.04C848.938 66.7227 849.322 67.8747 849.322 69.496V83.192C849.322 84.8133 848.938 86.008 848.17 86.776C847.487 87.4587 846.335 87.8 844.714 87.8H819.754V98.808H855.082C856.703 98.808 857.855 99.192 858.538 99.96C859.306 100.643 859.69 101.795 859.69 103.416V118.392C859.69 120.013 859.306 121.208 858.538 121.976C857.855 122.659 856.703 123 855.082 123Z" fill="white"/>
<path d="M9.856 121.976L5.37155 125.962L5.60603 126.226L5.86982 126.46L9.856 121.976ZM9.856 31.992L5.61336 27.7494L5.61336 27.7494L9.856 31.992ZM76.288 31.992L71.8035 35.9782L72.038 36.242L72.3018 36.4764L76.288 31.992ZM37.504 55.032V49.032H31.504V55.032H37.504ZM37.504 64.888H31.504V70.888H37.504V64.888ZM65.92 66.04L61.4356 70.0262L61.67 70.29L61.9338 70.5244L65.92 66.04ZM65.92 86.776L61.6774 82.5334L65.92 86.776ZM37.504 87.8V81.8H31.504V87.8H37.504ZM37.504 98.808H31.504V104.808H37.504V98.808ZM76.288 99.96L71.8035 103.946L72.038 104.21L72.3018 104.444L76.288 99.96ZM76.288 121.976L80.5306 126.219L80.5306 126.219L76.288 121.976ZM72.832 117H13.44V129H72.832V117ZM13.44 117C13.0273 117 12.9032 116.954 12.9763 116.975C13.0665 117.001 13.4271 117.123 13.8422 117.492L5.86982 126.46C8.21856 128.548 11.1573 129 13.44 129V117ZM14.3405 117.99C14.7094 118.405 14.8314 118.766 14.8571 118.856C14.878 118.929 14.832 118.805 14.832 118.392H2.832C2.832 120.675 3.28377 123.613 5.37155 125.962L14.3405 117.99ZM14.832 118.392V35.448H2.832V118.392H14.832ZM14.832 35.448C14.832 35.0272 14.8799 34.9405 14.8408 35.0725C14.7958 35.2244 14.6169 35.7164 14.0986 36.2346L5.61336 27.7494C3.24678 30.1159 2.832 33.2542 2.832 35.448H14.832ZM14.0986 36.2346C13.7108 36.6225 13.3328 36.7859 13.1641 36.8402C13.0239 36.8852 13.0806 36.84 13.44 36.84V24.84C11.0038 24.84 7.95696 25.4058 5.61336 27.7494L14.0986 36.2346ZM13.44 36.84H72.832V24.84H13.44V36.84ZM72.832 36.84C73.2 36.84 73.2166 36.8874 73.0146 36.8201C72.776 36.7405 72.2777 36.5116 71.8035 35.9782L80.7725 28.0058C78.4329 25.3738 75.1906 24.84 72.832 24.84V36.84ZM72.3018 36.4764C71.7684 36.0023 71.5395 35.504 71.4599 35.2654C71.3926 35.0634 71.44 35.08 71.44 35.448H83.44C83.44 33.0894 82.9062 29.8471 80.2742 27.5075L72.3018 36.4764ZM71.44 35.448V50.424H83.44V35.448H71.44ZM71.44 50.424C71.44 50.7834 71.3948 50.8401 71.4398 50.6999C71.4941 50.5312 71.6575 50.1532 72.0454 49.7654L80.5306 58.2506C82.8742 55.907 83.44 52.8602 83.44 50.424H71.44ZM72.0454 49.7654C72.5636 49.2471 73.0556 49.0682 73.2075 49.0232C73.3395 48.9841 73.2528 49.032 72.832 49.032V61.032C75.0258 61.032 78.1641 60.6172 80.5306 58.2506L72.0454 49.7654ZM72.832 49.032H37.504V61.032H72.832V49.032ZM31.504 55.032V64.888H43.504V55.032H31.504ZM37.504 70.888H62.464V58.888H37.504V70.888ZM62.464 70.888C62.832 70.888 62.8486 70.9354 62.6466 70.8681C62.408 70.7885 61.9097 70.5596 61.4356 70.0262L70.4045 62.0538C68.0649 59.4218 64.8226 58.888 62.464 58.888V70.888ZM61.9338 70.5244C61.4004 70.0503 61.1715 69.552 61.0919 69.3134C61.0246 69.1114 61.072 69.128 61.072 69.496H73.072C73.072 67.1374 72.5382 63.8951 69.9062 61.5555L61.9338 70.5244ZM61.072 69.496V83.192H73.072V69.496H61.072ZM61.072 83.192C61.072 83.5514 61.0268 83.6081 61.0718 83.4679C61.1261 83.2992 61.2896 82.9212 61.6774 82.5334L70.1626 91.0186C72.5062 88.675 73.072 85.6282 73.072 83.192H61.072ZM61.6774 82.5334C62.1956 82.0151 62.6876 81.8362 62.8395 81.7912C62.9715 81.7521 62.8848 81.8 62.464 81.8V93.8C64.6578 93.8 67.7961 93.3852 70.1626 91.0186L61.6774 82.5334ZM62.464 81.8H37.504V93.8H62.464V81.8ZM31.504 87.8V98.808H43.504V87.8H31.504ZM37.504 104.808H72.832V92.808H37.504V104.808ZM72.832 104.808C73.2 104.808 73.2166 104.855 73.0146 104.788C72.776 104.709 72.2777 104.48 71.8035 103.946L80.7725 95.9738C78.4329 93.3418 75.1906 92.808 72.832 92.808V104.808ZM72.3018 104.444C71.7684 103.97 71.5395 103.472 71.4599 103.233C71.3926 103.031 71.44 103.048 71.44 103.416H83.44C83.44 101.057 82.9062 97.8151 80.2742 95.4755L72.3018 104.444ZM71.44 103.416V118.392H83.44V103.416H71.44ZM71.44 118.392C71.44 118.751 71.3948 118.808 71.4398 118.668C71.4941 118.499 71.6575 118.121 72.0454 117.733L80.5306 126.219C82.8742 123.875 83.44 120.828 83.44 118.392H71.44ZM72.0454 117.733C72.5636 117.215 73.0556 117.036 73.2075 116.991C73.3395 116.952 73.2528 117 72.832 117V129C75.0258 129 78.1641 128.585 80.5306 126.219L72.0454 117.733ZM118.95 121.976L114.707 117.733L114.707 117.733L118.95 121.976ZM92.454 121.976L87.9695 125.962L88.204 126.226L88.4678 126.46L92.454 121.976ZM96.294 88.952L91.4781 85.3732L91.439 85.426L91.401 85.4795L96.294 88.952ZM106.662 75L111.478 78.5788L114.137 75L111.478 71.4212L106.662 75ZM96.294 61.048L91.4754 64.6231L91.4781 64.6268L96.294 61.048ZM92.326 54.136L86.586 55.883L86.6203 55.9958L86.659 56.1071L92.326 54.136ZM92.454 31.992L88.2114 27.7494L88.2114 27.7494L92.454 31.992ZM119.206 31.992L114.722 35.9782L114.956 36.242L115.22 36.4764L119.206 31.992ZM120.486 46.968L114.511 47.5112L114.511 47.5112L120.486 46.968ZM121.51 49.656L126.429 46.2205L126.425 46.2152L121.51 49.656ZM127.142 57.72L132.23 54.54L132.149 54.4101L132.061 54.2845L127.142 57.72ZM128.422 59.384L124.179 63.6266L124.599 64.0467L125.094 64.3763L128.422 59.384ZM133.414 59.384L137.162 64.0692L137.422 63.8616L137.657 63.6266L133.414 59.384ZM134.822 57.72L139.622 61.32L139.664 61.2642L139.704 61.2074L134.822 57.72ZM140.582 49.656L145.464 53.1434L145.481 53.1202L145.497 53.0968L140.582 49.656ZM141.606 46.968L135.631 46.4248L135.631 46.4248L141.606 46.968ZM142.758 31.992L147.001 36.2346L142.758 31.992ZM169.254 31.992L164.77 35.9782L165.004 36.242L165.268 36.4764L169.254 31.992ZM165.542 61.048L170.373 64.6057L170.405 64.5634L170.435 64.5205L165.542 61.048ZM155.174 75.128L150.343 71.5703L147.699 75.1608L150.374 78.728L155.174 75.128ZM165.542 88.952L170.361 85.3769L170.351 85.3644L170.342 85.352L165.542 88.952ZM169.382 95.864L163.642 97.611L163.676 97.7238L163.715 97.8351L169.382 95.864ZM169.254 121.976L173.497 126.219L173.497 126.219L169.254 121.976ZM142.758 121.976L138.274 125.962L138.508 126.226L138.772 126.46L142.758 121.976ZM141.606 103.032L135.631 103.575L135.631 103.575L141.606 103.032ZM140.582 100.344L135.663 103.78L135.667 103.785L140.582 100.344ZM134.95 92.28L129.958 95.6082L129.994 95.6623L130.031 95.7155L134.95 92.28ZM133.542 90.616L137.29 85.9308L137.29 85.9308L133.542 90.616ZM128.422 90.616L124.674 85.9308L124.674 85.9308L128.422 90.616ZM127.014 92.28L131.896 95.7674L131.953 95.6887L132.006 95.6082L127.014 92.28ZM121.254 100.344L116.372 96.8566L116.355 96.8798L116.339 96.9032L121.254 100.344ZM120.23 103.032L126.205 103.575L126.205 103.575L120.23 103.032ZM114.102 118.392C114.102 118.751 114.057 118.808 114.102 118.668C114.156 118.499 114.32 118.121 114.707 117.733L123.193 126.219C125.536 123.875 126.102 120.828 126.102 118.392H114.102ZM114.707 117.733C115.226 117.215 115.718 117.036 115.869 116.991C116.002 116.952 115.915 117 115.494 117V129C117.688 129 120.826 128.585 123.193 126.219L114.707 117.733ZM115.494 117H96.038V129H115.494V117ZM96.038 117C95.6253 117 95.5012 116.954 95.5743 116.975C95.6645 117.001 96.0251 117.123 96.4402 117.492L88.4678 126.46C90.8166 128.548 93.7553 129 96.038 129V117ZM96.9385 117.99C97.3074 118.405 97.4294 118.766 97.4551 118.856C97.476 118.929 97.43 118.805 97.43 118.392H85.43C85.43 120.675 85.8818 123.613 87.9695 125.962L96.9385 117.99ZM97.43 118.392V104.696H85.43V118.392H97.43ZM97.43 104.696C97.43 100.956 97.7759 98.8273 98.121 97.8351L86.787 93.8929C85.7668 96.826 85.43 100.586 85.43 104.696H97.43ZM98.121 97.8351C98.5442 96.6185 99.4757 94.836 101.187 92.4245L91.401 85.4795C89.3577 88.3587 87.7292 91.1842 86.787 93.8929L98.121 97.8351ZM101.11 92.5308L111.478 78.5788L101.846 71.4212L91.4781 85.3732L101.11 92.5308ZM111.478 71.4212L101.11 57.4692L91.4781 64.6268L101.846 78.5788L111.478 71.4212ZM101.113 57.4729C99.3267 55.0658 98.3942 53.3184 97.993 52.1649L86.659 56.1071C87.6231 58.8789 89.336 61.7395 91.4754 64.6231L101.113 57.4729ZM98.066 52.389C97.7336 51.2968 97.43 49.0733 97.43 45.304H85.43C85.43 49.3853 85.7237 53.0499 86.586 55.883L98.066 52.389ZM97.43 45.304V35.448H85.43V45.304H97.43ZM97.43 35.448C97.43 35.0272 97.4779 34.9405 97.4388 35.0725C97.3938 35.2244 97.2149 35.7164 96.6966 36.2346L88.2114 27.7494C85.8448 30.1159 85.43 33.2542 85.43 35.448H97.43ZM96.6966 36.2346C96.3088 36.6225 95.9308 36.7859 95.7621 36.8402C95.6219 36.8852 95.6786 36.84 96.038 36.84V24.84C93.6018 24.84 90.555 25.4058 88.2114 27.7494L96.6966 36.2346ZM96.038 36.84H115.75V24.84H96.038V36.84ZM115.75 36.84C116.118 36.84 116.135 36.8874 115.933 36.8201C115.694 36.7405 115.196 36.5116 114.722 35.9782L123.69 28.0058C121.351 25.3738 118.109 24.84 115.75 24.84V36.84ZM115.22 36.4764C114.686 36.0023 114.457 35.504 114.378 35.2654C114.311 35.0634 114.358 35.08 114.358 35.448H126.358C126.358 33.0894 125.824 29.8471 123.192 27.5075L115.22 36.4764ZM114.358 35.448V44.28H126.358V35.448H114.358ZM114.358 44.28C114.358 45.3323 114.411 46.4104 114.511 47.5112L126.461 46.4248C126.391 45.6483 126.358 44.9344 126.358 44.28H114.358ZM114.511 47.5112C114.7 49.5984 115.462 51.4788 116.595 53.0968L126.425 46.2152C126.386 46.1588 126.393 46.1564 126.413 46.208C126.434 46.2627 126.454 46.3394 126.461 46.4248L114.511 47.5112ZM116.591 53.0915L122.223 61.1555L132.061 54.2845L126.429 46.2205L116.591 53.0915ZM122.054 60.9C122.647 61.8484 123.345 62.7927 124.179 63.6266L132.665 55.1414C132.645 55.122 132.491 54.9569 132.23 54.54L122.054 60.9ZM125.094 64.3763C126.698 65.4456 128.481 65.896 130.214 65.896V53.896C130.376 53.896 130.615 53.9167 130.902 53.9989C131.195 54.0824 131.485 54.2148 131.75 54.3917L125.094 64.3763ZM130.214 65.896H131.75V53.896H130.214V65.896ZM131.75 65.896C133.447 65.896 135.429 65.4561 137.162 64.0692L129.666 54.6988C130.546 53.9946 131.418 53.896 131.75 53.896V65.896ZM137.657 63.6266C138.347 62.936 139.003 62.1449 139.622 61.32L130.022 54.12C129.617 54.6605 129.334 54.9787 129.171 55.1414L137.657 63.6266ZM139.704 61.2074L145.464 53.1434L135.7 46.1686L129.94 54.2326L139.704 61.2074ZM145.497 53.0968C146.63 51.4788 147.392 49.5984 147.581 47.5112L135.631 46.4248C135.638 46.3395 135.658 46.2627 135.679 46.208C135.699 46.1564 135.706 46.1588 135.667 46.2152L145.497 53.0968ZM147.581 47.5112C147.681 46.4104 147.734 45.3323 147.734 44.28H135.734C135.734 44.9344 135.701 45.6483 135.631 46.4248L147.581 47.5112ZM147.734 44.28V35.448H135.734V44.28H147.734ZM147.734 35.448C147.734 35.0272 147.782 34.9405 147.743 35.0725C147.698 35.2244 147.519 35.7164 147.001 36.2346L138.515 27.7494C136.149 30.1159 135.734 33.2542 135.734 35.448H147.734ZM147.001 36.2346C146.613 36.6225 146.235 36.7859 146.066 36.8402C145.926 36.8852 145.983 36.84 146.342 36.84V24.84C143.906 24.84 140.859 25.4058 138.515 27.7494L147.001 36.2346ZM146.342 36.84H165.798V24.84H146.342V36.84ZM165.798 36.84C166.166 36.84 166.183 36.8874 165.981 36.8201C165.742 36.7405 165.244 36.5116 164.77 35.9782L173.738 28.0058C171.399 25.3738 168.157 24.84 165.798 24.84V36.84ZM165.268 36.4764C164.734 36.0023 164.505 35.504 164.426 35.2654C164.359 35.0634 164.406 35.08 164.406 35.448H176.406C176.406 33.0894 175.872 29.8471 173.24 27.5075L165.268 36.4764ZM164.406 35.448V45.304H176.406V35.448H164.406ZM164.406 45.304C164.406 49.0443 164.06 51.1727 163.715 52.1649L175.049 56.1071C176.069 53.174 176.406 49.4144 176.406 45.304H164.406ZM163.715 52.1649C163.292 53.3815 162.36 55.164 160.649 57.5755L170.435 64.5205C172.478 61.6413 174.107 58.8158 175.049 56.1071L163.715 52.1649ZM160.711 57.4903L150.343 71.5703L160.005 78.6857L170.373 64.6057L160.711 57.4903ZM150.374 78.728L160.742 92.552L170.342 85.352L159.974 71.528L150.374 78.728ZM160.723 92.5271C162.494 94.9129 163.329 96.582 163.642 97.611L175.122 94.117C174.241 91.2207 172.516 88.2817 170.361 85.3769L160.723 92.5271ZM163.715 97.8351C164.06 98.8273 164.406 100.956 164.406 104.696H176.406C176.406 100.586 176.069 96.826 175.049 93.8929L163.715 97.8351ZM164.406 104.696V118.392H176.406V104.696H164.406ZM164.406 118.392C164.406 118.751 164.361 118.808 164.406 118.668C164.46 118.499 164.624 118.121 165.011 117.733L173.497 126.219C175.84 123.875 176.406 120.828 176.406 118.392H164.406ZM165.011 117.733C165.53 117.215 166.022 117.036 166.173 116.991C166.306 116.952 166.219 117 165.798 117V129C167.992 129 171.13 128.585 173.497 126.219L165.011 117.733ZM165.798 117H146.342V129H165.798V117ZM146.342 117C145.929 117 145.805 116.954 145.878 116.975C145.968 117.001 146.329 117.123 146.744 117.492L138.772 126.46C141.121 128.548 144.059 129 146.342 129V117ZM147.242 117.99C147.611 118.405 147.733 118.766 147.759 118.856C147.78 118.929 147.734 118.805 147.734 118.392H135.734C135.734 120.675 136.186 123.613 138.274 125.962L147.242 117.99ZM147.734 118.392V105.72H135.734V118.392H147.734ZM147.734 105.72C147.734 104.668 147.681 103.59 147.581 102.489L135.631 103.575C135.701 104.352 135.734 105.066 135.734 105.72H147.734ZM147.581 102.489C147.392 100.402 146.63 98.5212 145.497 96.9032L135.667 103.785C135.706 103.841 135.699 103.844 135.679 103.792C135.658 103.737 135.638 103.661 135.631 103.575L147.581 102.489ZM145.501 96.9085L139.869 88.8445L130.031 95.7155L135.663 103.78L145.501 96.9085ZM139.942 88.9518C139.289 87.9723 138.418 86.8331 137.29 85.9308L129.794 95.3012C129.703 95.2285 129.648 95.1751 129.627 95.1546C129.606 95.1335 129.609 95.134 129.634 95.1636C129.688 95.2273 129.796 95.3663 129.958 95.6082L139.942 88.9518ZM137.29 85.9308C135.557 84.5439 133.575 84.104 131.878 84.104V96.104C131.546 96.104 130.674 96.0054 129.794 95.3012L137.29 85.9308ZM131.878 84.104H130.086V96.104H131.878V84.104ZM130.086 84.104C128.389 84.104 126.407 84.5439 124.674 85.9308L132.17 95.3012C131.29 96.0054 130.418 96.104 130.086 96.104V84.104ZM124.674 85.9308C123.546 86.8331 122.675 87.9723 122.022 88.9518L132.006 95.6082C132.168 95.3663 132.276 95.2273 132.33 95.1636C132.355 95.134 132.358 95.1335 132.337 95.1546C132.316 95.1751 132.261 95.2285 132.17 95.3012L124.674 85.9308ZM122.132 88.7926L116.372 96.8566L126.136 103.831L131.896 95.7674L122.132 88.7926ZM116.339 96.9032C115.206 98.5212 114.444 100.402 114.255 102.489L126.205 103.575C126.198 103.661 126.178 103.737 126.157 103.792C126.137 103.844 126.13 103.841 126.169 103.785L116.339 96.9032ZM114.255 102.489C114.155 103.59 114.102 104.668 114.102 105.72H126.102C126.102 105.066 126.135 104.352 126.205 103.575L114.255 102.489ZM114.102 105.72V118.392H126.102V105.72H114.102ZM187.981 121.976L183.497 125.962L183.731 126.226L183.995 126.46L187.981 121.976ZM187.981 31.992L183.738 27.7494L183.738 27.7494L187.981 31.992ZM254.541 37.752L250.138 41.8284L250.138 41.8284L254.541 37.752ZM254.541 90.232L250.138 86.1555L250.138 86.1556L254.541 90.232ZM216.013 97.144V91.144H210.013V97.144H216.013ZM214.861 121.976L210.618 117.733L210.618 117.733L214.861 121.976ZM215.757 54.776V48.776H209.757V54.776H215.757ZM215.757 74.104H209.757V80.104H215.757V74.104ZM232.141 72.184L237.286 75.271L237.286 75.271L232.141 72.184ZM232.141 56.696L226.996 59.783L226.996 59.783L232.141 56.696ZM211.405 117H191.565V129H211.405V117ZM191.565 117C191.152 117 191.028 116.954 191.101 116.975C191.191 117.001 191.552 117.123 191.967 117.492L183.995 126.46C186.344 128.548 189.282 129 191.565 129V117ZM192.465 117.99C192.834 118.405 192.956 118.766 192.982 118.856C193.003 118.929 192.957 118.805 192.957 118.392H180.957C180.957 120.675 181.409 123.613 183.497 125.962L192.465 117.99ZM192.957 118.392V35.448H180.957V118.392H192.957ZM192.957 35.448C192.957 35.0272 193.005 34.9405 192.966 35.0725C192.921 35.2244 192.742 35.7164 192.224 36.2346L183.738 27.7494C181.372 30.1159 180.957 33.2542 180.957 35.448H192.957ZM192.224 36.2346C191.836 36.6225 191.458 36.7859 191.289 36.8402C191.149 36.8852 191.206 36.84 191.565 36.84V24.84C189.129 24.84 186.082 25.4058 183.738 27.7494L192.224 36.2346ZM191.565 36.84H230.733V24.84H191.565V36.84ZM230.733 36.84C241.96 36.84 247.659 39.1507 250.138 41.8284L258.944 33.6756C252.89 27.1373 242.717 24.84 230.733 24.84V36.84ZM250.138 41.8284C253.195 45.1298 254.941 49.5949 254.941 55.8H266.941C266.941 47.1571 264.42 39.5902 258.944 33.6755L250.138 41.8284ZM254.941 55.8V72.184H266.941V55.8H254.941ZM254.941 72.184C254.941 78.3891 253.195 82.8542 250.138 86.1555L258.944 94.3084C264.42 88.3938 266.941 80.8269 266.941 72.184H254.941ZM250.138 86.1556C247.659 88.8333 241.96 91.144 230.733 91.144V103.144C242.717 103.144 252.89 100.847 258.944 94.3084L250.138 86.1556ZM230.733 91.144H216.013V103.144H230.733V91.144ZM210.013 97.144V118.392H222.013V97.144H210.013ZM210.013 118.392C210.013 118.751 209.968 118.808 210.013 118.668C210.067 118.499 210.231 118.121 210.618 117.733L219.104 126.219C221.447 123.875 222.013 120.828 222.013 118.392H210.013ZM210.618 117.733C211.137 117.215 211.629 117.036 211.78 116.991C211.913 116.952 211.826 117 211.405 117V129C213.599 129 216.737 128.585 219.104 126.219L210.618 117.733ZM209.757 54.776V74.104H221.757V54.776H209.757ZM215.757 80.104H227.277V68.104H215.757V80.104ZM227.277 80.104C230.426 80.104 234.858 79.3175 237.286 75.271L226.996 69.097C227.178 68.793 227.408 68.5388 227.647 68.3469C227.878 68.1614 228.066 68.0746 228.146 68.0431C228.221 68.0135 228.201 68.0318 228.047 68.0559C227.893 68.0799 227.643 68.104 227.277 68.104V80.104ZM237.286 75.271C238.661 72.9787 239.293 70.4439 239.293 67.832H227.293C227.293 68.4628 227.157 68.8293 226.996 69.097L237.286 75.271ZM239.293 67.832V61.048H227.293V67.832H239.293ZM239.293 61.048C239.293 58.4361 238.661 55.9013 237.286 53.609L226.996 59.783C227.157 60.0507 227.293 60.4172 227.293 61.048H239.293ZM237.286 53.609C234.858 49.5625 230.426 48.776 227.277 48.776V60.776C227.643 60.776 227.893 60.8001 228.047 60.8241C228.201 60.8482 228.221 60.8665 228.146 60.8369C228.066 60.8054 227.878 60.7186 227.647 60.533C227.408 60.3411 227.178 60.087 226.996 59.783L237.286 53.609ZM227.277 48.776H215.757V60.776H227.277V48.776ZM275.231 121.976L270.747 125.962L270.981 126.226L271.245 126.46L275.231 121.976ZM275.231 31.992L270.988 27.7494L270.988 27.7494L275.231 31.992ZM341.663 31.992L337.179 35.9782L337.413 36.242L337.677 36.4764L341.663 31.992ZM302.879 55.032V49.032H296.879V55.032H302.879ZM302.879 64.888H296.879V70.888H302.879V64.888ZM331.295 66.04L326.811 70.0262L327.045 70.29L327.309 70.5244L331.295 66.04ZM331.295 86.776L327.052 82.5334L331.295 86.776ZM302.879 87.8V81.8H296.879V87.8H302.879ZM302.879 98.808H296.879V104.808H302.879V98.808ZM341.663 99.96L337.179 103.946L337.413 104.21L337.677 104.444L341.663 99.96ZM341.663 121.976L345.906 126.219L345.906 126.219L341.663 121.976ZM338.207 117H278.815V129H338.207V117ZM278.815 117C278.402 117 278.278 116.954 278.351 116.975C278.441 117.001 278.802 117.123 279.217 117.492L271.245 126.46C273.594 128.548 276.532 129 278.815 129V117ZM279.715 117.99C280.084 118.405 280.206 118.766 280.232 118.856C280.253 118.929 280.207 118.805 280.207 118.392H268.207C268.207 120.675 268.659 123.613 270.747 125.962L279.715 117.99ZM280.207 118.392V35.448H268.207V118.392H280.207ZM280.207 35.448C280.207 35.0272 280.255 34.9405 280.216 35.0725C280.171 35.2244 279.992 35.7164 279.474 36.2346L270.988 27.7494C268.622 30.1159 268.207 33.2542 268.207 35.448H280.207ZM279.474 36.2346C279.086 36.6225 278.708 36.7859 278.539 36.8402C278.399 36.8852 278.456 36.84 278.815 36.84V24.84C276.379 24.84 273.332 25.4058 270.988 27.7494L279.474 36.2346ZM278.815 36.84H338.207V24.84H278.815V36.84ZM338.207 36.84C338.575 36.84 338.592 36.8874 338.39 36.8201C338.151 36.7405 337.653 36.5116 337.179 35.9782L346.147 28.0058C343.808 25.3738 340.566 24.84 338.207 24.84V36.84ZM337.677 36.4764C337.143 36.0023 336.914 35.504 336.835 35.2654C336.768 35.0634 336.815 35.08 336.815 35.448H348.815C348.815 33.0894 348.281 29.8471 345.649 27.5075L337.677 36.4764ZM336.815 35.448V50.424H348.815V35.448H336.815ZM336.815 50.424C336.815 50.7834 336.77 50.8401 336.815 50.6999C336.869 50.5312 337.033 50.1532 337.42 49.7654L345.906 58.2506C348.249 55.907 348.815 52.8602 348.815 50.424H336.815ZM337.42 49.7654C337.939 49.2471 338.431 49.0682 338.582 49.0232C338.715 48.9841 338.628 49.032 338.207 49.032V61.032C340.401 61.032 343.539 60.6172 345.906 58.2506L337.42 49.7654ZM338.207 49.032H302.879V61.032H338.207V49.032ZM296.879 55.032V64.888H308.879V55.032H296.879ZM302.879 70.888H327.839V58.888H302.879V70.888ZM327.839 70.888C328.207 70.888 328.224 70.9354 328.022 70.8681C327.783 70.7885 327.285 70.5596 326.811 70.0262L335.779 62.0538C333.44 59.4218 330.198 58.888 327.839 58.888V70.888ZM327.309 70.5244C326.775 70.0503 326.546 69.552 326.467 69.3134C326.4 69.1114 326.447 69.128 326.447 69.496H338.447C338.447 67.1374 337.913 63.8951 335.281 61.5555L327.309 70.5244ZM326.447 69.496V83.192H338.447V69.496H326.447ZM326.447 83.192C326.447 83.5514 326.402 83.6081 326.447 83.4679C326.501 83.2992 326.665 82.9212 327.052 82.5334L335.538 91.0186C337.881 88.675 338.447 85.6282 338.447 83.192H326.447ZM327.052 82.5334C327.571 82.0151 328.063 81.8362 328.214 81.7912C328.347 81.7521 328.26 81.8 327.839 81.8V93.8C330.033 93.8 333.171 93.3852 335.538 91.0186L327.052 82.5334ZM327.839 81.8H302.879V93.8H327.839V81.8ZM296.879 87.8V98.808H308.879V87.8H296.879ZM302.879 104.808H338.207V92.808H302.879V104.808ZM338.207 104.808C338.575 104.808 338.592 104.855 338.39 104.788C338.151 104.709 337.653 104.48 337.179 103.946L346.147 95.9738C343.808 93.3418 340.566 92.808 338.207 92.808V104.808ZM337.677 104.444C337.143 103.97 336.914 103.472 336.835 103.233C336.768 103.031 336.815 103.048 336.815 103.416H348.815C348.815 101.057 348.281 97.8151 345.649 95.4755L337.677 104.444ZM336.815 103.416V118.392H348.815V103.416H336.815ZM336.815 118.392C336.815 118.751 336.77 118.808 336.815 118.668C336.869 118.499 337.033 118.121 337.42 117.733L345.906 126.219C348.249 123.875 348.815 120.828 348.815 118.392H336.815ZM337.42 117.733C337.939 117.215 338.431 117.036 338.582 116.991C338.715 116.952 338.628 117 338.207 117V129C340.401 129 343.539 128.585 345.906 126.219L337.42 117.733ZM386.885 53.88V47.88H380.885V53.88H386.885ZM386.885 70.264H380.885V76.264H386.885V70.264ZM400.965 68.6L405.898 72.0153L405.957 71.9309L406.012 71.8445L400.965 68.6ZM400.965 55.672L395.918 58.9165L395.973 59.0029L396.032 59.0873L400.965 55.672ZM358.981 121.976L354.497 125.962L354.731 126.226L354.995 126.46L358.981 121.976ZM358.981 31.992L354.738 27.7494L354.738 27.7494L358.981 31.992ZM424.901 36.856L420.427 40.854L420.472 40.9041L420.518 40.9533L424.901 36.856ZM428.741 67.32L423.236 64.9343L423.216 64.98L423.197 65.0259L428.741 67.32ZM423.237 72.696L420.917 67.1628L399.592 76.1057L422.574 78.6593L423.237 72.696ZM434.373 78.328L429.843 82.2621L429.872 82.2957L429.902 82.3288L434.373 78.328ZM437.573 121.976L441.816 126.219L441.816 126.219L437.573 121.976ZM410.693 121.976L406.209 125.962L406.443 126.226L406.707 126.46L410.693 121.976ZM408.517 94.712L403.665 98.241L403.848 98.4936L404.057 98.7258L408.517 94.712ZM386.885 93.304V87.304H380.885V93.304H386.885ZM385.733 121.976L381.49 117.733L381.49 117.733L385.733 121.976ZM380.885 53.88V70.264H392.885V53.88H380.885ZM386.885 76.264H396.485V64.264H386.885V76.264ZM396.485 76.264C399.39 76.264 403.437 75.5697 405.898 72.0153L396.032 65.1847C396.233 64.8949 396.467 64.6644 396.697 64.4954C396.92 64.3313 397.099 64.2535 397.18 64.2234C397.257 64.1948 397.25 64.2074 397.126 64.2259C397.003 64.2443 396.795 64.264 396.485 64.264V76.264ZM406.012 71.8445C407.518 69.5021 408.117 66.8707 408.117 64.248H396.117C396.117 65.0387 395.948 65.3086 395.918 65.3555L406.012 71.8445ZM408.117 64.248V59.896H396.117V64.248H408.117ZM408.117 59.896C408.117 57.2928 407.525 54.6064 405.898 52.2567L396.032 59.0873C395.998 59.0387 396.013 59.0373 396.04 59.1387C396.071 59.25 396.117 59.4883 396.117 59.896H408.117ZM406.012 52.4275C403.618 48.7032 399.543 47.88 396.485 47.88V59.88C397.101 59.88 397.216 59.9692 397.041 59.8989C396.936 59.8571 396.747 59.7655 396.527 59.5905C396.3 59.411 396.089 59.182 395.918 58.9165L406.012 52.4275ZM396.485 47.88H386.885V59.88H396.485V47.88ZM382.277 117H362.565V129H382.277V117ZM362.565 117C362.152 117 362.028 116.954 362.101 116.975C362.191 117.001 362.552 117.123 362.967 117.492L354.995 126.46C357.344 128.548 360.282 129 362.565 129V117ZM363.465 117.99C363.834 118.405 363.956 118.766 363.982 118.856C364.003 118.929 363.957 118.805 363.957 118.392H351.957C351.957 120.675 352.409 123.613 354.497 125.962L363.465 117.99ZM363.957 118.392V35.448H351.957V118.392H363.957ZM363.957 35.448C363.957 35.0272 364.005 34.9405 363.966 35.0725C363.921 35.2244 363.742 35.7164 363.224 36.2346L354.738 27.7494C352.372 30.1159 351.957 33.2542 351.957 35.448H363.957ZM363.224 36.2346C362.836 36.6225 362.458 36.7859 362.289 36.8402C362.149 36.8852 362.206 36.84 362.565 36.84V24.84C360.129 24.84 357.082 25.4058 354.738 27.7494L363.224 36.2346ZM362.565 36.84H405.189V24.84H362.565V36.84ZM405.189 36.84C414.278 36.84 418.606 38.8158 420.427 40.854L429.375 32.858C424.028 26.8748 415.214 24.84 405.189 24.84V36.84ZM420.518 40.9533C422.969 43.5757 424.405 47.1385 424.405 52.216H436.405C436.405 44.6642 434.171 37.987 429.284 32.7587L420.518 40.9533ZM424.405 52.216V58.104H436.405V52.216H424.405ZM424.405 58.104C424.405 61.0914 423.94 63.3089 423.236 64.9343L434.246 69.7056C435.761 66.2111 436.405 62.2846 436.405 58.104H424.405ZM423.197 65.0259C422.824 65.9268 422.217 66.6176 420.917 67.1628L425.557 78.2292C429.548 76.5558 432.61 73.6625 434.285 69.6141L423.197 65.0259ZM422.574 78.6593C425.814 79.0193 428.098 80.2528 429.843 82.2621L438.903 74.3939C435.016 69.9179 429.876 67.3967 423.9 66.7327L422.574 78.6593ZM429.902 82.3288C431.601 84.2281 432.725 86.9936 432.725 91.256H444.725C444.725 84.7664 442.948 78.9132 438.844 74.3272L429.902 82.3288ZM432.725 91.256V118.392H444.725V91.256H432.725ZM432.725 118.392C432.725 118.751 432.68 118.808 432.725 118.668C432.779 118.499 432.943 118.121 433.33 117.733L441.816 126.219C444.159 123.875 444.725 120.828 444.725 118.392H432.725ZM433.33 117.733C433.849 117.215 434.341 117.036 434.492 116.991C434.625 116.952 434.538 117 434.117 117V129C436.311 129 439.449 128.585 441.816 126.219L433.33 117.733ZM434.117 117H414.277V129H434.117V117ZM414.277 117C413.864 117 413.74 116.954 413.813 116.975C413.903 117.001 414.264 117.123 414.679 117.492L406.707 126.46C409.056 128.548 411.994 129 414.277 129V117ZM415.177 117.99C415.546 118.405 415.668 118.766 415.694 118.856C415.715 118.929 415.669 118.805 415.669 118.392H403.669C403.669 120.675 404.121 123.613 406.209 125.962L415.177 117.99ZM415.669 118.392V98.808H403.669V118.392H415.669ZM415.669 98.808C415.669 96.3326 415.201 93.1694 412.977 90.6982L404.057 98.7258C403.88 98.5293 403.766 98.3472 403.696 98.2129C403.628 98.0817 403.606 98.0019 403.605 98.0005C403.605 97.9997 403.622 98.0615 403.639 98.2016C403.655 98.3412 403.669 98.5404 403.669 98.808H415.669ZM413.369 91.183C411.047 87.9897 407.441 87.304 404.805 87.304V99.304C405.215 99.304 405.204 99.3627 404.949 99.266C404.634 99.1464 404.102 98.843 403.665 98.241L413.369 91.183ZM404.805 87.304H386.885V99.304H404.805V87.304ZM380.885 93.304V118.392H392.885V93.304H380.885ZM380.885 118.392C380.885 118.751 380.84 118.808 380.885 118.668C380.939 118.499 381.103 118.121 381.49 117.733L389.976 126.219C392.319 123.875 392.885 120.828 392.885 118.392H380.885ZM381.49 117.733C382.009 117.215 382.501 117.036 382.652 116.991C382.785 116.952 382.698 117 382.277 117V129C384.471 129 387.609 128.585 389.976 126.219L381.49 117.733ZM452.058 121.976L447.574 125.962L447.808 126.226L448.072 126.46L452.058 121.976ZM452.058 99.704L456.301 103.947L456.301 103.947L452.058 99.704ZM468.314 98.552V104.552H474.314V98.552H468.314ZM468.314 55.544H474.314V49.544H468.314V55.544ZM452.058 54.52L447.574 58.5062L447.808 58.77L448.072 59.0044L452.058 54.52ZM452.058 31.992L447.815 27.7494L447.815 27.7494L452.058 31.992ZM513.626 31.992L509.142 35.9782L509.376 36.242L509.64 36.4764L513.626 31.992ZM513.626 54.52L517.869 58.7626L517.869 58.7626L513.626 54.52ZM497.754 55.544V49.544H491.754V55.544H497.754ZM497.754 98.552H491.754V104.552H497.754V98.552ZM513.626 99.704L509.142 103.69L509.376 103.954L509.64 104.188L513.626 99.704ZM513.626 121.976L517.869 126.219L517.869 126.219L513.626 121.976ZM455.642 117C455.229 117 455.105 116.954 455.178 116.975C455.268 117.001 455.629 117.123 456.044 117.492L448.072 126.46C450.421 128.548 453.359 129 455.642 129V117ZM456.542 117.99C456.911 118.405 457.033 118.766 457.059 118.856C457.08 118.929 457.034 118.805 457.034 118.392H445.034C445.034 120.675 445.486 123.613 447.574 125.962L456.542 117.99ZM457.034 118.392V103.16H445.034V118.392H457.034ZM457.034 103.16C457.034 102.739 457.082 102.652 457.043 102.785C456.998 102.936 456.819 103.428 456.301 103.947L447.815 95.4614C445.449 97.8279 445.034 100.966 445.034 103.16H457.034ZM456.301 103.947C455.913 104.334 455.535 104.498 455.366 104.552C455.226 104.597 455.283 104.552 455.642 104.552V92.552C453.206 92.552 450.159 93.1178 447.815 95.4614L456.301 103.947ZM455.642 104.552H468.314V92.552H455.642V104.552ZM474.314 98.552V55.544H462.314V98.552H474.314ZM468.314 49.544H455.642V61.544H468.314V49.544ZM455.642 49.544C455.229 49.544 455.105 49.498 455.178 49.5189C455.268 49.5446 455.629 49.6666 456.044 50.0355L448.072 59.0044C450.421 61.0922 453.359 61.544 455.642 61.544V49.544ZM456.542 50.5338C456.911 50.9489 457.033 51.3095 457.059 51.3997C457.08 51.4728 457.034 51.3487 457.034 50.936H445.034C445.034 53.2187 445.486 56.1574 447.574 58.5062L456.542 50.5338ZM457.034 50.936V35.448H445.034V50.936H457.034ZM457.034 35.448C457.034 35.0272 457.082 34.9405 457.043 35.0725C456.998 35.2244 456.819 35.7164 456.301 36.2346L447.815 27.7494C445.449 30.1159 445.034 33.2542 445.034 35.448H457.034ZM456.301 36.2346C455.913 36.6225 455.535 36.7859 455.366 36.8402C455.226 36.8852 455.283 36.84 455.642 36.84V24.84C453.206 24.84 450.159 25.4058 447.815 27.7494L456.301 36.2346ZM455.642 36.84H510.17V24.84H455.642V36.84ZM510.17 36.84C510.538 36.84 510.555 36.8874 510.353 36.8201C510.114 36.7405 509.616 36.5116 509.142 35.9782L518.11 28.0058C515.771 25.3738 512.529 24.84 510.17 24.84V36.84ZM509.64 36.4764C509.106 36.0023 508.877 35.504 508.798 35.2654C508.731 35.0634 508.778 35.08 508.778 35.448H520.778C520.778 33.0894 520.244 29.8471 517.612 27.5076L509.64 36.4764ZM508.778 35.448V50.936H520.778V35.448H508.778ZM508.778 50.936C508.778 51.2954 508.733 51.3521 508.778 51.212C508.832 51.0432 508.996 50.6652 509.383 50.2774L517.869 58.7626C520.212 56.419 520.778 53.3722 520.778 50.936H508.778ZM509.383 50.2774C509.902 49.7591 510.394 49.5802 510.545 49.5352C510.678 49.4961 510.591 49.544 510.17 49.544V61.544C512.364 61.544 515.502 61.1292 517.869 58.7626L509.383 50.2774ZM510.17 49.544H497.754V61.544H510.17V49.544ZM491.754 55.544V98.552H503.754V55.544H491.754ZM497.754 104.552H510.17V92.552H497.754V104.552ZM510.17 104.552C510.538 104.552 510.555 104.599 510.353 104.532C510.114 104.453 509.616 104.224 509.142 103.69L518.11 95.7178C515.771 93.0858 512.529 92.552 510.17 92.552V104.552ZM509.64 104.188C509.106 103.714 508.877 103.216 508.798 102.977C508.731 102.775 508.778 102.792 508.778 103.16H520.778C520.778 100.801 520.244 97.5591 517.612 95.2196L509.64 104.188ZM508.778 103.16V118.392H520.778V103.16H508.778ZM508.778 118.392C508.778 118.751 508.733 118.808 508.778 118.668C508.832 118.499 508.996 118.121 509.383 117.733L517.869 126.219C520.212 123.875 520.778 120.828 520.778 118.392H508.778ZM509.383 117.733C509.902 117.215 510.394 117.036 510.545 116.991C510.678 116.952 510.591 117 510.17 117V129C512.364 129 515.502 128.585 517.869 126.219L509.383 117.733ZM510.17 117H455.642V129H510.17V117ZM531.606 121.976L527.122 125.962L527.356 126.226L527.62 126.46L531.606 121.976ZM531.606 31.992L527.363 27.7494L527.363 27.7494L531.606 31.992ZM598.038 31.992L593.554 35.9782L593.788 36.242L594.052 36.4764L598.038 31.992ZM559.254 55.032V49.032H553.254V55.032H559.254ZM559.254 64.888H553.254V70.888H559.254V64.888ZM587.67 66.04L583.186 70.0262L583.42 70.29L583.684 70.5244L587.67 66.04ZM587.67 86.776L583.427 82.5334L587.67 86.776ZM559.254 87.8V81.8H553.254V87.8H559.254ZM559.254 98.808H553.254V104.808H559.254V98.808ZM598.038 99.96L593.554 103.946L593.788 104.21L594.052 104.444L598.038 99.96ZM598.038 121.976L602.281 126.219L602.281 126.219L598.038 121.976ZM594.582 117H535.19V129H594.582V117ZM535.19 117C534.777 117 534.653 116.954 534.726 116.975C534.816 117.001 535.177 117.123 535.592 117.492L527.62 126.46C529.969 128.548 532.907 129 535.19 129V117ZM536.09 117.99C536.459 118.405 536.581 118.766 536.607 118.856C536.628 118.929 536.582 118.805 536.582 118.392H524.582C524.582 120.675 525.034 123.613 527.122 125.962L536.09 117.99ZM536.582 118.392V35.448H524.582V118.392H536.582ZM536.582 35.448C536.582 35.0272 536.63 34.9405 536.591 35.0725C536.546 35.2244 536.367 35.7164 535.849 36.2346L527.363 27.7494C524.997 30.1159 524.582 33.2542 524.582 35.448H536.582ZM535.849 36.2346C535.461 36.6225 535.083 36.7859 534.914 36.8402C534.774 36.8852 534.831 36.84 535.19 36.84V24.84C532.754 24.84 529.707 25.4058 527.363 27.7494L535.849 36.2346ZM535.19 36.84H594.582V24.84H535.19V36.84ZM594.582 36.84C594.95 36.84 594.967 36.8874 594.765 36.8201C594.526 36.7405 594.028 36.5116 593.554 35.9782L602.522 28.0058C600.183 25.3738 596.941 24.84 594.582 24.84V36.84ZM594.052 36.4764C593.518 36.0023 593.289 35.504 593.21 35.2654C593.143 35.0634 593.19 35.08 593.19 35.448H605.19C605.19 33.0894 604.656 29.8471 602.024 27.5075L594.052 36.4764ZM593.19 35.448V50.424H605.19V35.448H593.19ZM593.19 50.424C593.19 50.7834 593.145 50.8401 593.19 50.6999C593.244 50.5312 593.408 50.1532 593.795 49.7654L602.281 58.2506C604.624 55.907 605.19 52.8602 605.19 50.424H593.19ZM593.795 49.7654C594.314 49.2471 594.806 49.0682 594.957 49.0232C595.09 48.9841 595.003 49.032 594.582 49.032V61.032C596.776 61.032 599.914 60.6172 602.281 58.2506L593.795 49.7654ZM594.582 49.032H559.254V61.032H594.582V49.032ZM553.254 55.032V64.888H565.254V55.032H553.254ZM559.254 70.888H584.214V58.888H559.254V70.888ZM584.214 70.888C584.582 70.888 584.599 70.9354 584.397 70.8681C584.158 70.7885 583.66 70.5596 583.186 70.0262L592.154 62.0538C589.815 59.4218 586.573 58.888 584.214 58.888V70.888ZM583.684 70.5244C583.15 70.0503 582.921 69.552 582.842 69.3134C582.775 69.1114 582.822 69.128 582.822 69.496H594.822C594.822 67.1374 594.288 63.8951 591.656 61.5555L583.684 70.5244ZM582.822 69.496V83.192H594.822V69.496H582.822ZM582.822 83.192C582.822 83.5514 582.777 83.6081 582.822 83.4679C582.876 83.2992 583.04 82.9212 583.427 82.5334L591.913 91.0186C594.256 88.675 594.822 85.6282 594.822 83.192H582.822ZM583.427 82.5334C583.946 82.0151 584.438 81.8362 584.589 81.7912C584.722 81.7521 584.635 81.8 584.214 81.8V93.8C586.408 93.8 589.546 93.3852 591.913 91.0186L583.427 82.5334ZM584.214 81.8H559.254V93.8H584.214V81.8ZM553.254 87.8V98.808H565.254V87.8H553.254ZM559.254 104.808H594.582V92.808H559.254V104.808ZM594.582 104.808C594.95 104.808 594.967 104.855 594.765 104.788C594.526 104.709 594.028 104.48 593.554 103.946L602.522 95.9738C600.183 93.3418 596.941 92.808 594.582 92.808V104.808ZM594.052 104.444C593.518 103.97 593.289 103.472 593.21 103.233C593.143 103.031 593.19 103.048 593.19 103.416H605.19C605.19 101.057 604.656 97.8151 602.024 95.4755L594.052 104.444ZM593.19 103.416V118.392H605.19V103.416H593.19ZM593.19 118.392C593.19 118.751 593.145 118.808 593.19 118.668C593.244 118.499 593.408 118.121 593.795 117.733L602.281 126.219C604.624 123.875 605.19 120.828 605.19 118.392H593.19ZM593.795 117.733C594.314 117.215 594.806 117.036 594.957 116.991C595.09 116.952 595.003 117 594.582 117V129C596.776 129 599.914 128.585 602.281 126.219L593.795 117.733ZM615.356 121.976L610.872 125.962L611.106 126.226L611.37 126.46L615.356 121.976ZM615.356 31.992L611.113 27.7494L611.113 27.7494L615.356 31.992ZM636.348 31.608L633.834 37.0558L633.909 37.0903L633.984 37.1229L636.348 31.608ZM639.804 34.296L635.27 38.2256L635.278 38.2349L635.286 38.2441L639.804 34.296ZM664.636 62.712L660.118 66.6601L670.636 78.6962V62.712H664.636ZM665.66 31.992L669.903 36.2346L665.66 31.992ZM691.9 31.992L687.416 35.9782L687.65 36.242L687.914 36.4764L691.9 31.992ZM691.9 121.976L687.657 117.733L687.657 117.733L691.9 121.976ZM665.66 121.976L661.176 125.962L661.41 126.226L661.674 126.46L665.66 121.976ZM664.636 102.648H670.636V100.49L669.262 98.8267L664.636 102.648ZM642.748 76.152L647.374 72.3307L636.748 59.4679V76.152H642.748ZM641.596 121.976L637.353 117.733L637.353 117.733L641.596 121.976ZM638.14 117H618.94V129H638.14V117ZM618.94 117C618.527 117 618.403 116.954 618.476 116.975C618.566 117.001 618.927 117.123 619.342 117.492L611.37 126.46C613.719 128.548 616.657 129 618.94 129V117ZM619.84 117.99C620.209 118.405 620.331 118.766 620.357 118.856C620.378 118.929 620.332 118.805 620.332 118.392H608.332C608.332 120.675 608.784 123.613 610.872 125.962L619.84 117.99ZM620.332 118.392V35.448H608.332V118.392H620.332ZM620.332 35.448C620.332 35.0272 620.38 34.9405 620.341 35.0725C620.296 35.2244 620.117 35.7164 619.599 36.2346L611.113 27.7494C608.747 30.1159 608.332 33.2542 608.332 35.448H620.332ZM619.599 36.2346C619.211 36.6225 618.833 36.7859 618.664 36.8402C618.524 36.8852 618.581 36.84 618.94 36.84V24.84C616.504 24.84 613.457 25.4058 611.113 27.7494L619.599 36.2346ZM618.94 36.84H632.252V24.84H618.94V36.84ZM632.252 36.84C633.276 36.84 633.726 37.006 633.834 37.0558L638.862 26.1602C636.751 25.186 634.471 24.84 632.252 24.84V36.84ZM633.984 37.1229C634.132 37.186 634.582 37.4314 635.27 38.2256L644.338 30.3664C642.808 28.6006 640.953 27.054 638.712 26.0931L633.984 37.1229ZM635.286 38.2441L660.118 66.6601L669.154 58.7639L644.322 30.3479L635.286 38.2441ZM670.636 62.712V35.448H658.636V62.712H670.636ZM670.636 35.448C670.636 35.0272 670.684 34.9405 670.645 35.0725C670.6 35.2244 670.421 35.7164 669.903 36.2346L661.417 27.7494C659.051 30.1159 658.636 33.2542 658.636 35.448H670.636ZM669.903 36.2346C669.515 36.6225 669.137 36.7859 668.968 36.8402C668.828 36.8852 668.885 36.84 669.244 36.84V24.84C666.808 24.84 663.761 25.4058 661.417 27.7494L669.903 36.2346ZM669.244 36.84H688.444V24.84H669.244V36.84ZM688.444 36.84C688.812 36.84 688.829 36.8874 688.627 36.8201C688.388 36.7405 687.89 36.5116 687.416 35.9782L696.384 28.0058C694.045 25.3738 690.803 24.84 688.444 24.84V36.84ZM687.914 36.4764C687.38 36.0023 687.151 35.504 687.072 35.2654C687.005 35.0634 687.052 35.08 687.052 35.448H699.052C699.052 33.0894 698.518 29.8471 695.886 27.5075L687.914 36.4764ZM687.052 35.448V118.392H699.052V35.448H687.052ZM687.052 118.392C687.052 118.751 687.007 118.808 687.052 118.668C687.106 118.499 687.27 118.121 687.657 117.733L696.143 126.219C698.486 123.875 699.052 120.828 699.052 118.392H687.052ZM687.657 117.733C688.176 117.215 688.668 117.036 688.819 116.991C688.952 116.952 688.865 117 688.444 117V129C690.638 129 693.776 128.585 696.143 126.219L687.657 117.733ZM688.444 117H669.244V129H688.444V117ZM669.244 117C668.831 117 668.707 116.954 668.78 116.975C668.87 117.001 669.231 117.123 669.646 117.492L661.674 126.46C664.023 128.548 666.961 129 669.244 129V117ZM670.144 117.99C670.513 118.405 670.635 118.766 670.661 118.856C670.682 118.929 670.636 118.805 670.636 118.392H658.636C658.636 120.675 659.088 123.613 661.176 125.962L670.144 117.99ZM670.636 118.392V102.648H658.636V118.392H670.636ZM669.262 98.8267L647.374 72.3307L638.122 79.9733L660.01 106.469L669.262 98.8267ZM636.748 76.152V118.392H648.748V76.152H636.748ZM636.748 118.392C636.748 118.751 636.703 118.808 636.748 118.668C636.802 118.499 636.966 118.121 637.353 117.733L645.839 126.219C648.182 123.875 648.748 120.828 648.748 118.392H636.748ZM637.353 117.733C637.872 117.215 638.364 117.036 638.515 116.991C638.648 116.952 638.561 117 638.14 117V129C640.334 129 643.472 128.585 645.839 126.219L637.353 117.733ZM716.979 116.6L713.138 121.209L713.157 121.225L713.175 121.24L716.979 116.6ZM716.979 37.368L720.82 41.9773L720.828 41.9711L716.979 37.368ZM775.475 31.992L770.991 35.9782L771.225 36.242L771.489 36.4764L775.475 31.992ZM740.403 57.208L744.151 61.8932L744.243 61.8195L744.333 61.7421L740.403 57.208ZM740.403 97.144L736.655 101.829L736.753 101.908L736.855 101.982L740.403 97.144ZM775.475 99.704L770.991 103.69L771.225 103.954L771.489 104.188L775.475 99.704ZM775.475 121.976L779.718 126.219L779.718 126.219L775.475 121.976ZM772.019 117H740.787V129H772.019V117ZM740.787 117C730.745 117 724.445 114.962 720.783 111.96L713.175 121.24C719.923 126.771 729.496 129 740.787 129V117ZM720.82 111.991C717.487 109.213 715.299 104.611 715.299 96.888H703.299C703.299 106.915 706.231 115.454 713.138 121.209L720.82 111.991ZM715.299 96.888V57.08H703.299V96.888H715.299ZM715.299 57.08C715.299 49.3572 717.487 44.7549 720.82 41.9773L713.138 32.7587C706.231 38.5145 703.299 47.0535 703.299 57.08H715.299ZM720.828 41.9711C724.486 38.9121 730.766 36.84 740.787 36.84V24.84C729.474 24.84 719.882 27.1199 713.13 32.7649L720.828 41.9711ZM740.787 36.84H772.019V24.84H740.787V36.84ZM772.019 36.84C772.387 36.84 772.404 36.8874 772.202 36.8201C771.963 36.7405 771.465 36.5116 770.991 35.9782L779.959 28.0058C777.62 25.3738 774.378 24.84 772.019 24.84V36.84ZM771.489 36.4764C770.955 36.0023 770.726 35.504 770.647 35.2654C770.58 35.0634 770.627 35.08 770.627 35.448H782.627C782.627 33.0894 782.093 29.8471 779.461 27.5075L771.489 36.4764ZM770.627 35.448V50.936H782.627V35.448H770.627ZM770.627 50.936C770.627 51.2954 770.582 51.3521 770.627 51.2119C770.681 51.0432 770.845 50.6652 771.232 50.2774L779.718 58.7626C782.061 56.419 782.627 53.3722 782.627 50.936H770.627ZM771.232 50.2774C771.751 49.7591 772.243 49.5802 772.394 49.5352C772.527 49.4961 772.44 49.544 772.019 49.544V61.544C774.213 61.544 777.351 61.1292 779.718 58.7626L771.232 50.2774ZM772.019 49.544H746.291V61.544H772.019V49.544ZM746.291 49.544C742.974 49.544 739.313 50.2131 736.473 52.6739L744.333 61.7421C744.185 61.87 744.163 61.8198 744.467 61.7339C744.787 61.6434 745.366 61.544 746.291 61.544V49.544ZM736.655 52.5228C733.545 55.011 732.483 58.5821 732.483 61.944H744.483C744.483 61.462 744.557 61.3317 744.523 61.4142C744.505 61.4596 744.465 61.5427 744.391 61.6419C744.317 61.7421 744.233 61.8278 744.151 61.8932L736.655 52.5228ZM732.483 61.944V92.408H744.483V61.944H732.483ZM732.483 92.408C732.483 95.7699 733.545 99.341 736.655 101.829L744.151 92.4588C744.233 92.5242 744.317 92.6099 744.391 92.7101C744.465 92.8093 744.505 92.8924 744.523 92.9378C744.557 93.0203 744.483 92.89 744.483 92.408H732.483ZM736.855 101.982C739.648 104.031 743.142 104.552 746.291 104.552V92.552C745.302 92.552 744.639 92.4622 744.23 92.3645C743.823 92.2672 743.798 92.1933 743.951 92.3056L736.855 101.982ZM746.291 104.552H772.019V92.552H746.291V104.552ZM772.019 104.552C772.387 104.552 772.404 104.599 772.202 104.532C771.963 104.453 771.465 104.224 770.991 103.69L779.959 95.7178C777.62 93.0858 774.378 92.552 772.019 92.552V104.552ZM771.489 104.188C770.955 103.714 770.726 103.216 770.647 102.977C770.58 102.775 770.627 102.792 770.627 103.16H782.627C782.627 100.801 782.093 97.5591 779.461 95.2195L771.489 104.188ZM770.627 103.16V118.392H782.627V103.16H770.627ZM770.627 118.392C770.627 118.751 770.582 118.808 770.627 118.668C770.681 118.499 770.845 118.121 771.232 117.733L779.718 126.219C782.061 123.875 782.627 120.828 782.627 118.392H770.627ZM771.232 117.733C771.751 117.215 772.243 117.036 772.394 116.991C772.527 116.952 772.44 117 772.019 117V129C774.213 129 777.351 128.585 779.718 126.219L771.232 117.733ZM792.106 121.976L787.622 125.962L787.856 126.226L788.12 126.46L792.106 121.976ZM792.106 31.992L787.863 27.7494L787.863 27.7494L792.106 31.992ZM858.538 31.992L854.054 35.9782L854.288 36.242L854.552 36.4764L858.538 31.992ZM819.754 55.032V49.032H813.754V55.032H819.754ZM819.754 64.888H813.754V70.888H819.754V64.888ZM848.17 66.04L843.686 70.0262L843.92 70.29L844.184 70.5244L848.17 66.04ZM848.17 86.776L843.927 82.5334L848.17 86.776ZM819.754 87.8V81.8H813.754V87.8H819.754ZM819.754 98.808H813.754V104.808H819.754V98.808ZM858.538 99.96L854.054 103.946L854.288 104.21L854.552 104.444L858.538 99.96ZM858.538 121.976L862.781 126.219L862.781 126.219L858.538 121.976ZM855.082 117H795.69V129H855.082V117ZM795.69 117C795.277 117 795.153 116.954 795.226 116.975C795.316 117.001 795.677 117.123 796.092 117.492L788.12 126.46C790.469 128.548 793.407 129 795.69 129V117ZM796.59 117.99C796.959 118.405 797.081 118.766 797.107 118.856C797.128 118.929 797.082 118.805 797.082 118.392H785.082C785.082 120.675 785.534 123.613 787.622 125.962L796.59 117.99ZM797.082 118.392V35.448H785.082V118.392H797.082ZM797.082 35.448C797.082 35.0272 797.13 34.9405 797.091 35.0725C797.046 35.2244 796.867 35.7164 796.349 36.2346L787.863 27.7494C785.497 30.1159 785.082 33.2542 785.082 35.448H797.082ZM796.349 36.2346C795.961 36.6225 795.583 36.7859 795.414 36.8402C795.274 36.8852 795.331 36.84 795.69 36.84V24.84C793.254 24.84 790.207 25.4058 787.863 27.7494L796.349 36.2346ZM795.69 36.84H855.082V24.84H795.69V36.84ZM855.082 36.84C855.45 36.84 855.467 36.8874 855.265 36.8201C855.026 36.7405 854.528 36.5116 854.054 35.9782L863.022 28.0058C860.683 25.3738 857.441 24.84 855.082 24.84V36.84ZM854.552 36.4764C854.018 36.0023 853.789 35.504 853.71 35.2654C853.643 35.0634 853.69 35.08 853.69 35.448H865.69C865.69 33.0894 865.156 29.8471 862.524 27.5075L854.552 36.4764ZM853.69 35.448V50.424H865.69V35.448H853.69ZM853.69 50.424C853.69 50.7834 853.645 50.8401 853.69 50.6999C853.744 50.5312 853.908 50.1532 854.295 49.7654L862.781 58.2506C865.124 55.907 865.69 52.8602 865.69 50.424H853.69ZM854.295 49.7654C854.814 49.2471 855.306 49.0682 855.457 49.0232C855.59 48.9841 855.503 49.032 855.082 49.032V61.032C857.276 61.032 860.414 60.6172 862.781 58.2506L854.295 49.7654ZM855.082 49.032H819.754V61.032H855.082V49.032ZM813.754 55.032V64.888H825.754V55.032H813.754ZM819.754 70.888H844.714V58.888H819.754V70.888ZM844.714 70.888C845.082 70.888 845.099 70.9354 844.897 70.8681C844.658 70.7885 844.16 70.5596 843.686 70.0262L852.654 62.0538C850.315 59.4218 847.073 58.888 844.714 58.888V70.888ZM844.184 70.5244C843.65 70.0503 843.421 69.552 843.342 69.3134C843.275 69.1114 843.322 69.128 843.322 69.496H855.322C855.322 67.1374 854.788 63.8951 852.156 61.5555L844.184 70.5244ZM843.322 69.496V83.192H855.322V69.496H843.322ZM843.322 83.192C843.322 83.5514 843.277 83.6081 843.322 83.4679C843.376 83.2992 843.54 82.9212 843.927 82.5334L852.413 91.0186C854.756 88.675 855.322 85.6282 855.322 83.192H843.322ZM843.927 82.5334C844.446 82.0151 844.938 81.8362 845.089 81.7912C845.222 81.7521 845.135 81.8 844.714 81.8V93.8C846.908 93.8 850.046 93.3852 852.413 91.0186L843.927 82.5334ZM844.714 81.8H819.754V93.8H844.714V81.8ZM813.754 87.8V98.808H825.754V87.8H813.754ZM819.754 104.808H855.082V92.808H819.754V104.808ZM855.082 104.808C855.45 104.808 855.467 104.855 855.265 104.788C855.026 104.709 854.528 104.48 854.054 103.946L863.022 95.9738C860.683 93.3418 857.441 92.808 855.082 92.808V104.808ZM854.552 104.444C854.018 103.97 853.789 103.472 853.71 103.233C853.643 103.031 853.69 103.048 853.69 103.416H865.69C865.69 101.057 865.156 97.8151 862.524 95.4755L854.552 104.444ZM853.69 103.416V118.392H865.69V103.416H853.69ZM853.69 118.392C853.69 118.751 853.645 118.808 853.69 118.668C853.744 118.499 853.908 118.121 854.295 117.733L862.781 126.219C865.124 123.875 865.69 120.828 865.69 118.392H853.69ZM854.295 117.733C854.814 117.215 855.306 117.036 855.457 116.991C855.59 116.952 855.503 117 855.082 117V129C857.276 129 860.414 128.585 862.781 126.219L854.295 117.733Z" fill="#6B59CD" mask="url(#path-1-outside-1_56_4938)"/>
</g>
<defs>
<clipPath id="clip0_56_4938">
<rect width="866" height="154" fill="white"/>
</clipPath>
</defs>
</svg>
