<svg width="439" height="132" viewBox="0 0 439 132" fill="none" xmlns="http://www.w3.org/2000/svg">
<path d="M46.592 102.2C24.448 102.2 8.576 88.632 8.576 69.816H19.2C19.2 83.128 30.592 92.728 46.848 92.728C61.696 92.728 70.784 84.92 70.784 75.448C70.784 50.744 9.984 67.128 9.984 33.336C9.984 17.336 23.68 5.56 44.032 5.56C64.64 5.56 79.616 18.36 79.616 36.152H69.248C69.376 23.864 58.752 15.032 44.032 15.032C29.824 15.032 20.608 22.328 20.608 31.672C20.608 55.736 81.408 39.608 81.408 73.912C81.408 90.04 67.84 102.2 46.592 102.2ZM112.784 56.376V99H102.16V8.75999H112.784V48.312L151.056 8.75999H165.008L122.256 52.408L166.288 99H152.336L112.784 56.376ZM191.909 99H181.285V8.75999H191.909V99ZM226.909 8.75999V89.528H273.117V99H216.285V8.75999H226.909ZM300.909 8.75999V89.528H347.117V99H290.285V8.75999H300.909ZM394.842 102.2C372.698 102.2 356.826 88.632 356.826 69.816H367.45C367.45 83.128 378.842 92.728 395.098 92.728C409.946 92.728 419.034 84.92 419.034 75.448C419.034 50.744 358.234 67.128 358.234 33.336C358.234 17.336 371.93 5.56 392.282 5.56C412.89 5.56 427.866 18.36 427.866 36.152H417.498C417.626 23.864 407.002 15.032 392.282 15.032C378.074 15.032 368.858 22.328 368.858 31.672C368.858 55.736 429.658 39.608 429.658 73.912C429.658 90.04 416.09 102.2 394.842 102.2Z" fill="white"/>
</svg>
