<svg width="518" height="154" viewBox="0 0 518 154" fill="none" xmlns="http://www.w3.org/2000/svg">
<g clip-path="url(#clip0_56_4935)">
<mask id="path-1-outside-1_56_4935" maskUnits="userSpaceOnUse" x="0" y="24" width="519" height="105" fill="black">
<rect fill="white" y="24" width="519" height="105"/>
<path d="M51.584 123H11.136C9.51467 123 8.32 122.659 7.552 121.976C6.86933 121.208 6.528 120.013 6.528 118.392V103.416C6.528 101.795 6.86933 100.643 7.552 99.96C8.32 99.192 9.51467 98.808 11.136 98.808H45.568C46.6773 98.808 47.488 98.4667 48 97.784C48.5973 97.016 48.896 96.12 48.896 95.096C48.896 93.6453 48.5973 92.5787 48 91.896C47.488 91.2133 46.6773 90.8293 45.568 90.744L26.368 88.056C20.3947 87.2027 15.5733 85.24 11.904 82.168C8.32 79.096 6.528 73.976 6.528 66.808V53.368C6.528 46.1147 8.87467 40.568 13.568 36.728C18.2613 32.8027 24.7467 30.84 33.024 30.84H68.864C70.4853 30.84 71.6373 31.224 72.32 31.992C73.088 32.6747 73.472 33.8267 73.472 35.448V50.68C73.472 52.3013 73.088 53.496 72.32 54.264C71.6373 54.9467 70.4853 55.288 68.864 55.288H39.04C37.9307 55.288 37.0773 55.672 36.48 56.44C35.8827 57.1227 35.584 58.0187 35.584 59.128C35.584 60.2373 35.8827 61.176 36.48 61.944C37.0773 62.712 37.9307 63.1387 39.04 63.224L58.112 65.784C64.0853 66.6373 68.9067 68.6 72.576 71.672C76.2453 74.744 78.08 79.864 78.08 87.032V100.472C78.08 107.725 75.6907 113.315 70.912 117.24C66.2187 121.08 59.776 123 51.584 123ZM116.53 123H96.69C95.0687 123 93.874 122.659 93.106 121.976C92.4233 121.208 92.082 120.013 92.082 118.392V35.448C92.082 33.8267 92.4233 32.6747 93.106 31.992C93.874 31.224 95.0687 30.84 96.69 30.84H116.53C118.151 30.84 119.303 31.224 119.986 31.992C120.754 32.6747 121.138 33.8267 121.138 35.448V64.888H126.258L139.442 35.064C140.039 33.528 140.85 32.4613 141.874 31.864C142.898 31.1813 144.221 30.84 145.842 30.84H165.554C167.005 30.84 167.986 31.224 168.498 31.992C169.01 32.6747 168.967 33.6987 168.37 35.064L155.314 64.888C160.093 65.144 163.89 66.8507 166.706 70.008C169.607 73.08 171.058 77.176 171.058 82.296V118.392C171.058 120.013 170.674 121.208 169.906 121.976C169.223 122.659 168.071 123 166.45 123H146.738C145.117 123 143.922 122.659 143.154 121.976C142.471 121.208 142.13 120.013 142.13 118.392V93.432C142.13 92.0667 141.789 91 141.106 90.232C140.423 89.464 139.399 89.08 138.034 89.08H121.138V118.392C121.138 120.013 120.754 121.208 119.986 121.976C119.303 122.659 118.151 123 116.53 123ZM190.142 123C188.521 123 187.326 122.659 186.558 121.976C185.875 121.208 185.534 120.013 185.534 118.392V103.16C185.534 101.539 185.875 100.387 186.558 99.704C187.326 98.936 188.521 98.552 190.142 98.552H202.814V55.544H190.142C188.521 55.544 187.326 55.2027 186.558 54.52C185.875 53.752 185.534 52.5573 185.534 50.936V35.448C185.534 33.8267 185.875 32.6747 186.558 31.992C187.326 31.224 188.521 30.84 190.142 30.84H244.67C246.291 30.84 247.443 31.224 248.126 31.992C248.894 32.6747 249.278 33.8267 249.278 35.448V50.936C249.278 52.5573 248.894 53.752 248.126 54.52C247.443 55.2027 246.291 55.544 244.67 55.544H232.254V98.552H244.67C246.291 98.552 247.443 98.936 248.126 99.704C248.894 100.387 249.278 101.539 249.278 103.16V118.392C249.278 120.013 248.894 121.208 248.126 121.976C247.443 122.659 246.291 123 244.67 123H190.142ZM334.842 123H269.69C268.069 123 266.874 122.659 266.106 121.976C265.423 121.208 265.082 120.013 265.082 118.392V35.448C265.082 33.8267 265.423 32.6747 266.106 31.992C266.874 31.224 268.069 30.84 269.69 30.84H289.53C291.151 30.84 292.303 31.224 292.986 31.992C293.754 32.6747 294.138 33.8267 294.138 35.448V98.808H311.674V78.072C311.674 76.4507 312.015 75.2987 312.698 74.616C313.466 73.848 314.661 73.464 316.282 73.464H334.842C336.463 73.464 337.615 73.848 338.298 74.616C339.066 75.2987 339.45 76.4507 339.45 78.072V118.392C339.45 120.013 339.066 121.208 338.298 121.976C337.615 122.659 336.463 123 334.842 123ZM423.842 123H358.69C357.069 123 355.874 122.659 355.106 121.976C354.423 121.208 354.082 120.013 354.082 118.392V35.448C354.082 33.8267 354.423 32.6747 355.106 31.992C355.874 31.224 357.069 30.84 358.69 30.84H378.53C380.151 30.84 381.303 31.224 381.986 31.992C382.754 32.6747 383.138 33.8267 383.138 35.448V98.808H400.674V78.072C400.674 76.4507 401.015 75.2987 401.698 74.616C402.466 73.848 403.661 73.464 405.282 73.464H423.842C425.463 73.464 426.615 73.848 427.298 74.616C428.066 75.2987 428.45 76.4507 428.45 78.072V118.392C428.45 120.013 428.066 121.208 427.298 121.976C426.615 122.659 425.463 123 423.842 123ZM485.834 123H445.386C443.765 123 442.57 122.659 441.802 121.976C441.119 121.208 440.778 120.013 440.778 118.392V103.416C440.778 101.795 441.119 100.643 441.802 99.96C442.57 99.192 443.765 98.808 445.386 98.808H479.818C480.927 98.808 481.738 98.4667 482.25 97.784C482.847 97.016 483.146 96.12 483.146 95.096C483.146 93.6453 482.847 92.5787 482.25 91.896C481.738 91.2133 480.927 90.8293 479.818 90.744L460.618 88.056C454.645 87.2027 449.823 85.24 446.154 82.168C442.57 79.096 440.778 73.976 440.778 66.808V53.368C440.778 46.1147 443.125 40.568 447.818 36.728C452.511 32.8027 458.997 30.84 467.274 30.84H503.114C504.735 30.84 505.887 31.224 506.57 31.992C507.338 32.6747 507.722 33.8267 507.722 35.448V50.68C507.722 52.3013 507.338 53.496 506.57 54.264C505.887 54.9467 504.735 55.288 503.114 55.288H473.29C472.181 55.288 471.327 55.672 470.73 56.44C470.133 57.1227 469.834 58.0187 469.834 59.128C469.834 60.2373 470.133 61.176 470.73 61.944C471.327 62.712 472.181 63.1387 473.29 63.224L492.362 65.784C498.335 66.6373 503.157 68.6 506.826 71.672C510.495 74.744 512.33 79.864 512.33 87.032V100.472C512.33 107.725 509.941 113.315 505.162 117.24C500.469 121.08 494.026 123 485.834 123Z"/>
</mask>
<path d="M51.584 123H11.136C9.51467 123 8.32 122.659 7.552 121.976C6.86933 121.208 6.528 120.013 6.528 118.392V103.416C6.528 101.795 6.86933 100.643 7.552 99.96C8.32 99.192 9.51467 98.808 11.136 98.808H45.568C46.6773 98.808 47.488 98.4667 48 97.784C48.5973 97.016 48.896 96.12 48.896 95.096C48.896 93.6453 48.5973 92.5787 48 91.896C47.488 91.2133 46.6773 90.8293 45.568 90.744L26.368 88.056C20.3947 87.2027 15.5733 85.24 11.904 82.168C8.32 79.096 6.528 73.976 6.528 66.808V53.368C6.528 46.1147 8.87467 40.568 13.568 36.728C18.2613 32.8027 24.7467 30.84 33.024 30.84H68.864C70.4853 30.84 71.6373 31.224 72.32 31.992C73.088 32.6747 73.472 33.8267 73.472 35.448V50.68C73.472 52.3013 73.088 53.496 72.32 54.264C71.6373 54.9467 70.4853 55.288 68.864 55.288H39.04C37.9307 55.288 37.0773 55.672 36.48 56.44C35.8827 57.1227 35.584 58.0187 35.584 59.128C35.584 60.2373 35.8827 61.176 36.48 61.944C37.0773 62.712 37.9307 63.1387 39.04 63.224L58.112 65.784C64.0853 66.6373 68.9067 68.6 72.576 71.672C76.2453 74.744 78.08 79.864 78.08 87.032V100.472C78.08 107.725 75.6907 113.315 70.912 117.24C66.2187 121.08 59.776 123 51.584 123ZM116.53 123H96.69C95.0687 123 93.874 122.659 93.106 121.976C92.4233 121.208 92.082 120.013 92.082 118.392V35.448C92.082 33.8267 92.4233 32.6747 93.106 31.992C93.874 31.224 95.0687 30.84 96.69 30.84H116.53C118.151 30.84 119.303 31.224 119.986 31.992C120.754 32.6747 121.138 33.8267 121.138 35.448V64.888H126.258L139.442 35.064C140.039 33.528 140.85 32.4613 141.874 31.864C142.898 31.1813 144.221 30.84 145.842 30.84H165.554C167.005 30.84 167.986 31.224 168.498 31.992C169.01 32.6747 168.967 33.6987 168.37 35.064L155.314 64.888C160.093 65.144 163.89 66.8507 166.706 70.008C169.607 73.08 171.058 77.176 171.058 82.296V118.392C171.058 120.013 170.674 121.208 169.906 121.976C169.223 122.659 168.071 123 166.45 123H146.738C145.117 123 143.922 122.659 143.154 121.976C142.471 121.208 142.13 120.013 142.13 118.392V93.432C142.13 92.0667 141.789 91 141.106 90.232C140.423 89.464 139.399 89.08 138.034 89.08H121.138V118.392C121.138 120.013 120.754 121.208 119.986 121.976C119.303 122.659 118.151 123 116.53 123ZM190.142 123C188.521 123 187.326 122.659 186.558 121.976C185.875 121.208 185.534 120.013 185.534 118.392V103.16C185.534 101.539 185.875 100.387 186.558 99.704C187.326 98.936 188.521 98.552 190.142 98.552H202.814V55.544H190.142C188.521 55.544 187.326 55.2027 186.558 54.52C185.875 53.752 185.534 52.5573 185.534 50.936V35.448C185.534 33.8267 185.875 32.6747 186.558 31.992C187.326 31.224 188.521 30.84 190.142 30.84H244.67C246.291 30.84 247.443 31.224 248.126 31.992C248.894 32.6747 249.278 33.8267 249.278 35.448V50.936C249.278 52.5573 248.894 53.752 248.126 54.52C247.443 55.2027 246.291 55.544 244.67 55.544H232.254V98.552H244.67C246.291 98.552 247.443 98.936 248.126 99.704C248.894 100.387 249.278 101.539 249.278 103.16V118.392C249.278 120.013 248.894 121.208 248.126 121.976C247.443 122.659 246.291 123 244.67 123H190.142ZM334.842 123H269.69C268.069 123 266.874 122.659 266.106 121.976C265.423 121.208 265.082 120.013 265.082 118.392V35.448C265.082 33.8267 265.423 32.6747 266.106 31.992C266.874 31.224 268.069 30.84 269.69 30.84H289.53C291.151 30.84 292.303 31.224 292.986 31.992C293.754 32.6747 294.138 33.8267 294.138 35.448V98.808H311.674V78.072C311.674 76.4507 312.015 75.2987 312.698 74.616C313.466 73.848 314.661 73.464 316.282 73.464H334.842C336.463 73.464 337.615 73.848 338.298 74.616C339.066 75.2987 339.45 76.4507 339.45 78.072V118.392C339.45 120.013 339.066 121.208 338.298 121.976C337.615 122.659 336.463 123 334.842 123ZM423.842 123H358.69C357.069 123 355.874 122.659 355.106 121.976C354.423 121.208 354.082 120.013 354.082 118.392V35.448C354.082 33.8267 354.423 32.6747 355.106 31.992C355.874 31.224 357.069 30.84 358.69 30.84H378.53C380.151 30.84 381.303 31.224 381.986 31.992C382.754 32.6747 383.138 33.8267 383.138 35.448V98.808H400.674V78.072C400.674 76.4507 401.015 75.2987 401.698 74.616C402.466 73.848 403.661 73.464 405.282 73.464H423.842C425.463 73.464 426.615 73.848 427.298 74.616C428.066 75.2987 428.45 76.4507 428.45 78.072V118.392C428.45 120.013 428.066 121.208 427.298 121.976C426.615 122.659 425.463 123 423.842 123ZM485.834 123H445.386C443.765 123 442.57 122.659 441.802 121.976C441.119 121.208 440.778 120.013 440.778 118.392V103.416C440.778 101.795 441.119 100.643 441.802 99.96C442.57 99.192 443.765 98.808 445.386 98.808H479.818C480.927 98.808 481.738 98.4667 482.25 97.784C482.847 97.016 483.146 96.12 483.146 95.096C483.146 93.6453 482.847 92.5787 482.25 91.896C481.738 91.2133 480.927 90.8293 479.818 90.744L460.618 88.056C454.645 87.2027 449.823 85.24 446.154 82.168C442.57 79.096 440.778 73.976 440.778 66.808V53.368C440.778 46.1147 443.125 40.568 447.818 36.728C452.511 32.8027 458.997 30.84 467.274 30.84H503.114C504.735 30.84 505.887 31.224 506.57 31.992C507.338 32.6747 507.722 33.8267 507.722 35.448V50.68C507.722 52.3013 507.338 53.496 506.57 54.264C505.887 54.9467 504.735 55.288 503.114 55.288H473.29C472.181 55.288 471.327 55.672 470.73 56.44C470.133 57.1227 469.834 58.0187 469.834 59.128C469.834 60.2373 470.133 61.176 470.73 61.944C471.327 62.712 472.181 63.1387 473.29 63.224L492.362 65.784C498.335 66.6373 503.157 68.6 506.826 71.672C510.495 74.744 512.33 79.864 512.33 87.032V100.472C512.33 107.725 509.941 113.315 505.162 117.24C500.469 121.08 494.026 123 485.834 123Z" fill="white"/>
<path d="M7.552 121.976L3.06754 125.962L3.30203 126.226L3.56582 126.46L7.552 121.976ZM7.552 99.96L11.7946 104.203L11.7946 104.203L7.552 99.96ZM48 97.784L43.2639 94.1004L43.2316 94.1419L43.2 94.184L48 97.784ZM48 91.896L43.2 95.496L43.3357 95.6769L43.4845 95.847L48 91.896ZM45.568 90.744L44.7361 96.686L44.9213 96.712L45.1078 96.7263L45.568 90.744ZM26.368 88.056L25.5195 93.9957L25.5278 93.9969L25.5361 93.9981L26.368 88.056ZM11.904 82.168L7.99925 86.7235L8.02569 86.7462L8.05238 86.7685L11.904 82.168ZM13.568 36.728L17.3674 41.3717L17.3925 41.3512L17.4173 41.3305L13.568 36.728ZM72.32 31.992L67.8355 35.9782L68.07 36.242L68.3338 36.4764L72.32 31.992ZM36.48 56.44L40.9955 60.391L41.1097 60.2605L41.2161 60.1236L36.48 56.44ZM39.04 63.224L39.8382 57.2773L39.6697 57.2547L39.5002 57.2417L39.04 63.224ZM58.112 65.784L58.9605 59.8443L58.9354 59.8407L58.9102 59.8373L58.112 65.784ZM72.576 71.672L76.4276 67.0715L76.4276 67.0715L72.576 71.672ZM70.912 117.24L74.7114 121.884L74.7204 121.876L70.912 117.24ZM51.584 117H11.136V129H51.584V117ZM11.136 117C10.7233 117 10.5992 116.954 10.6723 116.975C10.7625 117.001 11.1231 117.123 11.5382 117.492L3.56582 126.46C5.91456 128.548 8.85329 129 11.136 129V117ZM12.0365 117.99C12.4054 118.405 12.5274 118.766 12.5531 118.856C12.574 118.929 12.528 118.805 12.528 118.392H0.528C0.528 120.675 0.979769 123.613 3.06754 125.962L12.0365 117.99ZM12.528 118.392V103.416H0.528V118.392H12.528ZM12.528 103.416C12.528 102.995 12.5759 102.908 12.5368 103.041C12.4918 103.192 12.3129 103.684 11.7946 104.203L3.30936 95.7174C0.942778 98.0839 0.528 101.222 0.528 103.416H12.528ZM11.7946 104.203C11.4068 104.59 11.0288 104.754 10.8601 104.808C10.7199 104.853 10.7766 104.808 11.136 104.808V92.808C8.69977 92.808 5.65296 93.3738 3.30936 95.7174L11.7946 104.203ZM11.136 104.808H45.568V92.808H11.136V104.808ZM45.568 104.808C47.9459 104.808 50.8284 104.013 52.8 101.384L43.2 94.184C43.6025 93.6473 44.1362 93.251 44.6797 93.0222C45.1766 92.8129 45.5243 92.808 45.568 92.808V104.808ZM52.7361 101.468C54.1976 99.5886 54.896 97.3791 54.896 95.096H42.896C42.896 95.0173 42.9088 94.8518 42.9799 94.6386C43.0522 94.4219 43.1577 94.2369 43.2639 94.1004L52.7361 101.468ZM54.896 95.096C54.896 93.0144 54.4996 90.2126 52.5155 87.945L43.4845 95.847C43.0778 95.3822 42.9339 94.9676 42.8942 94.8258C42.8587 94.6989 42.896 94.7589 42.896 95.096H54.896ZM52.8 88.296C50.9582 85.8403 48.3031 84.9367 46.0282 84.7617L45.1078 96.7263C45.1009 96.7258 44.8348 96.7057 44.4395 96.5184C44.0106 96.3153 43.5589 95.9745 43.2 95.496L52.8 88.296ZM46.3999 84.8019L27.1999 82.1139L25.5361 93.9981L44.7361 96.686L46.3999 84.8019ZM27.2165 82.1163C22.0632 81.3801 18.3707 79.7568 15.7556 77.5675L8.05238 86.7685C12.776 90.7232 18.7261 93.0252 25.5195 93.9957L27.2165 82.1163ZM15.8087 77.6125C14.1202 76.1651 12.528 73.1398 12.528 66.808H0.528C0.528 74.8122 2.51985 82.0269 7.99925 86.7235L15.8087 77.6125ZM12.528 66.808V53.368H0.528V66.808H12.528ZM12.528 53.368C12.528 47.5233 14.3437 43.8457 17.3674 41.3717L9.76857 32.0843C3.40567 37.2903 0.528 44.7061 0.528 53.368H12.528ZM17.4173 41.3305C20.7028 38.5826 25.6566 36.84 33.024 36.84V24.84C23.8367 24.84 15.8198 27.0227 9.71867 32.1255L17.4173 41.3305ZM33.024 36.84H68.864V24.84H33.024V36.84ZM68.864 36.84C69.2321 36.84 69.2486 36.8874 69.0466 36.8201C68.8079 36.7405 68.3097 36.5116 67.8355 35.9782L76.8045 28.0058C74.4649 25.3738 71.2226 24.84 68.864 24.84V36.84ZM68.3338 36.4764C67.8004 36.0023 67.5715 35.504 67.4919 35.2654C67.4246 35.0634 67.472 35.08 67.472 35.448H79.472C79.472 33.0894 78.9382 29.8471 76.3062 27.5075L68.3338 36.4764ZM67.472 35.448V50.68H79.472V35.448H67.472ZM67.472 50.68C67.472 51.0394 67.4268 51.0961 67.4718 50.9559C67.5261 50.7872 67.6895 50.4092 68.0774 50.0214L76.5626 58.5066C78.9062 56.163 79.472 53.1162 79.472 50.68H67.472ZM68.0774 50.0214C68.5956 49.5031 69.0876 49.3242 69.2395 49.2792C69.3715 49.2401 69.2849 49.288 68.864 49.288V61.288C71.0578 61.288 74.1961 60.8732 76.5626 58.5066L68.0774 50.0214ZM68.864 49.288H39.04V61.288H68.864V49.288ZM39.04 49.288C36.3736 49.288 33.6473 50.3091 31.7439 52.7564L41.2161 60.1236C40.9387 60.4803 40.532 60.8217 40.0302 61.0475C39.5526 61.2624 39.1789 61.288 39.04 61.288V49.288ZM31.9645 52.489C30.2089 54.4954 29.584 56.9033 29.584 59.128H41.584C41.584 59.1084 41.5867 59.2614 41.5001 59.5214C41.4081 59.7975 41.2431 60.108 40.9955 60.391L31.9645 52.489ZM29.584 59.128C29.584 61.3753 30.2146 63.6614 31.7439 65.6276L41.2161 58.2604C41.3575 58.4421 41.463 58.6482 41.5256 58.8448C41.5853 59.0327 41.584 59.1421 41.584 59.128H29.584ZM31.7439 65.6276C33.5328 67.9276 36.0519 69.0119 38.5798 69.2063L39.5002 57.2417C39.5926 57.2488 39.8784 57.287 40.2513 57.4734C40.6422 57.6689 40.976 57.9516 41.2161 58.2604L31.7439 65.6276ZM38.2418 69.1707L57.3138 71.7307L58.9102 59.8373L39.8382 57.2773L38.2418 69.1707ZM57.2635 71.7237C62.4168 72.4599 66.1093 74.0832 68.7244 76.2725L76.4276 67.0715C71.704 63.1168 65.7539 60.8148 58.9605 59.8443L57.2635 71.7237ZM68.7244 76.2725C70.467 77.7315 72.08 80.7403 72.08 87.032H84.08C84.08 78.9877 82.0236 71.7565 76.4276 67.0715L68.7244 76.2725ZM72.08 87.032V100.472H84.08V87.032H72.08ZM72.08 100.472C72.08 106.276 70.248 110.021 67.1036 112.604L74.7204 121.876C81.1333 116.609 84.08 109.175 84.08 100.472H72.08ZM67.1126 112.596C63.8149 115.294 58.8766 117 51.584 117V129C60.6754 129 68.6224 126.866 74.7114 121.884L67.1126 112.596ZM93.106 121.976L88.6215 125.962L88.856 126.226L89.1198 126.46L93.106 121.976ZM93.106 31.992L88.8634 27.7494L88.8634 27.7494L93.106 31.992ZM119.986 31.992L115.502 35.9782L115.736 36.242L116 36.4764L119.986 31.992ZM121.138 64.888H115.138V70.888H121.138V64.888ZM126.258 64.888V70.888H130.166L131.746 67.3139L126.258 64.888ZM139.442 35.064L144.93 37.4899L144.985 37.3655L145.034 37.2387L139.442 35.064ZM141.874 31.864L144.897 37.0467L145.053 36.9561L145.202 36.8563L141.874 31.864ZM168.498 31.992L163.506 35.3202L163.598 35.4588L163.698 35.592L168.498 31.992ZM168.37 35.064L173.866 37.4701L173.867 37.4689L168.37 35.064ZM155.314 64.888L149.818 62.4818L146.344 70.4161L154.993 70.8794L155.314 64.888ZM166.706 70.008L162.228 74.0017L162.285 74.0655L162.344 74.1277L166.706 70.008ZM169.906 121.976L174.149 126.219L174.149 126.219L169.906 121.976ZM143.154 121.976L138.67 125.962L138.904 126.226L139.168 126.46L143.154 121.976ZM121.138 89.08V83.08H115.138V89.08H121.138ZM119.986 121.976L115.743 117.733L115.743 117.733L119.986 121.976ZM116.53 117H96.69V129H116.53V117ZM96.69 117C96.2773 117 96.1532 116.954 96.2263 116.975C96.3165 117.001 96.6771 117.123 97.0922 117.492L89.1198 126.46C91.4686 128.548 94.4073 129 96.69 129V117ZM97.5905 117.99C97.9594 118.405 98.0814 118.766 98.1071 118.856C98.128 118.929 98.082 118.805 98.082 118.392H86.082C86.082 120.675 86.5338 123.613 88.6215 125.962L97.5905 117.99ZM98.082 118.392V35.448H86.082V118.392H98.082ZM98.082 35.448C98.082 35.0272 98.1299 34.9405 98.0908 35.0725C98.0458 35.2244 97.8669 35.7164 97.3486 36.2346L88.8634 27.7494C86.4968 30.1159 86.082 33.2542 86.082 35.448H98.082ZM97.3486 36.2346C96.9608 36.6225 96.5828 36.7859 96.4141 36.8402C96.2739 36.8852 96.3306 36.84 96.69 36.84V24.84C94.2538 24.84 91.207 25.4058 88.8634 27.7494L97.3486 36.2346ZM96.69 36.84H116.53V24.84H96.69V36.84ZM116.53 36.84C116.898 36.84 116.915 36.8874 116.713 36.8201C116.474 36.7405 115.976 36.5116 115.502 35.9782L124.47 28.0058C122.131 25.3738 118.889 24.84 116.53 24.84V36.84ZM116 36.4764C115.466 36.0023 115.237 35.504 115.158 35.2654C115.091 35.0634 115.138 35.08 115.138 35.448H127.138C127.138 33.0894 126.604 29.8471 123.972 27.5075L116 36.4764ZM115.138 35.448V64.888H127.138V35.448H115.138ZM121.138 70.888H126.258V58.888H121.138V70.888ZM131.746 67.3139L144.93 37.4899L133.954 32.6381L120.77 62.4621L131.746 67.3139ZM145.034 37.2387C145.103 37.0619 145.163 36.9371 145.207 36.8549C145.252 36.7729 145.277 36.74 145.275 36.7425C145.272 36.7458 145.242 36.7853 145.177 36.8443C145.111 36.9043 145.018 36.9765 144.897 37.0467L138.851 26.6813C136.273 28.1853 134.75 30.5752 133.85 32.8893L145.034 37.2387ZM145.202 36.8563C144.972 37.0097 145.035 36.84 145.842 36.84V24.84C143.406 24.84 140.824 25.353 138.546 26.8717L145.202 36.8563ZM145.842 36.84H165.554V24.84H145.842V36.84ZM165.554 36.84C165.794 36.84 165.606 36.8777 165.192 36.7155C164.706 36.5253 164.025 36.0994 163.506 35.3202L173.49 28.6638C171.337 25.4335 167.82 24.84 165.554 24.84V36.84ZM163.698 35.592C162.965 34.6151 162.831 33.604 162.855 33.0222C162.875 32.5352 162.997 32.3752 162.873 32.6591L173.867 37.4689C174.671 35.6301 175.86 31.8076 173.298 28.392L163.698 35.592ZM162.874 32.6578L149.818 62.4818L160.81 67.2941L173.866 37.4701L162.874 32.6578ZM154.993 70.8794C158.404 71.0621 160.62 72.198 162.228 74.0017L171.184 66.0143C167.16 61.5033 161.782 59.2259 155.635 58.8966L154.993 70.8794ZM162.344 74.1277C163.979 75.8593 165.058 78.365 165.058 82.296H177.058C177.058 75.987 175.235 70.3007 171.068 65.8883L162.344 74.1277ZM165.058 82.296V118.392H177.058V82.296H165.058ZM165.058 118.392C165.058 118.751 165.013 118.808 165.058 118.668C165.112 118.499 165.276 118.121 165.663 117.733L174.149 126.219C176.492 123.875 177.058 120.828 177.058 118.392H165.058ZM165.663 117.733C166.182 117.215 166.674 117.036 166.825 116.991C166.958 116.952 166.871 117 166.45 117V129C168.644 129 171.782 128.585 174.149 126.219L165.663 117.733ZM166.45 117H146.738V129H166.45V117ZM146.738 117C146.325 117 146.201 116.954 146.274 116.975C146.364 117.001 146.725 117.123 147.14 117.492L139.168 126.46C141.517 128.548 144.455 129 146.738 129V117ZM147.638 117.99C148.007 118.405 148.129 118.766 148.155 118.856C148.176 118.929 148.13 118.805 148.13 118.392H136.13C136.13 120.675 136.582 123.613 138.67 125.962L147.638 117.99ZM148.13 118.392V93.432H136.13V118.392H148.13ZM148.13 93.432C148.13 91.0882 147.533 88.4308 145.59 86.2458L136.622 94.2182C136.358 93.9222 136.221 93.628 136.159 93.4366C136.105 93.2659 136.13 93.239 136.13 93.432H148.13ZM145.59 86.2458C143.427 83.8115 140.519 83.08 138.034 83.08V95.08C138.169 95.08 138.025 95.1006 137.719 94.986C137.378 94.8581 136.97 94.6101 136.622 94.2182L145.59 86.2458ZM138.034 83.08H121.138V95.08H138.034V83.08ZM115.138 89.08V118.392H127.138V89.08H115.138ZM115.138 118.392C115.138 118.751 115.093 118.808 115.138 118.668C115.192 118.499 115.356 118.121 115.743 117.733L124.229 126.219C126.572 123.875 127.138 120.828 127.138 118.392H115.138ZM115.743 117.733C116.262 117.215 116.754 117.036 116.905 116.991C117.038 116.952 116.951 117 116.53 117V129C118.724 129 121.862 128.585 124.229 126.219L115.743 117.733ZM186.558 121.976L182.074 125.962L182.308 126.226L182.572 126.46L186.558 121.976ZM186.558 99.704L190.801 103.947L190.801 103.947L186.558 99.704ZM202.814 98.552V104.552H208.814V98.552H202.814ZM202.814 55.544H208.814V49.544H202.814V55.544ZM186.558 54.52L182.074 58.5062L182.308 58.77L182.572 59.0044L186.558 54.52ZM186.558 31.992L182.315 27.7494L182.315 27.7494L186.558 31.992ZM248.126 31.992L243.642 35.9782L243.876 36.242L244.14 36.4764L248.126 31.992ZM248.126 54.52L252.369 58.7626L252.369 58.7626L248.126 54.52ZM232.254 55.544V49.544H226.254V55.544H232.254ZM232.254 98.552H226.254V104.552H232.254V98.552ZM248.126 99.704L243.642 103.69L243.876 103.954L244.14 104.188L248.126 99.704ZM248.126 121.976L252.369 126.219L252.369 126.219L248.126 121.976ZM190.142 117C189.729 117 189.605 116.954 189.678 116.975C189.768 117.001 190.129 117.123 190.544 117.492L182.572 126.46C184.921 128.548 187.859 129 190.142 129V117ZM191.042 117.99C191.411 118.405 191.533 118.766 191.559 118.856C191.58 118.929 191.534 118.805 191.534 118.392H179.534C179.534 120.675 179.986 123.613 182.074 125.962L191.042 117.99ZM191.534 118.392V103.16H179.534V118.392H191.534ZM191.534 103.16C191.534 102.739 191.582 102.652 191.543 102.785C191.498 102.936 191.319 103.428 190.801 103.947L182.315 95.4614C179.949 97.8279 179.534 100.966 179.534 103.16H191.534ZM190.801 103.947C190.413 104.334 190.035 104.498 189.866 104.552C189.726 104.597 189.783 104.552 190.142 104.552V92.552C187.706 92.552 184.659 93.1178 182.315 95.4614L190.801 103.947ZM190.142 104.552H202.814V92.552H190.142V104.552ZM208.814 98.552V55.544H196.814V98.552H208.814ZM202.814 49.544H190.142V61.544H202.814V49.544ZM190.142 49.544C189.729 49.544 189.605 49.498 189.678 49.5189C189.768 49.5446 190.129 49.6666 190.544 50.0355L182.572 59.0044C184.921 61.0922 187.859 61.544 190.142 61.544V49.544ZM191.042 50.5338C191.411 50.9489 191.533 51.3095 191.559 51.3997C191.58 51.4728 191.534 51.3487 191.534 50.936H179.534C179.534 53.2187 179.986 56.1574 182.074 58.5062L191.042 50.5338ZM191.534 50.936V35.448H179.534V50.936H191.534ZM191.534 35.448C191.534 35.0272 191.582 34.9405 191.543 35.0725C191.498 35.2244 191.319 35.7164 190.801 36.2346L182.315 27.7494C179.949 30.1159 179.534 33.2542 179.534 35.448H191.534ZM190.801 36.2346C190.413 36.6225 190.035 36.7859 189.866 36.8402C189.726 36.8852 189.783 36.84 190.142 36.84V24.84C187.706 24.84 184.659 25.4058 182.315 27.7494L190.801 36.2346ZM190.142 36.84H244.67V24.84H190.142V36.84ZM244.67 36.84C245.038 36.84 245.055 36.8874 244.853 36.8201C244.614 36.7405 244.116 36.5116 243.642 35.9782L252.61 28.0058C250.271 25.3738 247.029 24.84 244.67 24.84V36.84ZM244.14 36.4764C243.606 36.0023 243.377 35.504 243.298 35.2654C243.231 35.0634 243.278 35.08 243.278 35.448H255.278C255.278 33.0894 254.744 29.8471 252.112 27.5076L244.14 36.4764ZM243.278 35.448V50.936H255.278V35.448H243.278ZM243.278 50.936C243.278 51.2954 243.233 51.3521 243.278 51.212C243.332 51.0432 243.496 50.6652 243.883 50.2774L252.369 58.7626C254.712 56.419 255.278 53.3722 255.278 50.936H243.278ZM243.883 50.2774C244.402 49.7591 244.894 49.5802 245.045 49.5352C245.178 49.4961 245.091 49.544 244.67 49.544V61.544C246.864 61.544 250.002 61.1292 252.369 58.7626L243.883 50.2774ZM244.67 49.544H232.254V61.544H244.67V49.544ZM226.254 55.544V98.552H238.254V55.544H226.254ZM232.254 104.552H244.67V92.552H232.254V104.552ZM244.67 104.552C245.038 104.552 245.055 104.599 244.853 104.532C244.614 104.453 244.116 104.224 243.642 103.69L252.61 95.7178C250.271 93.0858 247.029 92.552 244.67 92.552V104.552ZM244.14 104.188C243.606 103.714 243.377 103.216 243.298 102.977C243.231 102.775 243.278 102.792 243.278 103.16H255.278C255.278 100.801 254.744 97.5591 252.112 95.2196L244.14 104.188ZM243.278 103.16V118.392H255.278V103.16H243.278ZM243.278 118.392C243.278 118.751 243.233 118.808 243.278 118.668C243.332 118.499 243.496 118.121 243.883 117.733L252.369 126.219C254.712 123.875 255.278 120.828 255.278 118.392H243.278ZM243.883 117.733C244.402 117.215 244.894 117.036 245.045 116.991C245.178 116.952 245.091 117 244.67 117V129C246.864 129 250.002 128.585 252.369 126.219L243.883 117.733ZM244.67 117H190.142V129H244.67V117ZM266.106 121.976L261.622 125.962L261.856 126.226L262.12 126.46L266.106 121.976ZM266.106 31.992L261.863 27.7494L261.863 27.7494L266.106 31.992ZM292.986 31.992L288.502 35.9782L288.736 36.242L289 36.4764L292.986 31.992ZM294.138 98.808H288.138V104.808H294.138V98.808ZM311.674 98.808V104.808H317.674V98.808H311.674ZM312.698 74.616L308.455 70.3734L308.455 70.3734L312.698 74.616ZM338.298 74.616L333.814 78.6022L334.048 78.866L334.312 79.1004L338.298 74.616ZM338.298 121.976L342.541 126.219L342.541 126.219L338.298 121.976ZM334.842 117H269.69V129H334.842V117ZM269.69 117C269.277 117 269.153 116.954 269.226 116.975C269.316 117.001 269.677 117.123 270.092 117.492L262.12 126.46C264.469 128.548 267.407 129 269.69 129V117ZM270.59 117.99C270.959 118.405 271.081 118.766 271.107 118.856C271.128 118.929 271.082 118.805 271.082 118.392H259.082C259.082 120.675 259.534 123.613 261.622 125.962L270.59 117.99ZM271.082 118.392V35.448H259.082V118.392H271.082ZM271.082 35.448C271.082 35.0272 271.13 34.9405 271.091 35.0725C271.046 35.2244 270.867 35.7164 270.349 36.2346L261.863 27.7494C259.497 30.1159 259.082 33.2542 259.082 35.448H271.082ZM270.349 36.2346C269.961 36.6225 269.583 36.7859 269.414 36.8402C269.274 36.8852 269.331 36.84 269.69 36.84V24.84C267.254 24.84 264.207 25.4058 261.863 27.7494L270.349 36.2346ZM269.69 36.84H289.53V24.84H269.69V36.84ZM289.53 36.84C289.898 36.84 289.915 36.8874 289.713 36.8201C289.474 36.7405 288.976 36.5116 288.502 35.9782L297.47 28.0058C295.131 25.3738 291.889 24.84 289.53 24.84V36.84ZM289 36.4764C288.466 36.0023 288.237 35.504 288.158 35.2654C288.091 35.0634 288.138 35.08 288.138 35.448H300.138C300.138 33.0894 299.604 29.8471 296.972 27.5075L289 36.4764ZM288.138 35.448V98.808H300.138V35.448H288.138ZM294.138 104.808H311.674V92.808H294.138V104.808ZM317.674 98.808V78.072H305.674V98.808H317.674ZM317.674 78.072C317.674 77.6512 317.722 77.5645 317.683 77.6965C317.638 77.8484 317.459 78.3404 316.941 78.8586L308.455 70.3734C306.089 72.7399 305.674 75.8782 305.674 78.072H317.674ZM316.941 78.8586C316.553 79.2465 316.175 79.4099 316.006 79.4642C315.866 79.5092 315.923 79.464 316.282 79.464V67.464C313.846 67.464 310.799 68.0298 308.455 70.3734L316.941 78.8586ZM316.282 79.464H334.842V67.464H316.282V79.464ZM334.842 79.464C335.21 79.464 335.227 79.5114 335.025 79.4441C334.786 79.3645 334.288 79.1356 333.814 78.6022L342.782 70.6298C340.443 67.9978 337.201 67.464 334.842 67.464V79.464ZM334.312 79.1004C333.778 78.6263 333.549 78.128 333.47 77.8894C333.403 77.6874 333.45 77.704 333.45 78.072H345.45C345.45 75.7134 344.916 72.4711 342.284 70.1315L334.312 79.1004ZM333.45 78.072V118.392H345.45V78.072H333.45ZM333.45 118.392C333.45 118.751 333.405 118.808 333.45 118.668C333.504 118.499 333.668 118.121 334.055 117.733L342.541 126.219C344.884 123.875 345.45 120.828 345.45 118.392H333.45ZM334.055 117.733C334.574 117.215 335.066 117.036 335.217 116.991C335.35 116.952 335.263 117 334.842 117V129C337.036 129 340.174 128.585 342.541 126.219L334.055 117.733ZM355.106 121.976L350.622 125.962L350.856 126.226L351.12 126.46L355.106 121.976ZM355.106 31.992L350.863 27.7494L350.863 27.7494L355.106 31.992ZM381.986 31.992L377.502 35.9782L377.736 36.242L378 36.4764L381.986 31.992ZM383.138 98.808H377.138V104.808H383.138V98.808ZM400.674 98.808V104.808H406.674V98.808H400.674ZM401.698 74.616L397.455 70.3734L397.455 70.3734L401.698 74.616ZM427.298 74.616L422.814 78.6022L423.048 78.866L423.312 79.1004L427.298 74.616ZM427.298 121.976L431.541 126.219L431.541 126.219L427.298 121.976ZM423.842 117H358.69V129H423.842V117ZM358.69 117C358.277 117 358.153 116.954 358.226 116.975C358.316 117.001 358.677 117.123 359.092 117.492L351.12 126.46C353.469 128.548 356.407 129 358.69 129V117ZM359.59 117.99C359.959 118.405 360.081 118.766 360.107 118.856C360.128 118.929 360.082 118.805 360.082 118.392H348.082C348.082 120.675 348.534 123.613 350.622 125.962L359.59 117.99ZM360.082 118.392V35.448H348.082V118.392H360.082ZM360.082 35.448C360.082 35.0272 360.13 34.9405 360.091 35.0725C360.046 35.2244 359.867 35.7164 359.349 36.2346L350.863 27.7494C348.497 30.1159 348.082 33.2542 348.082 35.448H360.082ZM359.349 36.2346C358.961 36.6225 358.583 36.7859 358.414 36.8402C358.274 36.8852 358.331 36.84 358.69 36.84V24.84C356.254 24.84 353.207 25.4058 350.863 27.7494L359.349 36.2346ZM358.69 36.84H378.53V24.84H358.69V36.84ZM378.53 36.84C378.898 36.84 378.915 36.8874 378.713 36.8201C378.474 36.7405 377.976 36.5116 377.502 35.9782L386.47 28.0058C384.131 25.3738 380.889 24.84 378.53 24.84V36.84ZM378 36.4764C377.466 36.0023 377.237 35.504 377.158 35.2654C377.091 35.0634 377.138 35.08 377.138 35.448H389.138C389.138 33.0894 388.604 29.8471 385.972 27.5075L378 36.4764ZM377.138 35.448V98.808H389.138V35.448H377.138ZM383.138 104.808H400.674V92.808H383.138V104.808ZM406.674 98.808V78.072H394.674V98.808H406.674ZM406.674 78.072C406.674 77.6512 406.722 77.5645 406.683 77.6965C406.638 77.8484 406.459 78.3404 405.941 78.8586L397.455 70.3734C395.089 72.7399 394.674 75.8782 394.674 78.072H406.674ZM405.941 78.8586C405.553 79.2465 405.175 79.4099 405.006 79.4642C404.866 79.5092 404.923 79.464 405.282 79.464V67.464C402.846 67.464 399.799 68.0298 397.455 70.3734L405.941 78.8586ZM405.282 79.464H423.842V67.464H405.282V79.464ZM423.842 79.464C424.21 79.464 424.227 79.5114 424.025 79.4441C423.786 79.3645 423.288 79.1356 422.814 78.6022L431.782 70.6298C429.443 67.9978 426.201 67.464 423.842 67.464V79.464ZM423.312 79.1004C422.778 78.6263 422.549 78.128 422.47 77.8894C422.403 77.6874 422.45 77.704 422.45 78.072H434.45C434.45 75.7134 433.916 72.4711 431.284 70.1315L423.312 79.1004ZM422.45 78.072V118.392H434.45V78.072H422.45ZM422.45 118.392C422.45 118.751 422.405 118.808 422.45 118.668C422.504 118.499 422.668 118.121 423.055 117.733L431.541 126.219C433.884 123.875 434.45 120.828 434.45 118.392H422.45ZM423.055 117.733C423.574 117.215 424.066 117.036 424.217 116.991C424.35 116.952 424.263 117 423.842 117V129C426.036 129 429.174 128.585 431.541 126.219L423.055 117.733ZM441.802 121.976L437.318 125.962L437.552 126.226L437.816 126.46L441.802 121.976ZM441.802 99.96L446.045 104.203L446.045 104.203L441.802 99.96ZM482.25 97.784L477.514 94.1004L477.482 94.1419L477.45 94.184L482.25 97.784ZM482.25 91.896L477.45 95.496L477.586 95.6769L477.735 95.847L482.25 91.896ZM479.818 90.744L478.986 96.686L479.171 96.712L479.358 96.7263L479.818 90.744ZM460.618 88.056L459.769 93.9957L459.778 93.9969L459.786 93.9981L460.618 88.056ZM446.154 82.168L442.249 86.7235L442.276 86.7462L442.302 86.7685L446.154 82.168ZM447.818 36.728L451.617 41.3717L451.642 41.3512L451.667 41.3305L447.818 36.728ZM506.57 31.992L502.086 35.9782L502.32 36.242L502.584 36.4764L506.57 31.992ZM470.73 56.44L475.245 60.391L475.36 60.2605L475.466 60.1236L470.73 56.44ZM473.29 63.224L474.088 57.2773L473.92 57.2547L473.75 57.2417L473.29 63.224ZM492.362 65.784L493.211 59.8443L493.185 59.8407L493.16 59.8373L492.362 65.784ZM506.826 71.672L510.678 67.0715L510.678 67.0715L506.826 71.672ZM505.162 117.24L508.961 121.884L508.97 121.876L505.162 117.24ZM485.834 117H445.386V129H485.834V117ZM445.386 117C444.973 117 444.849 116.954 444.922 116.975C445.012 117.001 445.373 117.123 445.788 117.492L437.816 126.46C440.165 128.548 443.103 129 445.386 129V117ZM446.286 117.99C446.655 118.405 446.777 118.766 446.803 118.856C446.824 118.929 446.778 118.805 446.778 118.392H434.778C434.778 120.675 435.23 123.613 437.318 125.962L446.286 117.99ZM446.778 118.392V103.416H434.778V118.392H446.778ZM446.778 103.416C446.778 102.995 446.826 102.908 446.787 103.041C446.742 103.192 446.563 103.684 446.045 104.203L437.559 95.7174C435.193 98.0839 434.778 101.222 434.778 103.416H446.778ZM446.045 104.203C445.657 104.59 445.279 104.754 445.11 104.808C444.97 104.853 445.027 104.808 445.386 104.808V92.808C442.95 92.808 439.903 93.3738 437.559 95.7174L446.045 104.203ZM445.386 104.808H479.818V92.808H445.386V104.808ZM479.818 104.808C482.196 104.808 485.078 104.013 487.05 101.384L477.45 94.184C477.853 93.6473 478.386 93.251 478.93 93.0222C479.427 92.8129 479.774 92.808 479.818 92.808V104.808ZM486.986 101.468C488.448 99.5886 489.146 97.3791 489.146 95.096H477.146C477.146 95.0173 477.159 94.8518 477.23 94.6386C477.302 94.4219 477.408 94.2369 477.514 94.1004L486.986 101.468ZM489.146 95.096C489.146 93.0144 488.75 90.2126 486.765 87.945L477.735 95.847C477.328 95.3822 477.184 94.9676 477.144 94.8258C477.109 94.6989 477.146 94.7589 477.146 95.096H489.146ZM487.05 88.296C485.208 85.8403 482.553 84.9367 480.278 84.7617L479.358 96.7263C479.351 96.7258 479.085 96.7057 478.689 96.5184C478.261 96.3153 477.809 95.9745 477.45 95.496L487.05 88.296ZM480.65 84.8019L461.45 82.1139L459.786 93.9981L478.986 96.686L480.65 84.8019ZM461.467 82.1163C456.313 81.3801 452.621 79.7568 450.006 77.5675L442.302 86.7685C447.026 90.7232 452.976 93.0252 459.769 93.9957L461.467 82.1163ZM450.059 77.6125C448.37 76.1651 446.778 73.1398 446.778 66.808H434.778C434.778 74.8122 436.77 82.0269 442.249 86.7235L450.059 77.6125ZM446.778 66.808V53.368H434.778V66.808H446.778ZM446.778 53.368C446.778 47.5233 448.594 43.8457 451.617 41.3717L444.019 32.0843C437.656 37.2903 434.778 44.7061 434.778 53.368H446.778ZM451.667 41.3305C454.953 38.5826 459.907 36.84 467.274 36.84V24.84C458.087 24.84 450.07 27.0227 443.969 32.1255L451.667 41.3305ZM467.274 36.84H503.114V24.84H467.274V36.84ZM503.114 36.84C503.482 36.84 503.499 36.8874 503.297 36.8201C503.058 36.7405 502.56 36.5116 502.086 35.9782L511.054 28.0058C508.715 25.3738 505.473 24.84 503.114 24.84V36.84ZM502.584 36.4764C502.05 36.0023 501.821 35.504 501.742 35.2654C501.675 35.0634 501.722 35.08 501.722 35.448H513.722C513.722 33.0894 513.188 29.8471 510.556 27.5075L502.584 36.4764ZM501.722 35.448V50.68H513.722V35.448H501.722ZM501.722 50.68C501.722 51.0394 501.677 51.0961 501.722 50.9559C501.776 50.7872 501.94 50.4092 502.327 50.0214L510.813 58.5066C513.156 56.163 513.722 53.1162 513.722 50.68H501.722ZM502.327 50.0214C502.846 49.5031 503.338 49.3242 503.489 49.2792C503.622 49.2401 503.535 49.288 503.114 49.288V61.288C505.308 61.288 508.446 60.8732 510.813 58.5066L502.327 50.0214ZM503.114 49.288H473.29V61.288H503.114V49.288ZM473.29 49.288C470.624 49.288 467.897 50.3091 465.994 52.7564L475.466 60.1236C475.189 60.4803 474.782 60.8217 474.28 61.0475C473.803 61.2624 473.429 61.288 473.29 61.288V49.288ZM466.215 52.489C464.459 54.4954 463.834 56.9033 463.834 59.128H475.834C475.834 59.1084 475.837 59.2614 475.75 59.5214C475.658 59.7975 475.493 60.108 475.245 60.391L466.215 52.489ZM463.834 59.128C463.834 61.3753 464.465 63.6614 465.994 65.6276L475.466 58.2604C475.607 58.4421 475.713 58.6482 475.776 58.8448C475.835 59.0327 475.834 59.1421 475.834 59.128H463.834ZM465.994 65.6276C467.783 67.9276 470.302 69.0119 472.83 69.2063L473.75 57.2417C473.843 57.2488 474.128 57.287 474.501 57.4734C474.892 57.6689 475.226 57.9516 475.466 58.2604L465.994 65.6276ZM472.492 69.1707L491.564 71.7307L493.16 59.8373L474.088 57.2773L472.492 69.1707ZM491.513 71.7237C496.667 72.4599 500.359 74.0832 502.974 76.2725L510.678 67.0715C505.954 63.1168 500.004 60.8148 493.211 59.8443L491.513 71.7237ZM502.974 76.2725C504.717 77.7315 506.33 80.7403 506.33 87.032H518.33C518.33 78.9877 516.274 71.7565 510.678 67.0715L502.974 76.2725ZM506.33 87.032V100.472H518.33V87.032H506.33ZM506.33 100.472C506.33 106.276 504.498 110.021 501.354 112.604L508.97 121.876C515.383 116.609 518.33 109.175 518.33 100.472H506.33ZM501.363 112.596C498.065 115.294 493.127 117 485.834 117V129C494.925 129 502.872 126.866 508.961 121.884L501.363 112.596Z" fill="#6B59CD" mask="url(#path-1-outside-1_56_4935)"/>
</g>
<defs>
<clipPath id="clip0_56_4935">
<rect width="518" height="154" fill="white"/>
</clipPath>
</defs>
</svg>
